{
.appVersion = "3500";
DisplayStrings = (
"/o_idieresis_n_e",
"/O_IDIERESIS_N_E",
"/a_e/a_o/a_u_l_a/c_h_e/c_q_u_e/d_e/d_u_d_e_l_a/e_a/e_s_s_e/e_t_t_e/e_u/e_u_r_i_c_e/eacute_e/f_f_e/f_v_e/g_u_e/h_o_f_e/i_e/l_e/l_l_e/l_s_e/l_u/m_p/n_e/n_n_e/o_idieresis_n_e/o_t_e/p_e/p_m/r_e/r_s_e/s_c_e/s_e/s_s_e/s_t_e/t_e/t_t_e/u_e/u_l_l_e/e_t/x_c_e/x_l_e/x_l_l_e/x_s_e",
"/a_e"
);
classes = (
{
code = "A Aacute Abreve Acircumflex Adieresis Agrave Amacron Aogonek Aring Atilde AE AEacute B C Cacute Ccaron Ccedilla Cdotaccent D Dcaron Dcroat Eth E Eacute Ebreve Ecaron Ecircumflex Edieresis Edotaccent Egrave Emacron Eogonek Etilde Schwa F G Gbreve Gcommaaccent Gdotaccent H I Iacute Ibreve Icircumflex Idieresis Idotaccent Igrave Imacron Iogonek Itilde J K Kcommaaccent L Lacute Lcaron Lcommaaccent Ldot Lslash M N Nacute Ncaron Ncommaaccent Ntilde O Oacute Obreve Ocircumflex Odieresis Ograve Ohungarumlaut Omacron Oslash Otilde OE P Thorn Q R Racute Rcaron Rcommaaccent S Sacute Scaron Scedilla Scommaaccent T Tcaron Tcedilla Tcommaaccent U Uacute Ubreve Ucircumflex Udieresis Ugrave Uhungarumlaut Umacron Uogonek Uring Utilde V W Wacute Wcircumflex Wdieresis Wgrave X Y Yacute Ycircumflex Ydieresis Ygrave Ytilde Z Zacute Zcaron Zdotaccent L_S_E I_E D_U_D_E_L_A A_E A_O A_U_L_A C_H_E C_Q_U_E D_E E_A E_T E_T_T_E E_U E_S_S_E F_F_E F_V_E G_U_E H_O_F_E L_E L_L_E L_U M_P N_E N_N_E O_T_E P_M P_E R_E R_S_E S_C_E S_E S_S_E S_T_E T_E T_T_E E_U_R_I_C_E U_E U_L_L_E X_C_E X_L_E X_L_L_E X_S_E Eacute_E\012";
name = Uppercase;
}
);
copyright = "Copyright 2014-2017 Indian Type Foundry (info@indiantypefoundry.com) with Reserved Font Name 'Poppins'. Copyright 2019 Google LLC.";
customParameters = (
{
name = unicodeRanges;
value = (
0,
1,
2,
3,
5,
31,
32,
33,
35,
36,
38,
45,
60,
62
);
},
{
name = fsType;
value = (
);
},
{
name = "Use Typo Metrics";
value = 1;
},
{
name = license;

glyphs = (
{
glyphname = A;
lastChange = "2025-09-04 08:56:40 +0000";
layers = (
{
anchors = (
{
name = ogonek;
position = "{620, 0}";
},
{
name = top;
position = "{327, 700}";
}
);
background = {
paths = (
{
closed = 1;
nodes = (
"106 0 LINE",
"343 654 LINE",
"309 654 LINE",
"546 0 LINE",
"620 0 LINE",
"362 700 LINE",
"291 700 LINE",
"32 0 LINE"
);
},
{
closed = 1;
nodes = (
"500 166 LINE",
"479 224 LINE",
"173 224 LINE",
"152 166 LINE"
);
}
);
};
layerId = "3B8883BF-F483-4B97-AC7C-CABF8B821093";
paths = (
{
closed = 1;
nodes = (
"106 0 LINE",
"343 654 LINE",
"309 654 LINE",
"546 0 LINE",
"620 0 LINE",
"362 700 LINE",
"291 700 LINE",
"32 0 LINE"
);
},
{
closed = 1;
nodes = (
"500 186 LINE",
"479 244 LINE",
"173 244 LINE",
"152 186 LINE"
);
}
);
width = 652;
},
{
anchors = (
{
name = ogonek;
position = "{722, 0}";
},
{
name = top;
position = "{369, 700}";
}
);
background = {
paths = (
{
closed = 1;
nodes = (
"195 0 LINE",
"402 610 LINE",
"335 610 LINE",
"541 0 LINE",
"722 0 LINE",
"468 700 LINE",
"270 700 LINE",
"16 0 LINE"
);
},
{
closed = 1;
nodes = (
"596 124 LINE",
"553 256 LINE",
"169 256 LINE",
"125 124 LINE"
);
}
);
};
layerId = "A390C1A2-E540-434D-BB9E-4BCEE875BA63";
paths = (
{
closed = 1;
nodes = (
"195 0 LINE",
"402 610 LINE",
"335 610 LINE",
"541 0 LINE",
"722 0 LINE",
"468 700 LINE",
"270 700 LINE",
"16 0 LINE"
);
},
{
closed = 1;
nodes = (
"596 144 LINE",
"553 276 LINE",
"169 276 LINE",
"125 144 LINE"
);
}
);
width = 738;
}
);
leftKerningGroup = A;
rightKerningGroup = A;
unicode = 0041;
userData = {
com.schriftgestaltung.Glyphs.ColorIndex = 4;
com.typesupply.AccentFactory.yCoordinates = {
bottom = {
name = origin;
type = glyphMetric;
};
top = {
name = capHeight;
type = fontInfo;
};
};
};
},
{
glyphname = Aogonek;
lastChange = "2019-05-10 10:24:02 +0000";
layers = (
{
anchors = (
{
name = _ogonek;
position = "{620, 0}";
}
);
background = {
anchors = (
{
name = _ogonek;
position = "{620, 0}";
}
);
components = (
{
alignment = -1;
name = A;
}
);
paths = (
{
closed = 1;
nodes = (
"576 -201 OFFCURVE",
"602 -196 OFFCURVE",
"624 -188 CURVE",
"624 -139 LINE",
"602 -148 OFFCURVE",
"579 -153 OFFCURVE",
"559 -153 CURVE SMOOTH",
"523 -153 OFFCURVE",
"498 -135 OFFCURVE",
"498 -102 CURVE SMOOTH",
"498 -76 OFFCURVE",
"513 -52 OFFCURVE",
"561 -29 CURVE SMOOTH",
"620 0 LINE",
"601 38 LINE",
"547 13 LINE SMOOTH",
"468 -23 OFFCURVE",
"439 -64 OFFCURVE",
"439 -109 CURVE SMOOTH",
"439 -176 OFFCURVE",
"494 -201 OFFCURVE",
"552 -201 CURVE SMOOTH"
);
}
);
};
components = (
{
alignment = -1;
name = A;
}
);
layerId = "3B8883BF-F483-4B97-AC7C-CABF8B821093";
paths = (
{
closed = 1;
nodes = (
"576 -201 OFFCURVE",
"602 -196 OFFCURVE",
"624 -188 CURVE",
"624 -139 LINE",
"602 -148 OFFCURVE",
"579 -153 OFFCURVE",
"559 -153 CURVE SMOOTH",
"523 -153 OFFCURVE",
"498 -135 OFFCURVE",
"498 -102 CURVE SMOOTH",
"498 -76 OFFCURVE",
"513 -52 OFFCURVE",
"561 -29 CURVE SMOOTH",
"620 0 LINE",
"601 38 LINE",
"547 13 LINE SMOOTH",
"468 -23 OFFCURVE",
"439 -64 OFFCURVE",
"439 -109 CURVE SMOOTH",
"439 -176 OFFCURVE",
"494 -201 OFFCURVE",
"552 -201 CURVE SMOOTH"
);
}
);
width = 656;
},
{
anchors = (
{
name = _ogonek;
position = "{722, 0}";
}
);
background = {
anchors = (
{
name = _ogonek;
position = "{722, 0}";
}
);
components = (
{
alignment = -1;
name = A;
}
);
paths = (
{
closed = 1;
nodes = (
"667 -217 OFFCURVE",
"700 -211 OFFCURVE",
"729 -202 CURVE",
"729 -106 LINE",
"700 -116 OFFCURVE",
"675 -121 OFFCURVE",
"654 -121 CURVE SMOOTH",
"625 -121 OFFCURVE",
"609 -108 OFFCURVE",
"609 -86 CURVE SMOOTH",
"609 -66 OFFCURVE",
"622 -46 OFFCURVE",
"675 -22 CURVE SMOOTH",
"722 0 LINE",
"685 83 LINE",
"646 66 LINE SMOOTH",
"519 12 OFFCURVE",
"483 -38 OFFCURVE",
"483 -100 CURVE SMOOTH",
"483 -180 OFFCURVE",
"548 -217 OFFCURVE",
"630 -217 CURVE SMOOTH"
);
}
);
};
components = (
{
alignment = -1;
name = A;
}
);
layerId = "A390C1A2-E540-434D-BB9E-4BCEE875BA63";
paths = (
{
closed = 1;
nodes = (
"667 -217 OFFCURVE",
"700 -211 OFFCURVE",
"729 -202 CURVE",
"729 -106 LINE",
"700 -116 OFFCURVE",
"675 -121 OFFCURVE",
"654 -121 CURVE SMOOTH",
"625 -121 OFFCURVE",
"609 -108 OFFCURVE",
"609 -86 CURVE SMOOTH",
"609 -66 OFFCURVE",
"622 -46 OFFCURVE",
"675 -22 CURVE SMOOTH",
"722 0 LINE",
"685 83 LINE",
"646 66 LINE SMOOTH",
"519 12 OFFCURVE",
"483 -38 OFFCURVE",
"483 -100 CURVE SMOOTH",
"483 -180 OFFCURVE",
"548 -217 OFFCURVE",
"630 -217 CURVE SMOOTH"
);
}
);
width = 745;
}
);
leftKerningGroup = A;
leftMetricsKey = A;
rightKerningGroup = A;
rightMetricsKey = A;
unicode = 0104;
userData = {
com.schriftgestaltung.Glyphs.ColorIndex = 8;
com.typesupply.AccentFactory.compileType = manual;
};
},
{
glyphname = AE;
lastChange = "2019-05-10 10:24:02 +0000";
layers = (
{
anchors = (
{
name = bottom;
position = "{462, 0}";
},
{
name = top;
position = "{562, 700}";
}
);
background = {
paths = (
{
closed = 1;
nodes = (
"109 0 LINE",
"479 640 LINE",
"479 0 LINE",
"844 0 LINE",
"844 56 LINE",
"549 56 LINE",
"549 324 LINE",
"814 324 LINE",
"814 380 LINE",
"549 380 LINE",
"549 644 LINE",
"844 644 LINE",
"844 700 LINE",
"438 700 LINE",
"32 0 LINE"
);
},
{
closed = 1;
nodes = (
"511 166 LINE",
"511 222 LINE",
"195 222 LINE",
"166 166 LINE"
);
}
);
};
layerId = "3B8883BF-F483-4B97-AC7C-CABF8B821093";
paths = (
{
closed = 1;
nodes = (
"109 0 LINE",
"479 640 LINE",
"479 0 LINE",
"844 0 LINE",
"844 56 LINE",
"549 56 LINE",
"549 324 LINE",
"814 324 LINE",
"814 380 LINE",
"549 380 LINE",
"549 644 LINE",
"844 644 LINE",
"844 700 LINE",
"438 700 LINE",
"32 0 LINE"
);
},
{
closed = 1;
nodes = (
"511 166 LINE",
"511 222 LINE",
"195 222 LINE",
"166 166 LINE"
);
}
);
width = 902;
},
{
anchors = (
{
name = bottom;
position = "{488, 0}";
},
{
name = top;
position = "{588, 700}";
}
);
background = {
paths = (
{
closed = 1;
nodes = (
"201 0 LINE",
"492 575 LINE",
"492 0 LINE",
"916 0 LINE",
"916 135 LINE",
"663 135 LINE",
"663 293 LINE",
"886 293 LINE",
"886 423 LINE",
"663 423 LINE",
"663 567 LINE",
"916 567 LINE",
"916 702 LINE",
"375 702 LINE",
"16 0 LINE"
);
},
{
closed = 1;
nodes = (
"574 118 LINE",
"574 248 LINE",
"236 248 LINE",
"164 118 LINE"
);
}
);
};
layerId = "A390C1A2-E540-434D-BB9E-4BCEE875BA63";
paths = (
{
closed = 1;
nodes = (
"201 0 LINE",
"492 573 LINE",
"492 0 LINE",
"916 0 LINE",
"916 135 LINE",
"663 135 LINE",
"663 293 LINE",
"886 293 LINE",
"886 423 LINE",
"663 423 LINE",
"663 565 LINE",
"916 565 LINE",
"916 700 LINE",
"375 700 LINE",
"16 0 LINE"
);
},
{
closed = 1;
nodes = (
"574 118 LINE",
"574 248 LINE",
"236 248 LINE",
"164 118 LINE"
);
}
);
width = 966;
}
);
leftKerningGroup = AE;
leftMetricsKey = A;
rightKerningGroup = E;
rightMetricsKey = E;
unicode = 00C6;
userData = {
com.schriftgestaltung.Glyphs.ColorIndex = 4;
com.typemytype.robofont.layerData = {
b = {
anchors = (
);
components = (
);
contours = (
{
points = (
{
segmentType = line;
smooth = 0;
x = 138;
y = 183;
},
{
segmentType = line;
smooth = 0;
x = 449;
y = 183;
},
{
segmentType = line;
smooth = 0;
x = 449;
y = 202;
},
{
segmentType = line;
smooth = 0;
x = 149;
y = 202;
}
);
},
{
points = (
{
segmentType = line;
smooth = 0;
x = 757;
y = 663;
},
{
segmentType = line;
smooth = 0;
x = 757;
y = 683;
},
{
segmentType = line;
smooth = 0;
x = 442;
y = 683;
},
{
segmentType = line;
smooth = 0;
x = 11;
y = 0;
},
{
segmentType = line;
smooth = 0;
x = 32;
y = 0;
},
{
segmentType = line;
smooth = 0;
x = 443;
y = 658;
},
{
segmentType = line;
smooth = 0;
x = 443;
y = 0;
},
{
segmentType = line;
smooth = 0;
x = 757;
y = 0;
},
{
segmentType = line;
smooth = 0;
x = 757;
y = 19;
},
{
segmentType = line;
smooth = 0;
x = 463;
y = 19;
},
{
segmentType = line;
smooth = 0;
x = 463;
y = 332;
},
{
segmentType = line;
smooth = 0;
x = 727;
y = 332;
},
{
segmentType = line;
smooth = 0;
x = 727;
y = 351;
},
{
segmentType = line;
smooth = 0;
x = 463;
y = 351;
},
{
segmentType = line;
smooth = 0;
x = 463;
y = 663;
}
);
}
);
lib = {
};
name = AE;
unicodes = (
);
width = 837;
};
};
com.typesupply.AccentFactory.yCoordinates = {
bottom = {
name = origin;
type = glyphMetric;
};
top = {
name = capHeight;
type = fontInfo;
};
};
};
},
{
glyphname = B;
lastChange = "2019-05-10 10:24:02 +0000";
layers = (
{
background = {
paths = (
{
closed = 1;
nodes = (
"318 0 LINE SMOOTH",
"465 0 OFFCURVE",
"544 82 OFFCURVE",
"544 187 CURVE SMOOTH",
"544 284 OFFCURVE",
"467 362 OFFCURVE",
"378 364 CURVE",
"365 354 LINE",
"447 363 OFFCURVE",
"528 414 OFFCURVE",
"528 523 CURVE",
"528 621 OFFCURVE",
"458 699 OFFCURVE",
"311 699 CURVE SMOOTH",
"76 699 LINE",
"76 0 LINE"
);
},
{
closed = 1;
nodes = (
"146 332 LINE",
"310 332 LINE SMOOTH",
"410 332 OFFCURVE",
"474 278 OFFCURVE",
"474 194 CURVE SMOOTH",
"474 110 OFFCURVE",
"414 59 OFFCURVE",
"313 59 CURVE SMOOTH",
"146 59 LINE"
);
},
{
closed = 1;
nodes = (
"146 640 LINE",
"306 640 LINE SMOOTH",
"407 640 OFFCURVE",
"457 591 OFFCURVE",
"457 516 CURVE",
"457 438 OFFCURVE",
"404 390 OFFCURVE",
"309 390 CURVE SMOOTH",
"146 390 LINE"
);
}
);
};
layerId = "3B8883BF-F483-4B97-AC7C-CABF8B821093";
paths = (
{
closed = 1;
nodes = (
"318 0 LINE SMOOTH",
"465 0 OFFCURVE",
"544 86 OFFCURVE",
"544 191 CURVE SMOOTH",
"544 288 OFFCURVE",
"467 362 OFFCURVE",
"378 364 CURVE",
"365 354 LINE",
"447 363 OFFCURVE",
"528 414 OFFCURVE",
"528 523 CURVE SMOOTH",
"528 621 OFFCURVE",
"458 700 OFFCURVE",
"311 700 CURVE SMOOTH",
"76 700 LINE",
"76 0 LINE"
);
},
{
closed = 1;
nodes = (
"146 332 LINE",
"310 332 LINE SMOOTH",
"410 332 OFFCURVE",
"472 278 OFFCURVE",
"472 194 CURVE SMOOTH",
"472 110 OFFCURVE",
"414 59 OFFCURVE",
"313 59 CURVE SMOOTH",
"146 59 LINE"
);
},
{
closed = 1;
nodes = (
"146 641 LINE",
"306 641 LINE SMOOTH",
"407 641 OFFCURVE",
"456 591 OFFCURVE",
"456 516 CURVE SMOOTH",
"456 438 OFFCURVE",
"404 390 OFFCURVE",
"309 390 CURVE SMOOTH",
"146 390 LINE"
);
}
);
width = 593;
},
{
background = {
paths = (
{
closed = 1;
nodes = (
"389 0 LINE SMOOTH",
"537 0 OFFCURVE",
"622 75 OFFCURVE",
"622 191 CURVE SMOOTH",
"622 281 OFFCURVE",
"555 360 OFFCURVE",
"456 364 CURVE",
"439 352 LINE",
"531 358 OFFCURVE",
"606 416 OFFCURVE",
"606 520 CURVE SMOOTH",
"606 631 OFFCURVE",
"521 702 OFFCURVE",
"378 702 CURVE SMOOTH",
"62 702 LINE",
"62 0 LINE"
);
},
{
closed = 1;
nodes = (
"233 293 LINE",
"357 293 LINE SMOOTH",
"414 293 OFFCURVE",
"449 264 OFFCURVE",
"449 214 CURVE SMOOTH",
"449 164 OFFCURVE",
"416 138 OFFCURVE",
"359 138 CURVE SMOOTH",
"233 138 LINE"
);
},
{
closed = 1;
nodes = (
"233 565 LINE",
"345 565 LINE SMOOTH",
"401 565 OFFCURVE",
"432 539 OFFCURVE",
"432 491 CURVE SMOOTH",
"432 443 OFFCURVE",
"401 418 OFFCURVE",
"345 418 CURVE SMOOTH",
"233 418 LINE"
);
}
);
};
layerId = "A390C1A2-E540-434D-BB9E-4BCEE875BA63";
paths = (
{
closed = 1;
nodes = (
"389 0 LINE SMOOTH",
"537 0 OFFCURVE",
"622 75 OFFCURVE",
"622 191 CURVE SMOOTH",
"622 281 OFFCURVE",
"555 360 OFFCURVE",
"456 364 CURVE",
"439 352 LINE",
"531 358 OFFCURVE",
"606 414 OFFCURVE",
"606 518 CURVE SMOOTH",
"606 629 OFFCURVE",
"521 700 OFFCURVE",
"378 700 CURVE SMOOTH",
"62 700 LINE",
"62 0 LINE"
);
},
{
closed = 1;
nodes = (
"233 293 LINE",
"357 293 LINE SMOOTH",
"414 293 OFFCURVE",
"449 264 OFFCURVE",
"449 214 CURVE SMOOTH",
"449 164 OFFCURVE",
"416 138 OFFCURVE",
"359 138 CURVE SMOOTH",
"233 138 LINE"
);
},
{
closed = 1;
nodes = (
"233 565 LINE",
"345 565 LINE SMOOTH",
"401 565 OFFCURVE",
"432 539 OFFCURVE",
"432 491 CURVE SMOOTH",
"432 443 OFFCURVE",
"401 418 OFFCURVE",
"345 418 CURVE SMOOTH",
"233 418 LINE"
);
}
);
width = 659;
}
);
leftKerningGroup = H;
leftMetricsKey = H;
unicode = 0042;
userData = {
com.schriftgestaltung.Glyphs.ColorIndex = 4;
com.typesupply.AccentFactory.yCoordinates = {
bottom = {
name = origin;
type = glyphMetric;
};
top = {
name = capHeight;
type = fontInfo;
};
};
};
},
{
glyphname = C;
lastChange = "2019-05-10 10:24:02 +0000";
layers = (
{
anchors = (
{
name = bottom;
position = "{380, 0}";
},
{
name = top;
position = "{380, 700}";
}
);
background = {
paths = (
{
closed = 1;
nodes = (
"526 -12 OFFCURVE",
"642 66 OFFCURVE",
"682 198 CURVE",
"602 198 LINE",
"571 107 OFFCURVE",
"489 49 OFFCURVE",
"380 49 CURVE SMOOTH",
"235 49 OFFCURVE",
"120 162 OFFCURVE",
"120 350 CURVE SMOOTH",
"120 538 OFFCURVE",
"235 651 OFFCURVE",
"380 651 CURVE SMOOTH",
"489 651 OFFCURVE",
"571 593 OFFCURVE",
"602 500 CURVE",
"682 500 LINE",
"642 634 OFFCURVE",
"526 712 OFFCURVE",
"380 712 CURVE SMOOTH",
"192 712 OFFCURVE",
"48 565 OFFCURVE",
"48 350 CURVE SMOOTH",
"48 134 OFFCURVE",
"192 -12 OFFCURVE",
"380 -12 CURVE SMOOTH"
);
}
);
};
layerId = "3B8883BF-F483-4B97-AC7C-CABF8B821093";
paths = (
{
closed = 1;
nodes = (
"538 -12 OFFCURVE",
"638 66 OFFCURVE",
"667 198 CURVE",
"589 198 LINE",
"567 109 OFFCURVE",
"499 49 OFFCURVE",
"380 49 CURVE SMOOTH",
"223 49 OFFCURVE",
"120 162 OFFCURVE",
"120 350 CURVE SMOOTH",
"120 538 OFFCURVE",
"223 651 OFFCURVE",
"380 651 CURVE SMOOTH",
"499 651 OFFCURVE",
"567 591 OFFCURVE",
"589 500 CURVE",
"667 500 LINE",
"638 634 OFFCURVE",
"538 712 OFFCURVE",
"380 712 CURVE SMOOTH",
"176 712 OFFCURVE",
"48 565 OFFCURVE",
"48 350 CURVE SMOOTH",
"48 134 OFFCURVE",
"176 -12 OFFCURVE",
"380 -12 CURVE SMOOTH"
);
}
);
width = 715;
},
{
anchors = (
{
name = bottom;
position = "{391, 0}";
},
{
name = top;
position = "{391, 700}";
}
);
background = {
paths = (
{
closed = 1;
nodes = (
"561 -12 OFFCURVE",
"685 81 OFFCURVE",
"715 233 CURVE",
"527 233 LINE",
"508 173 OFFCURVE",
"457 143 OFFCURVE",
"389 143 CURVE SMOOTH",
"287 143 OFFCURVE",
"217 221 OFFCURVE",
"217 348 CURVE SMOOTH",
"217 476 OFFCURVE",
"287 556 OFFCURVE",
"389 556 CURVE SMOOTH",
"457 556 OFFCURVE",
"509 520 OFFCURVE",
"527 454 CURVE",
"715 454 LINE",
"685 618 OFFCURVE",
"561 712 OFFCURVE",
"391 712 CURVE SMOOTH",
"187 712 OFFCURVE",
"43 562 OFFCURVE",
"43 348 CURVE SMOOTH",
"43 135 OFFCURVE",
"187 -12 OFFCURVE",
"391 -12 CURVE SMOOTH"
);
}
);
};
layerId = "A390C1A2-E540-434D-BB9E-4BCEE875BA63";
paths = (
{
closed = 1;
nodes = (
"564 -12 OFFCURVE",
"685 81 OFFCURVE",
"711 233 CURVE",
"523 233 LINE",
"508 173 OFFCURVE",
"460 143 OFFCURVE",
"386 143 CURVE SMOOTH",
"276 143 OFFCURVE",
"217 221 OFFCURVE",
"217 348 CURVE SMOOTH",
"217 476 OFFCURVE",
"276 556 OFFCURVE",
"386 556 CURVE SMOOTH",
"460 556 OFFCURVE",
"509 520 OFFCURVE",
"523 454 CURVE",
"711 454 LINE",
"685 618 OFFCURVE",
"564 712 OFFCURVE",
"388 712 CURVE SMOOTH",
"172 712 OFFCURVE",
"43 562 OFFCURVE",
"43 348 CURVE SMOOTH",
"43 135 OFFCURVE",
"172 -12 OFFCURVE",
"388 -12 CURVE SMOOTH"
);
}
);
width = 754;
}
);
leftKerningGroup = O;
leftMetricsKey = O;
rightKerningGroup = C;
rightMetricsKey = O;
unicode = 0043;
userData = {
com.schriftgestaltung.Glyphs.ColorIndex = 4;
com.typesupply.AccentFactory.yCoordinates = {
bottom = {
name = origin;
type = glyphMetric;
};
top = {
name = capHeight;
type = fontInfo;
};
};
};
},
{
glyphname = D;
lastChange = "2019-05-10 10:24:02 +0000";
layers = (
{
anchors = (
{
name = top;
position = "{284, 700}";
}
);
background = {
paths = (
{
closed = 1;
nodes = (
"283 0 LINE SMOOTH",
"516 0 OFFCURVE",
"653 131 OFFCURVE",
"653 348 CURVE SMOOTH",
"653 568 OFFCURVE",
"516 700 OFFCURVE",
"283 700 CURVE SMOOTH",
"76 700 LINE",
"76 0 LINE"
);
},
{
closed = 1;
nodes = (
"146 642 LINE",
"283 642 LINE SMOOTH",
"481 642 OFFCURVE",
"581 530 OFFCURVE",
"581 348 CURVE SMOOTH",
"581 168 OFFCURVE",
"481 58 OFFCURVE",
"283 58 CURVE SMOOTH",
"146 58 LINE"
);
}
);
};
layerId = "3B8883BF-F483-4B97-AC7C-CABF8B821093";
paths = (
{
closed = 1;
nodes = (
"283 0 LINE SMOOTH",
"530 0 OFFCURVE",
"643 131 OFFCURVE",
"643 348 CURVE SMOOTH",
"643 568 OFFCURVE",
"530 700 OFFCURVE",
"283 700 CURVE SMOOTH",
"76 700 LINE",
"76 0 LINE"
);
},
{
closed = 1;
nodes = (
"146 642 LINE",
"283 642 LINE SMOOTH",
"495 642 OFFCURVE",
"571 530 OFFCURVE",
"571 348 CURVE SMOOTH",
"571 168 OFFCURVE",
"495 58 OFFCURVE",
"283 58 CURVE SMOOTH",
"146 58 LINE"
);
}
);
width = 691;
},
{
anchors = (
{
name = top;
position = "{297, 700}";
}
);
background = {
paths = (
{
closed = 1;
nodes = (
"325 0 LINE SMOOTH",
"549 0 OFFCURVE",
"693 143 OFFCURVE",
"693 351 CURVE SMOOTH",
"693 558 OFFCURVE",
"549 700 OFFCURVE",
"325 700 CURVE SMOOTH",
"62 700 LINE",
"62 0 LINE"
);
},
{
closed = 1;
nodes = (
"233 554 LINE",
"314 554 LINE SMOOTH",
"443 554 OFFCURVE",
"519 478 OFFCURVE",
"519 351 CURVE SMOOTH",
"519 222 OFFCURVE",
"443 148 OFFCURVE",
"314 148 CURVE SMOOTH",
"233 148 LINE"
);
}
);
};
layerId = "A390C1A2-E540-434D-BB9E-4BCEE875BA63";
paths = (
{
closed = 1;
nodes = (
"325 0 LINE SMOOTH",
"569 0 OFFCURVE",
"683 143 OFFCURVE",
"683 351 CURVE SMOOTH",
"683 558 OFFCURVE",
"569 700 OFFCURVE",
"325 700 CURVE SMOOTH",
"62 700 LINE",
"62 0 LINE"
);
},
{
closed = 1;
nodes = (
"233 554 LINE",
"314 554 LINE SMOOTH",
"463 554 OFFCURVE",
"509 478 OFFCURVE",
"509 351 CURVE SMOOTH",
"509 222 OFFCURVE",
"463 148 OFFCURVE",
"314 148 CURVE SMOOTH",
"233 148 LINE"
);
}
);
width = 726;
}
);
leftKerningGroup = H;
leftMetricsKey = H;
rightKerningGroup = O;
rightMetricsKey = O;
unicode = 0044;
userData = {
com.schriftgestaltung.Glyphs.ColorIndex = 4;
com.typemytype.robofont.guides = (
{
angle = 0;
isGlobal = 0;
magnetic = 5;
x = 122;
y = 684;
}
);
com.typesupply.AccentFactory.yCoordinates = {
bottom = {
name = origin;
type = glyphMetric;
};
top = {
name = capHeight;
type = fontInfo;
};
};
};
},
{
glyphname = Eth;
lastChange = "2019-05-10 10:24:02 +0000";
layers = (
{
background = {
paths = (
{
closed = 1;
nodes = (
"312 0 LINE",
"545 0 OFFCURVE",
"682 131 OFFCURVE",
"682 348 CURVE",
"682 567 OFFCURVE",
"545 699 OFFCURVE",
"312 699 CURVE",
"104 699 LINE",
"104 0 LINE"
);
},
{
closed = 1;
nodes = (
"379 316 LINE",
"379 381 LINE",
"9 381 LINE",
"9 316 LINE"
);
},
{
closed = 1;
nodes = (
"175 642 LINE",
"312 642 LINE",
"509 642 OFFCURVE",
"610 529 OFFCURVE",
"610 348 CURVE",
"610 168 OFFCURVE",
"509 55 OFFCURVE",
"312 55 CURVE",
"175 55 LINE"
);
}
);
};
components = (
{
name = D;
transform = "{1, 0, 0, 1, 24, 0}";
}
);
layerId = "3B8883BF-F483-4B97-AC7C-CABF8B821093";
paths = (
{
closed = 1;
nodes = (
"379 316 LINE",
"379 381 LINE",
"9 381 LINE",
"9 316 LINE"
);
}
);
width = 715;
},
{
background = {
paths = (
{
closed = 1;
nodes = (
"330 0 LINE SMOOTH",
"555 0 OFFCURVE",
"698 143 OFFCURVE",
"698 351 CURVE SMOOTH",
"698 560 OFFCURVE",
"555 702 OFFCURVE",
"330 702 CURVE SMOOTH",
"67 702 LINE",
"67 0 LINE"
);
},
{
closed = 1;
nodes = (
"391 280 LINE",
"391 422 LINE",
"4 422 LINE",
"4 280 LINE"
);
},
{
closed = 1;
nodes = (
"239 556 LINE",
"320 556 LINE SMOOTH",
"448 556 OFFCURVE",
"524 480 OFFCURVE",
"524 351 CURVE SMOOTH",
"524 222 OFFCURVE",
"448 146 OFFCURVE",
"320 146 CURVE SMOOTH",
"239 146 LINE"
);
}
);
};
components = (
{
name = D;
transform = "{1, 0, 0, 1, 5, 0}";
}
);
layerId = "A390C1A2-E540-434D-BB9E-4BCEE875BA63";
paths = (
{
closed = 1;
nodes = (
"391 280 LINE",
"391 422 LINE",
"4 422 LINE",
"4 280 LINE"
);
}
);
width = 731;
}
);
leftKerningGroup = Eth;
rightKerningGroup = O;
rightMetricsKey = O;
unicode = 00D0;
userData = {
com.schriftgestaltung.Glyphs.ColorIndex = 4;
};
},
{
glyphname = E;
lastChange = "2025-09-23 12:39:16 +0000";
layers = (
{
anchors = (
{
name = bottom;
position = "{294, 0}";
},
{
name = ogonek;
position = "{501, 0}";
},
{
name = top;
position = "{294, 700}";
}
);
background = {
anchors = (
{
name = bottom;
position = "{264, 0}";
},
{
name = ogonek;
position = "{471, 0}";
},
{
name = top;
position = "{264, 700}";
}
);
paths = (
{
closed = 1;
nodes = (
"471 0 LINE",
"471 58 LINE",
"146 58 LINE",
"146 323 LINE",
"441 323 LINE",
"441 381 LINE",
"146 381 LINE",
"146 642 LINE",
"471 642 LINE",
"471 700 LINE",
"76 700 LINE",
"76 0 LINE"
);
}
);
};
layerId = "3B8883BF-F483-4B97-AC7C-CABF8B821093";
paths = (
{
closed = 1;
nodes = (
"501 0 LINE",
"501 58 LINE",
"146 58 LINE",
"146 323 LINE",
"471 323 LINE",
"471 381 LINE",
"146 381 LINE",
"146 642 LINE",
"501 642 LINE",
"501 700 LINE",
"76 700 LINE",
"76 0 LINE"
);
}
);
width = 559;
},
{
anchors = (
{
name = bottom;
position = "{303, 0}";
},
{
name = ogonek;
position = "{542, 0}";
},
{
name = top;
position = "{303, 700}";
}
);
background = {
anchors = (
{
name = bottom;
position = "{273, 0}";
},
{
name = ogonek;
position = "{492, 0}";
},
{
name = top;
position = "{273, 704}";
}
);
paths = (
{
closed = 1;
nodes = (
"492 0 LINE",
"492 137 LINE",
"233 137 LINE",
"233 291 LINE",
"462 291 LINE",
"462 423 LINE",
"233 423 LINE",
"233 565 LINE",
"492 565 LINE",
"492 702 LINE",
"62 702 LINE",
"62 0 LINE"
);
}
);
};
layerId = "A390C1A2-E540-434D-BB9E-4BCEE875BA63";
paths = (
{
closed = 1;
nodes = (
"542 0 LINE",
"542 137 LINE",
"233 137 LINE",
"233 291 LINE",
"512 291 LINE",
"512 423 LINE",
"233 423 LINE",
"233 563 LINE",
"542 563 LINE",
"542 700 LINE",
"62 700 LINE",
"62 0 LINE"
);
}
);
width = 592;
}
);
leftKerningGroup = H;
leftMetricsKey = H;
rightKerningGroup = E;
unicode = 0045;
userData = {
com.schriftgestaltung.Glyphs.ColorIndex = 4;
com.typesupply.AccentFactory.yCoordinates = {
bottom = {
name = origin;
type = glyphMetric;
};
top = {
name = capHeight;
type = fontInfo;
};
};
};
},
{
glyphname = Schwa;
lastChange = "2019-05-10 10:24:02 +0000";
layers = (
{
anchors = (
{
name = top;
position = "{373, 700}";
}
);
background = {
anchors = (
{
name = top;
position = "{373, 707}";
}
);
paths = (
{
closed = 1;
nodes = (
"570 -7 OFFCURVE",
"704 137 OFFCURVE",
"704 350 CURVE SMOOTH",
"704 560 OFFCURVE",
"569 707 OFFCURVE",
"373 707 CURVE SMOOTH",
"214 707 OFFCURVE",
"93 616 OFFCURVE",
"52 476 CURVE",
"132 476 LINE",
"164 581 OFFCURVE",
"258 643 OFFCURVE",
"373 643 CURVE SMOOTH",
"520 643 OFFCURVE",
"628 534 OFFCURVE",
"628 362 CURVE SMOOTH",
"628 325 LINE SMOOTH",
"628 154 OFFCURVE",
"516 56 OFFCURVE",
"370 56 CURVE SMOOTH",
"218 56 OFFCURVE",
"118 157 OFFCURVE",
"121 311 CURVE",
"643 311 LINE",
"643 376 LINE",
"51 376 LINE",
"49 356 OFFCURVE",
"48 337 OFFCURVE",
"48 318 CURVE SMOOTH",
"48 112 OFFCURVE",
"181 -7 OFFCURVE",
"370 -7 CURVE SMOOTH"
);
}
);
};
layerId = "3B8883BF-F483-4B97-AC7C-CABF8B821093";
paths = (
{
closed = 1;
nodes = (
"570 -12 OFFCURVE",
"704 132 OFFCURVE",
"704 345 CURVE SMOOTH",
"704 565 OFFCURVE",
"569 712 OFFCURVE",
"373 712 CURVE SMOOTH",
"214 712 OFFCURVE",
"93 621 OFFCURVE",
"52 481 CURVE",
"132 481 LINE",
"164 586 OFFCURVE",
"258 648 OFFCURVE",
"373 648 CURVE SMOOTH",
"520 648 OFFCURVE",
"628 539 OFFCURVE",
"628 357 CURVE SMOOTH",
"628 320 LINE SMOOTH",
"628 149 OFFCURVE",
"516 51 OFFCURVE",
"370 51 CURVE SMOOTH",
"218 51 OFFCURVE",
"118 152 OFFCURVE",
"121 306 CURVE",
"643 306 LINE",
"643 371 LINE",
"51 371 LINE",
"49 351 OFFCURVE",
"48 332 OFFCURVE",
"48 313 CURVE SMOOTH",
"48 107 OFFCURVE",
"181 -12 OFFCURVE",
"370 -12 CURVE SMOOTH"
);
}
);
width = 752;
},
{
anchors = (
{
name = top;
position = "{386, 700}";
}
);
background = {
anchors = (
{
name = top;
position = "{386, 716}";
}
);
paths = (
{
closed = 1;
nodes = (
"595 -8 OFFCURVE",
"733 136 OFFCURVE",
"733 354 CURVE SMOOTH",
"733 573 OFFCURVE",
"593 716 OFFCURVE",
"386 716 CURVE SMOOTH",
"216 716 OFFCURVE",
"92 615 OFFCURVE",
"54 472 CURVE",
"240 472 LINE",
"261 528 OFFCURVE",
"318 562 OFFCURVE",
"388 562 CURVE SMOOTH",
"482 562 OFFCURVE",
"556 497 OFFCURVE",
"556 385 CURVE SMOOTH",
"556 310 LINE SMOOTH",
"556 207 OFFCURVE",
"477 149 OFFCURVE",
"384 149 CURVE SMOOTH",
"291 149 OFFCURVE",
"223 204 OFFCURVE",
"219 286 CURVE",
"579 286 LINE",
"579 401 LINE",
"47 401 LINE",
"45 380 OFFCURVE",
"43 358 OFFCURVE",
"43 339 CURVE SMOOTH",
"43 122 OFFCURVE",
"181 -8 OFFCURVE",
"387 -8 CURVE SMOOTH"
);
}
);
};
layerId = "A390C1A2-E540-434D-BB9E-4BCEE875BA63";
paths = (
{
closed = 1;
nodes = (
"595 -12 OFFCURVE",
"733 132 OFFCURVE",
"733 350 CURVE SMOOTH",
"733 569 OFFCURVE",
"593 712 OFFCURVE",
"386 712 CURVE SMOOTH",
"216 712 OFFCURVE",
"92 611 OFFCURVE",
"54 468 CURVE",
"240 468 LINE",
"261 524 OFFCURVE",
"318 558 OFFCURVE",
"388 558 CURVE SMOOTH",
"482 558 OFFCURVE",
"556 493 OFFCURVE",
"556 381 CURVE SMOOTH",
"556 306 LINE SMOOTH",
"556 203 OFFCURVE",
"477 145 OFFCURVE",
"384 145 CURVE SMOOTH",
"291 145 OFFCURVE",
"223 200 OFFCURVE",
"219 282 CURVE",
"579 282 LINE",
"579 397 LINE",
"47 397 LINE",
"45 376 OFFCURVE",
"43 354 OFFCURVE",
"43 335 CURVE SMOOTH",
"43 118 OFFCURVE",
"181 -12 OFFCURVE",
"387 -12 CURVE SMOOTH"
);
}
);
width = 776;
}
);
leftMetricsKey = O;
rightKerningGroup = O;
rightMetricsKey = O;
unicode = 018F;
},
{
glyphname = F;
lastChange = "2019-05-10 10:24:02 +0000";
layers = (
{
background = {
paths = (
{
closed = 1;
nodes = (
"146 0 LINE",
"146 322 LINE",
"406 322 LINE",
"406 380 LINE",
"146 380 LINE",
"146 641 LINE",
"454 641 LINE",
"454 699 LINE",
"76 699 LINE",
"76 0 LINE"
);
}
);
};
layerId = "3B8883BF-F483-4B97-AC7C-CABF8B821093";
paths = (
{
closed = 1;
nodes = (
"146 0 LINE",
"146 322 LINE",
"446 322 LINE",
"446 380 LINE",
"146 380 LINE",
"146 642 LINE",
"494 642 LINE",
"494 700 LINE",
"76 700 LINE",
"76 0 LINE"
);
}
);
width = 529;
},
{
background = {
paths = (
{
closed = 1;
nodes = (
"233 0 LINE",
"233 284 LINE",
"447 284 LINE",
"447 417 LINE",
"233 417 LINE",
"233 565 LINE",
"519 565 LINE",
"519 702 LINE",
"62 702 LINE",
"62 0 LINE"
);
}
);
};
layerId = "A390C1A2-E540-434D-BB9E-4BCEE875BA63";
paths = (
{
closed = 1;
nodes = (
"233 0 LINE",
"233 284 LINE",
"467 284 LINE",
"467 417 LINE",
"233 417 LINE",
"233 563 LINE",
"539 563 LINE",
"539 700 LINE",
"62 700 LINE",
"62 0 LINE"
);
}
);
width = 567;
}
);
leftKerningGroup = H;
leftMetricsKey = H;
unicode = 0046;
userData = {
com.schriftgestaltung.Glyphs.ColorIndex = 4;
com.typesupply.AccentFactory.yCoordinates = {
bottom = {
name = origin;
type = glyphMetric;
};
top = {
name = capHeight;
type = fontInfo;
};
};
};
},
{
glyphname = G;
lastChange = "2019-05-16 15:23:33 +0000";
layers = (
{
anchors = (
{
name = bottom;
position = "{385, 0}";
},
{
name = top;
position = "{385, 700}";
}
);
background = {
paths = (
{
closed = 1;
nodes = (
"493 -12 OFFCURVE",
"570 36 OFFCURVE",
"626 122 CURVE",
"626 0 LINE",
"696 0 LINE",
"696 371 LINE",
"383 371 LINE",
"383 314 LINE",
"624 314 LINE",
"613 150 OFFCURVE",
"528 51 OFFCURVE",
"375 51 CURVE SMOOTH",
"237 51 OFFCURVE",
"120 164 OFFCURVE",
"120 350 CURVE SMOOTH",
"120 536 OFFCURVE",
"237 648 OFFCURVE",
"385 648 CURVE SMOOTH",
"493 648 OFFCURVE",
"578 590 OFFCURVE",
"601 500 CURVE",
"683 500 LINE",
"649 633 OFFCURVE",
"531 712 OFFCURVE",
"385 712 CURVE SMOOTH",
"191 712 OFFCURVE",
"48 564 OFFCURVE",
"48 350 CURVE SMOOTH",
"48 135 OFFCURVE",
"191 -12 OFFCURVE",
"375 -12 CURVE SMOOTH"
);
}
);
};
layerId = "3B8883BF-F483-4B97-AC7C-CABF8B821093";
paths = (
{
closed = 1;
nodes = (
"501 -12 OFFCURVE",
"570 36 OFFCURVE",
"622 122 CURVE",
"628 0 LINE",
"692 0 LINE",
"692 371 LINE",
"409 371 LINE",
"409 314 LINE",
"620 314 LINE",
"609 150 OFFCURVE",
"532 51 OFFCURVE",
"375 51 CURVE SMOOTH",
"225 51 OFFCURVE",
"120 164 OFFCURVE",
"120 350 CURVE SMOOTH",
"120 536 OFFCURVE",
"225 648 OFFCURVE",
"385 648 CURVE SMOOTH",
"501 648 OFFCURVE",
"578 590 OFFCURVE",
"597 500 CURVE",
"679 500 LINE",
"649 633 OFFCURVE",
"539 712 OFFCURVE",
"385 712 CURVE SMOOTH",
"179 712 OFFCURVE",
"48 564 OFFCURVE",
"48 350 CURVE SMOOTH",
"48 135 OFFCURVE",
"179 -12 OFFCURVE",
"375 -12 CURVE SMOOTH"
);
}
);
width = 752;
},
{
anchors = (
{
name = bottom;
position = "{391, 0}";
},
{
name = top;
position = "{400, 700}";
}
);
background = {
paths = (
{
closed = 1;
nodes = (
"455 -12 OFFCURVE",
"527 19 OFFCURVE",
"568 70 CURVE",
"568 0 LINE",
"739 0 LINE",
"739 396 LINE",
"387 396 LINE",
"387 270 LINE",
"568 270 LINE",
"552 201 OFFCURVE",
"490 139 OFFCURVE",
"402 139 CURVE SMOOTH",
"288 139 OFFCURVE",
"217 209 OFFCURVE",
"217 346 CURVE SMOOTH",
"217 470 OFFCURVE",
"290 554 OFFCURVE",
"400 554 CURVE SMOOTH",
"464 554 OFFCURVE",
"512 529 OFFCURVE",
"538 482 CURVE",
"727 482 LINE",
"690 626 OFFCURVE",
"568 712 OFFCURVE",
"400 712 CURVE SMOOTH",
"190 712 OFFCURVE",
"43 558 OFFCURVE",
"43 346 CURVE SMOOTH",
"43 129 OFFCURVE",
"181 -12 OFFCURVE",
"381 -12 CURVE SMOOTH"
);
}
);
};
layerId = "A390C1A2-E540-434D-BB9E-4BCEE875BA63";
paths = (
{
closed = 1;
nodes = (
"464 -12 OFFCURVE",
"524 17 OFFCURVE",
"564 70 CURVE",
"577 0 LINE",
"735 0 LINE",
"735 396 LINE",
"413 396 LINE",
"413 270 LINE",
"564 270 LINE",
"550 198 OFFCURVE",
"499 139 OFFCURVE",
"395 139 CURVE SMOOTH",
"281 139 OFFCURVE",
"217 209 OFFCURVE",
"217 342 CURVE SMOOTH",
"217 472 OFFCURVE",
"278 554 OFFCURVE",
"402 554 CURVE SMOOTH",
"470 554 OFFCURVE",
"512 529 OFFCURVE",
"534 482 CURVE",
"723 482 LINE",
"690 626 OFFCURVE",
"573 712 OFFCURVE",
"403 712 CURVE SMOOTH",
"177 712 OFFCURVE",
"43 559 OFFCURVE",
"43 343 CURVE SMOOTH",
"43 129 OFFCURVE",
"174 -12 OFFCURVE",
"374 -12 CURVE SMOOTH"
);
}
);
width = 788;
}
);
leftKerningGroup = O;
leftMetricsKey = O;
rightKerningGroup = G;
unicode = 0047;
userData = {
com.schriftgestaltung.Glyphs.ColorIndex = 4;
com.typemytype.robofont.layerData = {
b = {
anchors = (
{
name = top;
x = 411;
y = 683;
},
{
name = bottom;
x = 411;
y = 0;
}
);
components = (
);
contours = (
{
points = (
{
segmentType = curve;
smooth = 1;
x = 60;
y = 341;
},
{
smooth = 0;
x = 60;
y = 138;
},
{
smooth = 0;
x = 214;
y = -6;
},
{
segmentType = curve;
smooth = 1;
x = 407;
y = -6;
},
{
smooth = 0;
x = 590;
y = -6;
},
{
smooth = 0;
x = 747;
y = 110;
},
{
segmentType = curve;
smooth = 0;
x = 764;
y = 341;
},
{
segmentType = line;
smooth = 0;
x = 764;
y = 360;
},
{
segmentType = line;
smooth = 0;
x = 381;
y = 360;
},
{
segmentType = line;
smooth = 0;
x = 381;
y = 341;
},
{
segmentType = line;
smooth = 0;
x = 747;
y = 341;
},
{
smooth = 0;
x = 733;
y = 132;
},
{
smooth = 0;
x = 600;
y = 6;
},
{
segmentType = curve;
smooth = 1;
x = 407;
y = 6;
},
{
smooth = 0;
x = 226;
y = 6;
},
{
smooth = 0;
x = 80;
y = 137;
},
{
segmentType = curve;
smooth = 1;
x = 80;
y = 341;
},
{
smooth = 0;
x = 80;
y = 547;
},
{
smooth = 0;
x = 226;
y = 677;
},
{
segmentType = curve;
smooth = 1;
x = 407;
y = 677;
},
{
smooth = 0;
x = 528;
y = 677;
},
{
smooth = 0;
x = 633;
y = 618;
},
{
segmentType = curve;
smooth = 0;
x = 683;
y = 525;
},
{
segmentType = line;
smooth = 0;
x = 709;
y = 525;
},
{
smooth = 0;
x = 648;
y = 637;
},
{
smooth = 0;
x = 537;
y = 690;
},
{
segmentType = curve;
smooth = 1;
x = 407;
y = 690;
},
{
smooth = 0;
x = 214;
y = 690;
},
{
smooth = 0;
x = 60;
y = 546;
}
);
}
);
lib = {
};
name = G;
unicodes = (
);
width = 792;
};
};
com.typesupply.AccentFactory.yCoordinates = {
bottom = {
name = origin;
type = glyphMetric;
};
top = {
name = capHeight;
type = fontInfo;
};
};
};
},
{
glyphname = Gcommaaccent;
lastChange = "2019-05-10 10:24:02 +0000";
layers = (
{
anchors = (
{
name = _bottom;
position = "{391, -4}";
}
);
background = {
anchors = (
{
name = _bottom;
position = "{391, -4}";
}
);
components = (
{
alignment = -1;
name = G;
}
);
paths = (
{
closed = 1;
nodes = (
"406 -226 OFFCURVE",
"440 -197 OFFCURVE",
"440 -119 CURVE SMOOTH",
"440 -100 OFFCURVE",
"437 -76 OFFCURVE",
"432 -52 CURVE",
"353 -52 LINE",
"353 -121 LINE",
"396 -121 LINE",
"396 -135 LINE SMOOTH",
"396 -171 OFFCURVE",
"383 -191 OFFCURVE",
"350 -191 CURVE",
"350 -226 LINE"
);
}
);
};
components = (
{
alignment = -1;
name = G;
}
);
layerId = "3B8883BF-F483-4B97-AC7C-CABF8B821093";
paths = (
{
closed = 1;
nodes = (
"406 -226 OFFCURVE",
"440 -197 OFFCURVE",
"440 -119 CURVE SMOOTH",
"440 -100 OFFCURVE",
"437 -76 OFFCURVE",
"432 -52 CURVE",
"353 -52 LINE",
"353 -121 LINE",
"396 -121 LINE",
"396 -135 LINE SMOOTH",
"396 -171 OFFCURVE",
"383 -191 OFFCURVE",
"350 -191 CURVE",
"350 -226 LINE"
);
}
);
width = 752;
},
{
anchors = (
{
name = _bottom;
position = "{382, 0}";
}
);
background = {
anchors = (
{
name = _bottom;
position = "{382, 0}";
}
);
components = (
{
alignment = -1;
name = G;
}
);
paths = (
{
closed = 1;
nodes = (
"420 -310 OFFCURVE",
"465 -248 OFFCURVE",
"465 -158 CURVE SMOOTH",
"465 -122 OFFCURVE",
"459 -82 OFFCURVE",
"445 -40 CURVE",
"314 -40 LINE",
"314 -163 LINE",
"377 -163 LINE",
"377 -179 LINE SMOOTH",
"377 -224 OFFCURVE",
"359 -245 OFFCURVE",
"325 -245 CURVE",
"325 -310 LINE"
);
}
);
};
components = (
{
alignment = -1;
name = G;
}
);
layerId = "A390C1A2-E540-434D-BB9E-4BCEE875BA63";
paths = (
{
closed = 1;
nodes = (
"420 -310 OFFCURVE",
"465 -248 OFFCURVE",
"465 -158 CURVE SMOOTH",
"465 -122 OFFCURVE",
"459 -82 OFFCURVE",
"445 -40 CURVE",
"314 -40 LINE",
"314 -163 LINE",
"377 -163 LINE",
"377 -179 LINE SMOOTH",
"377 -224 OFFCURVE",
"359 -245 OFFCURVE",
"325 -245 CURVE",
"325 -310 LINE"
);
}
);
width = 788;
}
);
leftKerningGroup = O;
leftMetricsKey = G;
rightKerningGroup = G;
rightMetricsKey = G;
unicode = 0122;
userData = {
com.schriftgestaltung.Glyphs.ColorIndex = 8;
com.typesupply.AccentFactory.compileType = manual;
};
},
{
glyphname = H;
lastChange = "2019-05-10 10:30:52 +0000";
layers = (
{
background = {
paths = (
{
closed = 1;
nodes = (
"595 0 LINE",
"595 699 LINE",
"525 699 LINE",
"525 0 LINE"
);
},
{
closed = 1;
nodes = (
"146 0 LINE",
"146 699 LINE",
"76 699 LINE",
"76 0 LINE"
);
},
{
closed = 1;
nodes = (
"545 327 LINE",
"545 385 LINE",
"130 385 LINE",
"130 327 LINE"
);
}
);
};
layerId = "3B8883BF-F483-4B97-AC7C-CABF8B821093";
paths = (
{
closed = 1;
nodes = (
"595 0 LINE",
"595 700 LINE",
"525 700 LINE",
"525 0 LINE"
);
},
{
closed = 1;
nodes = (
"146 0 LINE",
"146 700 LINE",
"76 700 LINE",
"76 0 LINE"
);
},
{
closed = 1;
nodes = (
"545 327 LINE",
"545 385 LINE",
"130 385 LINE",
"130 327 LINE"
);
}
);
width = 671;
},
{
background = {
paths = (
{
closed = 1;
nodes = (
"670 0 LINE",
"670 702 LINE",
"499 702 LINE",
"499 0 LINE"
);
},
{
closed = 1;
nodes = (
"233 0 LINE",
"233 702 LINE",
"62 702 LINE",
"62 0 LINE"
);
},
{
closed = 1;
nodes = (
"523 289 LINE",
"523 427 LINE",
"213 427 LINE",
"213 289 LINE"
);
}
);
};
layerId = "A390C1A2-E540-434D-BB9E-4BCEE875BA63";
paths = (
{
closed = 1;
nodes = (
"670 0 LINE",
"670 700 LINE",
"499 700 LINE",
"499 0 LINE"
);
},
{
closed = 1;
nodes = (
"233 0 LINE",
"233 700 LINE",
"62 700 LINE",
"62 0 LINE"
);
},
{
closed = 1;
nodes = (
"523 289 LINE",
"523 427 LINE",
"213 427 LINE",
"213 289 LINE"
);
}
);
width = 732;
}
);
leftKerningGroup = H;
rightKerningGroup = H;
unicode = 0048;
userData = {
com.schriftgestaltung.Glyphs.ColorIndex = 4;
com.typesupply.AccentFactory.yCoordinates = {
bottom = {
name = origin;
type = glyphMetric;
};
top = {
name = capHeight;
type = fontInfo;
};
};
};
},
{
glyphname = I;
lastChange = "2019-05-10 10:24:02 +0000";
layers = (
{
anchors = (
{
name = ogonek;
position = "{146, 1}";
},
{
name = top;
position = "{111, 700}";
}
);
background = {
anchors = (
{
name = ogonek;
position = "{146, 1}";
},
{
name = top;
position = "{111, 690}";
}
);
paths = (
{
closed = 1;
nodes = (
"146 0 LINE",
"146 699 LINE",
"76 699 LINE",
"76 0 LINE"
);
}
);
};
layerId = "3B8883BF-F483-4B97-AC7C-CABF8B821093";
paths = (
{
closed = 1;
nodes = (
"146 0 LINE",
"146 700 LINE",
"76 700 LINE",
"76 0 LINE"
);
}
);
width = 222;
},
{
anchors = (
{
name = ogonek;
position = "{233, 0}";
},
{
name = top;
position = "{148, 700}";
}
);
background = {
anchors = (
{
name = ogonek;
position = "{233, 0}";
},
{
name = top;
position = "{148, 704}";
}
);
paths = (
{
closed = 1;
nodes = (
"233 0 LINE",
"233 702 LINE",
"62 702 LINE",
"62 0 LINE"
);
}
);
};
layerId = "A390C1A2-E540-434D-BB9E-4BCEE875BA63";
paths = (
{
closed = 1;
nodes = (
"233 0 LINE",
"233 700 LINE",
"62 700 LINE",
"62 0 LINE"
);
}
);
width = 295;
}
);
leftKerningGroup = H;
leftMetricsKey = H;
rightKerningGroup = H;
rightMetricsKey = H;
unicode = 0049;
userData = {
com.schriftgestaltung.Glyphs.ColorIndex = 4;
com.typemytype.robofont.guides = (
{
angle = 0;
isGlobal = 0;
magnetic = 5;
x = 83;
y = 684;
}
);
com.typesupply.AccentFactory.yCoordinates = {
bottom = {
name = origin;
type = glyphMetric;
};
top = {
name = capHeight;
type = fontInfo;
};
};
};
},
{
glyphname = J;
lastChange = "2019-05-10 10:24:02 +0000";
layers = (
{
background = {
paths = (
{
closed = 1;
nodes = (
"333 -7 OFFCURVE",
"403 64 OFFCURVE",
"403 170 CURVE SMOOTH",
"403 699 LINE",
"333 699 LINE",
"333 170 LINE SMOOTH",
"333 112 OFFCURVE",
"304 55 OFFCURVE",
"223 55 CURVE SMOOTH",
"140 55 OFFCURVE",
"109 114 OFFCURVE",
"108 184 CURVE",
"37 184 LINE",
"37 66 OFFCURVE",
"110 -7 OFFCURVE",
"223 -7 CURVE SMOOTH"
);
}
);
};
layerId = "3B8883BF-F483-4B97-AC7C-CABF8B821093";
paths = (
{
closed = 1;
nodes = (
"343 -12 OFFCURVE",
"413 59 OFFCURVE",
"413 180 CURVE SMOOTH",
"413 700 LINE",
"343 700 LINE",
"343 180 LINE SMOOTH",
"343 107 OFFCURVE",
"314 50 OFFCURVE",
"223 50 CURVE SMOOTH",
"130 50 OFFCURVE",
"99 109 OFFCURVE",
"98 181 CURVE",
"27 181 LINE",
"27 61 OFFCURVE",
"100 -12 OFFCURVE",
"223 -12 CURVE SMOOTH"
);
}
);
width = 489;
},
{
background = {
paths = (
{
closed = 1;
nodes = (
"410 -7 OFFCURVE",
"502 73 OFFCURVE",
"502 224 CURVE SMOOTH",
"502 702 LINE",
"331 702 LINE",
"331 224 LINE SMOOTH",
"331 172 OFFCURVE",
"307 146 OFFCURVE",
"266 146 CURVE SMOOTH",
"222 146 OFFCURVE",
"196 175 OFFCURVE",
"196 235 CURVE",
"26 235 LINE",
"26 77 OFFCURVE",
"127 -7 OFFCURVE",
"271 -7 CURVE SMOOTH"
);
}
);
};
layerId = "A390C1A2-E540-434D-BB9E-4BCEE875BA63";
paths = (
{
closed = 1;
nodes = (
"410 -12 OFFCURVE",
"502 68 OFFCURVE",
"502 219 CURVE SMOOTH",
"502 700 LINE",
"331 700 LINE",
"331 219 LINE SMOOTH",
"331 167 OFFCURVE",
"307 141 OFFCURVE",
"266 141 CURVE SMOOTH",
"222 141 OFFCURVE",
"196 170 OFFCURVE",
"196 230 CURVE",
"26 230 LINE",
"26 72 OFFCURVE",
"127 -12 OFFCURVE",
"271 -12 CURVE SMOOTH"
);
}
);
width = 564;
}
);
rightMetricsKey = H;
unicode = 004A;
userData = {
com.schriftgestaltung.Glyphs.ColorIndex = 4;
com.typesupply.AccentFactory.yCoordinates = {
bottom = {
name = origin;
type = glyphMetric;
};
top = {
name = capHeight;
type = fontInfo;
};
};
};
},
{
glyphname = K;
lastChange = "2019-05-10 10:24:02 +0000";
layers = (
{
anchors = (
{
name = bottom;
position = "{284, 0}";
},
{
name = top;
position = "{284, 700}";
}
);
background = {
anchors = (
{
name = bottom;
position = "{284, 0}";
},
{
name = top;
position = "{284, 690}";
}
);
paths = (
{
closed = 1;
nodes = (
"541 0 LINE",
"201 360 LINE",
"196 334 LINE",
"538 699 LINE",
"449 699 LINE",
"123 347 LINE",
"449 0 LINE"
);
},
{
closed = 1;
nodes = (
"146 0 LINE",
"146 699 LINE",
"76 699 LINE",
"76 0 LINE"
);
}
);
};
layerId = "3B8883BF-F483-4B97-AC7C-CABF8B821093";
paths = (
{
closed = 1;
nodes = (
"146 0 LINE",
"146 280 LINE",
"227 366 LINE",
"456 0 LINE",
"541 0 LINE",
"277 420 LINE",
"538 700 LINE",
"449 700 LINE",
"146 372 LINE",
"146 700 LINE",
"76 700 LINE",
"76 0 LINE"
);
}
);
width = 564;
},
{
anchors = (
{
name = bottom;
position = "{347, 0}";
},
{
name = top;
position = "{347, 700}";
}
);
background = {
anchors = (
{
name = bottom;
position = "{347, 0}";
},
{
name = top;
position = "{347, 704}";
}
);
paths = (
{
closed = 1;
nodes = (
"678 0 LINE",
"388 368 LINE",
"370 325 LINE",
"668 702 LINE",
"467 702 LINE",
"201 352 LINE",
"469 0 LINE"
);
},
{
closed = 1;
nodes = (
"233 0 LINE",
"233 702 LINE",
"62 702 LINE",
"62 0 LINE"
);
}
);
};
layerId = "A390C1A2-E540-434D-BB9E-4BCEE875BA63";
paths = (
{
closed = 1;
nodes = (
"233 0 LINE",
"233 230 LINE",
"290 292 LINE",
"469 0 LINE",
"678 0 LINE",
"412 424 LINE",
"668 700 LINE",
"459 700 LINE",
"233 451 LINE",
"233 700 LINE",
"62 700 LINE",
"62 0 LINE"
);
}
);
width = 697;
}
);
leftKerningGroup = H;
leftMetricsKey = H;
rightKerningGroup = K;
unicode = 004B;
userData = {
com.schriftgestaltung.Glyphs.ColorIndex = 4;
com.typesupply.AccentFactory.yCoordinates = {
bottom = {
name = origin;
type = glyphMetric;
};
top = {
name = capHeight;
type = fontInfo;
};
};
};
},
{
glyphname = Kcommaaccent;
lastChange = "2019-05-10 10:24:02 +0000";
layers = (
{
anchors = (
{
name = _bottom;
position = "{281, 0}";
}
);
background = {
anchors = (
{
name = _bottom;
position = "{281, 0}";
}
);
components = (
{
alignment = -1;
name = K;
}
);
paths = (
{
closed = 1;
nodes = (
"294 -226 OFFCURVE",
"328 -197 OFFCURVE",
"328 -119 CURVE SMOOTH",
"328 -100 OFFCURVE",
"325 -76 OFFCURVE",
"320 -52 CURVE",
"241 -52 LINE",
"241 -121 LINE",
"284 -121 LINE",
"284 -135 LINE SMOOTH",
"284 -171 OFFCURVE",
"271 -191 OFFCURVE",
"238 -191 CURVE",
"238 -226 LINE"
);
}
);
};
components = (
{
alignment = -1;
name = K;
}
);
layerId = "3B8883BF-F483-4B97-AC7C-CABF8B821093";
paths = (
{
closed = 1;
nodes = (
"294 -226 OFFCURVE",
"328 -197 OFFCURVE",
"328 -119 CURVE SMOOTH",
"328 -100 OFFCURVE",
"325 -76 OFFCURVE",
"320 -52 CURVE",
"241 -52 LINE",
"241 -121 LINE",
"284 -121 LINE",
"284 -135 LINE SMOOTH",
"284 -171 OFFCURVE",
"271 -191 OFFCURVE",
"238 -191 CURVE",
"238 -226 LINE"
);
}
);
width = 564;
},
{
anchors = (
{
name = _bottom;
position = "{360, 0}";
}
);
background = {
anchors = (
{
name = _bottom;
position = "{360, 0}";
}
);
components = (
{
alignment = -1;
name = K;
}
);
paths = (
{
closed = 1;
nodes = (
"398 -310 OFFCURVE",
"443 -248 OFFCURVE",
"443 -158 CURVE SMOOTH",
"443 -122 OFFCURVE",
"437 -82 OFFCURVE",
"423 -40 CURVE",
"292 -40 LINE",
"292 -163 LINE",
"355 -163 LINE",
"355 -179 LINE SMOOTH",
"355 -224 OFFCURVE",
"337 -245 OFFCURVE",
"303 -245 CURVE",
"303 -310 LINE"
);
}
);
};
components = (
{
alignment = -1;
name = K;
}
);
layerId = "A390C1A2-E540-434D-BB9E-4BCEE875BA63";
paths = (
{
closed = 1;
nodes = (
"398 -310 OFFCURVE",
"443 -248 OFFCURVE",
"443 -158 CURVE SMOOTH",
"443 -122 OFFCURVE",
"437 -82 OFFCURVE",
"423 -40 CURVE",
"292 -40 LINE",
"292 -163 LINE",
"355 -163 LINE",
"355 -179 LINE SMOOTH",
"355 -224 OFFCURVE",
"337 -245 OFFCURVE",
"303 -245 CURVE",
"303 -310 LINE"
);
}
);
width = 697;
}
);
leftKerningGroup = H;
leftMetricsKey = H;
rightKerningGroup = K;
rightMetricsKey = K;
unicode = 0136;
userData = {
com.schriftgestaltung.Glyphs.ColorIndex = 8;
com.typesupply.AccentFactory.compileType = manual;
};
},
{
glyphname = L;
lastChange = "2019-05-10 10:24:02 +0000";
layers = (
{
anchors = (
{
name = bottom;
position = "{291, 0}";
},
{
name = center;
position = "{282, 350}";
},
{
name = commaaccent;
position = "{291, 0}";
},
{
name = top;
position = "{117, 700}";
},
{
name = topright;
position = "{477, 700}";
}
);
background = {
anchors = (
{
name = bottom;
position = "{231, 0}";
},
{
name = commaaccent;
position = "{231, 10}";
},
{
name = top;
position = "{209, 690}";
},
{
name = topright;
position = "{397, 690}";
}
);
paths = (
{
closed = 1;
nodes = (
"397 0 LINE",
"397 57 LINE",
"146 57 LINE",
"146 699 LINE",
"76 699 LINE",
"76 0 LINE"
);
}
);
};
layerId = "3B8883BF-F483-4B97-AC7C-CABF8B821093";
paths = (
{
closed = 1;
nodes = (
"477 0 LINE",
"477 57 LINE",
"146 57 LINE",
"146 700 LINE",
"76 700 LINE",
"76 0 LINE"
);
}
);
width = 517;
},
{
anchors = (
{
name = bottom;
position = "{327, 0}";
},
{
name = center;
position = "{289, 350}";
},
{
name = commaaccent;
position = "{327, 10}";
},
{
name = top;
position = "{158, 700}";
},
{
name = topright;
position = "{527, 700}";
}
);
background = {
anchors = (
{
name = bottom;
position = "{257, 0}";
},
{
name = commaaccent;
position = "{257, 10}";
},
{
name = top;
position = "{227, 704}";
},
{
name = topright;
position = "{446, 704}";
}
);
paths = (
{
closed = 1;
nodes = (
"457 0 LINE",
"457 132 LINE",
"233 132 LINE",
"233 702 LINE",
"62 702 LINE",
"62 0 LINE"
);
}
);
};
guideLines = (
{
position = "{200, 350}";
}
);
layerId = "A390C1A2-E540-434D-BB9E-4BCEE875BA63";
paths = (
{
closed = 1;
nodes = (
"527 0 LINE",
"527 132 LINE",
"233 132 LINE",
"233 700 LINE",
"62 700 LINE",
"62 0 LINE"
);
}
);
width = 577;
}
);
leftKerningGroup = H;
leftMetricsKey = H;
rightKerningGroup = L;
unicode = 004C;
userData = {
com.schriftgestaltung.Glyphs.ColorIndex = 4;
com.typesupply.AccentFactory.yCoordinates = {
bottom = {
name = origin;
type = glyphMetric;
};
top = {
name = capHeight;
type = fontInfo;
};
};
};
},
{
glyphname = Lcaron;
lastChange = "2019-05-10 10:24:02 +0000";
layers = (
{
anchors = (
{
name = _bottom;
position = "{308, 741}";
}
);
background = {
anchors = (
{
name = _bottom;
position = "{308, 741}";
}
);
components = (
{
alignment = -1;
name = L;
}
);
paths = (
{
closed = 1;
nodes = (
"324 511 OFFCURVE",
"357 541 OFFCURVE",
"357 614 CURVE SMOOTH",
"357 638 OFFCURVE",
"354 666 OFFCURVE",
"348 699 CURVE",
"267 699 LINE",
"267 623 LINE",
"313 623 LINE",
"313 599 LINE SMOOTH",
"313 565 OFFCURVE",
"300 547 OFFCURVE",
"266 547 CURVE",
"266 511 LINE"
);
}
);
};
components = (
{
alignment = -1;
name = L;
}
);
layerId = "3B8883BF-F483-4B97-AC7C-CABF8B821093";
paths = (
{
closed = 1;
nodes = (
"324 512 OFFCURVE",
"357 542 OFFCURVE",
"357 615 CURVE SMOOTH",
"357 639 OFFCURVE",
"354 667 OFFCURVE",
"348 700 CURVE",
"267 700 LINE",
"267 624 LINE",
"313 624 LINE",
"313 600 LINE SMOOTH",
"313 566 OFFCURVE",
"300 548 OFFCURVE",
"266 548 CURVE",
"266 512 LINE"
);
}
);
width = 517;
},
{
anchors = (
{
name = _bottom;
position = "{403, 742}";
}
);
background = {
anchors = (
{
name = _bottom;
position = "{403, 742}";
}
);
components = (
{
alignment = -1;
name = L;
}
);
paths = (
{
closed = 1;
nodes = (
"441 432 OFFCURVE",
"486 494 OFFCURVE",
"486 584 CURVE SMOOTH",
"486 620 OFFCURVE",
"480 660 OFFCURVE",
"466 702 CURVE",
"335 702 LINE",
"335 579 LINE",
"398 579 LINE",
"398 563 LINE SMOOTH",
"398 518 OFFCURVE",
"380 497 OFFCURVE",
"346 497 CURVE",
"346 432 LINE"
);
}
);
};
components = (
{
alignment = -1;
name = L;
}
);
layerId = "A390C1A2-E540-434D-BB9E-4BCEE875BA63";
paths = (
{
closed = 1;
nodes = (
"441 430 OFFCURVE",
"486 492 OFFCURVE",
"486 582 CURVE SMOOTH",
"486 618 OFFCURVE",
"480 658 OFFCURVE",
"466 700 CURVE",
"335 700 LINE",
"335 577 LINE",
"398 577 LINE",
"398 561 LINE SMOOTH",
"398 516 OFFCURVE",
"380 495 OFFCURVE",
"346 495 CURVE",
"346 430 LINE"
);
}
);
width = 577;
}
);
leftKerningGroup = H;
leftMetricsKey = H;
rightKerningGroup = L;
rightMetricsKey = L;
unicode = 013D;
userData = {
com.schriftgestaltung.Glyphs.ColorIndex = 8;
com.typesupply.AccentFactory.compileType = manual;
};
},
{
glyphname = Lcommaaccent;
lastChange = "2019-05-10 10:24:02 +0000";
layers = (
{
anchors = (
{
name = _commaaccent;
position = "{240, 0}";
}
);
background = {
anchors = (
{
name = _commaaccent;
position = "{240, 0}";
}
);
components = (
{
alignment = -1;
name = L;
}
);
paths = (
{
closed = 1;
nodes = (
"253 -226 OFFCURVE",
"287 -197 OFFCURVE",
"287 -119 CURVE SMOOTH",
"287 -100 OFFCURVE",
"284 -76 OFFCURVE",
"278 -52 CURVE",
"200 -52 LINE",
"200 -121 LINE",
"242 -121 LINE",
"242 -135 LINE SMOOTH",
"242 -171 OFFCURVE",
"229 -191 OFFCURVE",
"196 -191 CURVE",
"196 -226 LINE"
);
}
);
};
components = (
{
alignment = -1;
name = L;
}
);
layerId = "3B8883BF-F483-4B97-AC7C-CABF8B821093";
paths = (
{
closed = 1;
nodes = (
"253 -226 OFFCURVE",
"287 -197 OFFCURVE",
"287 -119 CURVE SMOOTH",
"287 -100 OFFCURVE",
"284 -76 OFFCURVE",
"278 -52 CURVE",
"200 -52 LINE",
"200 -121 LINE",
"242 -121 LINE",
"242 -135 LINE SMOOTH",
"242 -171 OFFCURVE",
"229 -191 OFFCURVE",
"196 -191 CURVE",
"196 -226 LINE"
);
}
);
width = 517;
},
{
anchors = (
{
name = _commaaccent;
position = "{270, 5}";
}
);
background = {
anchors = (
{
name = _commaaccent;
position = "{270, 5}";
}
);
components = (
{
alignment = -1;
name = L;
}
);
paths = (
{
closed = 1;
nodes = (
"308 -310 OFFCURVE",
"353 -248 OFFCURVE",
"353 -158 CURVE SMOOTH",
"353 -122 OFFCURVE",
"347 -82 OFFCURVE",
"333 -40 CURVE",
"202 -40 LINE",
"202 -163 LINE",
"265 -163 LINE",
"265 -179 LINE SMOOTH",
"265 -224 OFFCURVE",
"247 -245 OFFCURVE",
"213 -245 CURVE",
"213 -310 LINE"
);
}
);
};
components = (
{
alignment = -1;
name = L;
}
);
layerId = "A390C1A2-E540-434D-BB9E-4BCEE875BA63";
paths = (
{
closed = 1;
nodes = (
"308 -310 OFFCURVE",
"353 -248 OFFCURVE",
"353 -158 CURVE SMOOTH",
"353 -122 OFFCURVE",
"347 -82 OFFCURVE",
"333 -40 CURVE",
"202 -40 LINE",
"202 -163 LINE",
"265 -163 LINE",
"265 -179 LINE SMOOTH",
"265 -224 OFFCURVE",
"247 -245 OFFCURVE",
"213 -245 CURVE",
"213 -310 LINE"
);
}
);
width = 577;
}
);
leftKerningGroup = H;
leftMetricsKey = H;
rightKerningGroup = L;
rightMetricsKey = L;
unicode = 013B;
userData = {
com.schriftgestaltung.Glyphs.ColorIndex = 8;
com.typesupply.AccentFactory.compileType = manual;
};
},
{
glyphname = Ldot;
lastChange = "2019-05-10 10:24:02 +0000";
layers = (
{
background = {
paths = (
{
closed = 1;
nodes = (
"401 0 LINE",
"401 57 LINE",
"150 57 LINE",
"150 699 LINE",
"80 699 LINE",
"80 0 LINE"
);
},
{
closed = 1;
nodes = (
"363 330 OFFCURVE",
"384 351 OFFCURVE",
"384 376 CURVE SMOOTH",
"384 401 OFFCURVE",
"363 422 OFFCURVE",
"338 422 CURVE SMOOTH",
"312 422 OFFCURVE",
"292 401 OFFCURVE",
"292 376 CURVE SMOOTH",
"292 351 OFFCURVE",
"312 330 OFFCURVE",
"338 330 CURVE SMOOTH"
);
}
);
};
components = (
{
name = L;
},
{
name = periodcentered;
transform = "{1, 0, 0, 1, 260, 4}";
}
);
layerId = "3B8883BF-F483-4B97-AC7C-CABF8B821093";
width = 517;
},
{
background = {
paths = (
{
closed = 1;
nodes = (
"457 0 LINE",
"457 132 LINE",
"233 132 LINE",
"233 702 LINE",
"62 702 LINE",
"62 0 LINE"
);
},
{
closed = 1;
nodes = (
"427 321 OFFCURVE",
"459 353 OFFCURVE",
"459 395 CURVE SMOOTH",
"459 437 OFFCURVE",
"427 469 OFFCURVE",
"385 469 CURVE SMOOTH",
"343 469 OFFCURVE",
"312 437 OFFCURVE",
"312 395 CURVE SMOOTH",
"312 353 OFFCURVE",
"343 321 OFFCURVE",
"385 321 CURVE SMOOTH"
);
}
);
};
components = (
{
name = L;
},
{
name = periodcentered;
transform = "{1, 0, 0, 1, 253, 35}";
}
);
layerId = "A390C1A2-E540-434D-BB9E-4BCEE875BA63";
width = 577;
}
);
leftKerningGroup = H;
leftMetricsKey = H;
rightKerningGroup = L;
rightMetricsKey = L;
unicode = 013F;
},
{
glyphname = Lslash;
lastChange = "2019-05-10 10:24:02 +0000";
layers = (
{
background = {
paths = (
{
closed = 1;
nodes = (
"427 0 LINE",
"427 55 LINE",
"176 55 LINE",
"176 699 LINE",
"106 699 LINE",
"106 0 LINE"
);
},
{
closed = 1;
nodes = (
"301 399 LINE",
"301 454 LINE",
"20 344 LINE",
"20 289 LINE"
);
}
);
};
components = (
{
name = L;
transform = "{1, 0, 0, 1, 26, 0}";
}
);
layerId = "3B8883BF-F483-4B97-AC7C-CABF8B821093";
paths = (
{
closed = 1;
nodes = (
"301 399 LINE",
"301 454 LINE",
"20 344 LINE",
"20 289 LINE"
);
}
);
width = 543;
},
{
background = {
paths = (
{
closed = 1;
nodes = (
"480 0 LINE",
"480 130 LINE",
"256 130 LINE",
"256 702 LINE",
"85 702 LINE",
"85 0 LINE"
);
},
{
closed = 1;
nodes = (
"339 348 LINE",
"339 492 LINE",
"20 397 LINE",
"20 253 LINE"
);
}
);
};
components = (
{
name = L;
transform = "{1, 0, 0, 1, 23, 0}";
}
);
layerId = "A390C1A2-E540-434D-BB9E-4BCEE875BA63";
paths = (
{
closed = 1;
nodes = (
"339 348 LINE",
"339 492 LINE",
"20 397 LINE",
"20 253 LINE"
);
}
);
width = 600;
}
);
rightKerningGroup = L;
rightMetricsKey = L;
unicode = 0141;
userData = {
com.schriftgestaltung.Glyphs.ColorIndex = 4;
};
},
{
glyphname = M;
lastChange = "2025-09-25 13:46:19 +0000";
layers = (
{
layerId = "3B8883BF-F483-4B97-AC7C-CABF8B821093";
paths = (
{
closed = 1;
nodes = (
"146 0 LINE",
"146 620 LINE",
"119 621 LINE",
"392 100 LINE",
"443 100 LINE",
"715 621 LINE",
"689 620 LINE",
"689 0 LINE",
"759 0 LINE",
"759 700 LINE",
"678 700 LINE",
"400 164 LINE",
"435 164 LINE",
"156 700 LINE",
"76 700 LINE",
"76 0 LINE"
);
}
);
width = 835;
},
{
layerId = "A390C1A2-E540-434D-BB9E-4BCEE875BA63";
paths = (
{
closed = 1;
nodes = (
"233 0 LINE",
"233 579 LINE",
"177 529 LINE",
"391 100 LINE",
"529 100 LINE",
"742 529 LINE",
"686 579 LINE",
"686 0 LINE",
"857 0 LINE",
"857 700 LINE",
"652 700 LINE",
"424 222 LINE",
"495 233 LINE",
"268 700 LINE",
"62 700 LINE",
"62 0 LINE"
);
}
);
width = 919;
}
);
leftKerningGroup = H;
leftMetricsKey = H;
rightKerningGroup = H;
rightMetricsKey = H;
unicode = 004D;
userData = {
com.schriftgestaltung.Glyphs.ColorIndex = 4;
com.typesupply.AccentFactory.yCoordinates = {
bottom = {
name = origin;
type = glyphMetric;
};
top = {
name = capHeight;
type = fontInfo;
};
};
};
},
{
glyphname = N;
lastChange = "2019-05-10 10:24:02 +0000";
layers = (
{
anchors = (
{
name = bottom;
position = "{340, 0}";
},
{
name = top;
position = "{340, 700}";
}
);
background = {
anchors = (
{
name = bottom;
position = "{340, 0}";
},
{
name = top;
position = "{340, 690}";
}
);
paths = (
{
closed = 1;
nodes = (
"146 0 LINE",
"146 588 LINE",
"533 0 LINE",
"603 0 LINE",
"603 699 LINE",
"533 699 LINE",
"533 112 LINE",
"146 699 LINE",
"76 699 LINE",
"76 0 LINE"
);
}
);
};
layerId = "3B8883BF-F483-4B97-AC7C-CABF8B821093";
paths = (
{
closed = 1;
nodes = (
"146 0 LINE",
"146 583 LINE",
"533 0 LINE",
"603 0 LINE",
"603 700 LINE",
"533 700 LINE",
"533 118 LINE",
"146 700 LINE",
"76 700 LINE",
"76 0 LINE"
);
}
);
width = 679;
},
{
anchors = (
{
name = bottom;
position = "{376, 0}";
},
{
name = top;
position = "{376, 700}";
}
);
background = {
anchors = (
{
name = bottom;
position = "{376, 0}";
},
{
name = top;
position = "{376, 704}";
}
);
paths = (
{
closed = 1;
nodes = (
"233 0 LINE",
"233 433 LINE",
"519 0 LINE",
"690 0 LINE",
"690 702 LINE",
"519 702 LINE",
"519 267 LINE",
"233 702 LINE",
"62 702 LINE",
"62 0 LINE"
);
}
);
};
layerId = "A390C1A2-E540-434D-BB9E-4BCEE875BA63";
paths = (
{
closed = 1;
nodes = (
"233 0 LINE",
"233 425 LINE",
"519 0 LINE",
"690 0 LINE",
"690 700 LINE",
"519 700 LINE",
"519 273 LINE",
"233 700 LINE",
"62 700 LINE",
"62 0 LINE"
);
}
);
width = 752;
}
);
leftKerningGroup = H;
leftMetricsKey = H;
rightKerningGroup = H;
rightMetricsKey = H;
unicode = 004E;
userData = {
com.schriftgestaltung.Glyphs.ColorIndex = 4;
com.typesupply.AccentFactory.yCoordinates = {
bottom = {
name = origin;
type = glyphMetric;
};
top = {
name = capHeight;
type = fontInfo;
};
};
};
},
{
glyphname = Ncommaaccent;
lastChange = "2019-05-10 10:24:02 +0000";
layers = (
{
anchors = (
{
name = _bottom;
position = "{343, 0}";
}
);
background = {
anchors = (
{
name = _bottom;
position = "{343, 0}";
}
);
components = (
{
alignment = -1;
name = N;
}
);
paths = (
{
closed = 1;
nodes = (
"355 -226 OFFCURVE",
"389 -197 OFFCURVE",
"389 -119 CURVE SMOOTH",
"389 -100 OFFCURVE",
"386 -76 OFFCURVE",
"380 -52 CURVE",
"302 -52 LINE",
"302 -121 LINE",
"344 -121 LINE",
"344 -135 LINE SMOOTH",
"344 -171 OFFCURVE",
"331 -191 OFFCURVE",
"299 -191 CURVE",
"299 -226 LINE"
);
}
);
};
components = (
{
alignment = -1;
name = N;
}
);
layerId = "3B8883BF-F483-4B97-AC7C-CABF8B821093";
paths = (
{
closed = 1;
nodes = (
"355 -226 OFFCURVE",
"389 -197 OFFCURVE",
"389 -119 CURVE SMOOTH",
"389 -100 OFFCURVE",
"386 -76 OFFCURVE",
"380 -52 CURVE",
"302 -52 LINE",
"302 -121 LINE",
"344 -121 LINE",
"344 -135 LINE SMOOTH",
"344 -171 OFFCURVE",
"331 -191 OFFCURVE",
"299 -191 CURVE",
"299 -226 LINE"
);
}
);
width = 679;
},
{
anchors = (
{
name = _bottom;
position = "{389, 0}";
}
);
background = {
anchors = (
{
name = _bottom;
position = "{389, 0}";
}
);
components = (
{
alignment = -1;
name = N;
}
);
paths = (
{
closed = 1;
nodes = (
"427 -310 OFFCURVE",
"472 -248 OFFCURVE",
"472 -158 CURVE SMOOTH",
"472 -122 OFFCURVE",
"466 -82 OFFCURVE",
"452 -40 CURVE",
"321 -40 LINE",
"321 -163 LINE",
"384 -163 LINE",
"384 -179 LINE SMOOTH",
"384 -224 OFFCURVE",
"366 -245 OFFCURVE",
"332 -245 CURVE",
"332 -310 LINE"
);
}
);
};
components = (
{
alignment = -1;
name = N;
}
);
layerId = "A390C1A2-E540-434D-BB9E-4BCEE875BA63";
paths = (
{
closed = 1;
nodes = (
"427 -310 OFFCURVE",
"472 -248 OFFCURVE",
"472 -158 CURVE SMOOTH",
"472 -122 OFFCURVE",
"466 -82 OFFCURVE",
"452 -40 CURVE",
"321 -40 LINE",
"321 -163 LINE",
"384 -163 LINE",
"384 -179 LINE SMOOTH",
"384 -224 OFFCURVE",
"366 -245 OFFCURVE",
"332 -245 CURVE",
"332 -310 LINE"
);
}
);
width = 752;
}
);
leftKerningGroup = H;
leftMetricsKey = H;
rightKerningGroup = H;
rightMetricsKey = H;
unicode = 0145;
userData = {
com.schriftgestaltung.Glyphs.ColorIndex = 8;
com.typesupply.AccentFactory.compileType = manual;
};
},
{
glyphname = O;
lastChange = "2019-05-10 10:24:02 +0000";
layers = (
{
anchors = (
{
name = top;
position = "{391, 700}";
}
);
background = {
paths = (
{
closed = 1;
nodes = (
"588 -12 OFFCURVE",
"737 135 OFFCURVE",
"737 350 CURVE SMOOTH",
"737 564 OFFCURVE",
"588 712 OFFCURVE",
"391 712 CURVE SMOOTH",
"195 712 OFFCURVE",
"45 564 OFFCURVE",
"45 350 CURVE SMOOTH",
"45 135 OFFCURVE",
"195 -12 OFFCURVE",
"391 -12 CURVE SMOOTH"
);
},
{
closed = 1;
nodes = (
"240 49 OFFCURVE",
"117 162 OFFCURVE",
"117 350 CURVE SMOOTH",
"117 538 OFFCURVE",
"240 650 OFFCURVE",
"391 650 CURVE SMOOTH",
"542 650 OFFCURVE",
"665 538 OFFCURVE",
"665 350 CURVE SMOOTH",
"665 162 OFFCURVE",
"542 49 OFFCURVE",
"391 49 CURVE SMOOTH"
);
}
);
};
layerId = "3B8883BF-F483-4B97-AC7C-CABF8B821093";
paths = (
{
closed = 1;
nodes = (
"598 -12 OFFCURVE",
"734 135 OFFCURVE",
"734 350 CURVE SMOOTH",
"734 564 OFFCURVE",
"598 712 OFFCURVE",
"391 712 CURVE SMOOTH",
"185 712 OFFCURVE",
"48 564 OFFCURVE",
"48 350 CURVE SMOOTH",
"48 135 OFFCURVE",
"185 -12 OFFCURVE",
"391 -12 CURVE SMOOTH"
);
},
{
closed = 1;
nodes = (
"230 49 OFFCURVE",
"120 162 OFFCURVE",
"120 350 CURVE SMOOTH",
"120 538 OFFCURVE",
"230 650 OFFCURVE",
"391 650 CURVE SMOOTH",
"552 650 OFFCURVE",
"662 538 OFFCURVE",
"662 350 CURVE SMOOTH",
"662 162 OFFCURVE",
"552 49 OFFCURVE",
"391 49 CURVE SMOOTH"
);
}
);
width = 782;
},
{
anchors = (
{
name = top;
position = "{400, 700}";
}
);
background = {
anchors = (
{
name = top;
position = "{400, 700}";
}
);
paths = (
{
closed = 1;
nodes = (
"599 -12 OFFCURVE",
"759 136 OFFCURVE",
"759 350 CURVE SMOOTH",
"759 564 OFFCURVE",
"599 712 OFFCURVE",
"399 712 CURVE SMOOTH",
"199 712 OFFCURVE",
"39 564 OFFCURVE",
"39 350 CURVE SMOOTH",
"39 136 OFFCURVE",
"199 -12 OFFCURVE",
"399 -12 CURVE SMOOTH"
);
},
{
closed = 1;
nodes = (
"296 143 OFFCURVE",
"213 223 OFFCURVE",
"213 350 CURVE SMOOTH",
"213 477 OFFCURVE",
"296 557 OFFCURVE",
"399 557 CURVE SMOOTH",
"502 557 OFFCURVE",
"585 477 OFFCURVE",
"585 350 CURVE SMOOTH",
"585 223 OFFCURVE",
"502 143 OFFCURVE",
"399 143 CURVE SMOOTH"
);
}
);
};
layerId = "A390C1A2-E540-434D-BB9E-4BCEE875BA63";
paths = (
{
closed = 1;
nodes = (
"609 -12 OFFCURVE",
"755 136 OFFCURVE",
"755 350 CURVE SMOOTH",
"755 564 OFFCURVE",
"609 712 OFFCURVE",
"399 712 CURVE SMOOTH",
"189 712 OFFCURVE",
"43 564 OFFCURVE",
"43 350 CURVE SMOOTH",
"43 136 OFFCURVE",
"189 -12 OFFCURVE",
"399 -12 CURVE SMOOTH"
);
},
{
closed = 1;
nodes = (
"286 143 OFFCURVE",
"217 223 OFFCURVE",
"217 350 CURVE SMOOTH",
"217 477 OFFCURVE",
"286 557 OFFCURVE",
"399 557 CURVE SMOOTH",
"512 557 OFFCURVE",
"581 477 OFFCURVE",
"581 350 CURVE SMOOTH",
"581 223 OFFCURVE",
"512 143 OFFCURVE",
"399 143 CURVE SMOOTH"
);
}
);
width = 798;
}
);
leftKerningGroup = O;
rightKerningGroup = O;
unicode = 004F;
userData = {
com.schriftgestaltung.Glyphs.ColorIndex = 4;
com.typemytype.robofont.layerData = {
b = {
anchors = (
{
name = top;
x = 407;
y = 683;
}
);
components = (
);
contours = (
{
points = (
{
segmentType = curve;
smooth = 1;
x = 60;
y = 341;
},
{
smooth = 0;
x = 60;
y = 138;
},
{
smooth = 0;
x = 214;
y = -7;
},
{
segmentType = curve;
smooth = 1;
x = 407;
y = -7;
},
{
smooth = 0;
x = 601;
y = -7;
},
{
smooth = 0;
x = 754;
y = 138;
},
{
segmentType = curve;
smooth = 1;
x = 754;
y = 341;
},
{
smooth = 0;
x = 754;
y = 546;
},
{
smooth = 0;
x = 601;
y = 690;
},
{
segmentType = curve;
smooth = 1;
x = 407;
y = 690;
},
{
smooth = 0;
x = 214;
y = 690;
},
{
smooth = 0;
x = 60;
y = 546;
}
);
},
{
points = (
{
segmentType = curve;
smooth = 1;
x = 733;
y = 341;
},
{
smooth = 0;
x = 733;
y = 137;
},
{
smooth = 0;
x = 588;
y = 4;
},
{
segmentType = curve;
smooth = 1;
x = 407;
y = 4;
},
{
smooth = 0;
x = 226;
y = 4;
},
{
smooth = 0;
x = 80;
y = 137;
},
{
segmentType = curve;
smooth = 1;
x = 80;
y = 341;
},
{
smooth = 0;
x = 80;
y = 547;
},
{
smooth = 0;
x = 226;
y = 677;
},
{
segmentType = curve;
smooth = 1;
x = 407;
y = 677;
},
{
smooth = 0;
x = 588;
y = 677;
},
{
smooth = 0;
x = 733;
y = 547;
}
);
}
);
lib = {
};
name = O;
unicodes = (
);
width = 792;
};
};
com.typesupply.AccentFactory.yCoordinates = {
bottom = {
name = origin;
type = glyphMetric;
};
top = {
name = capHeight;
type = fontInfo;
};
};
};
},
{
glyphname = Oslash;
lastChange = "2019-05-20 09:07:19 +0000";
layers = (
{
background = {
components = (
{
alignment = -1;
name = O;
}
);
paths = (
{
closed = 1;
nodes = (
"102 0 LINE",
"745 700 LINE",
"686 700 LINE",
"42 0 LINE"
);
}
);
};
components = (
{
alignment = -1;
name = O;
}
);
layerId = "3B8883BF-F483-4B97-AC7C-CABF8B821093";
paths = (
{
closed = 1;
nodes = (
"122 0 LINE",
"745 700 LINE",
"666 700 LINE",
"42 0 LINE"
);
}
);
width = 787;
},
{
background = {
components = (
{
alignment = -1;
name = O;
transform = "{1, 0, 0, 1, -1, 0}";
}
);
paths = (
{
closed = 1;
nodes = (
"126 1 LINE",
"764 704 LINE",
"660 704 LINE",
"22 1 LINE"
);
}
);
};
components = (
{
alignment = -1;
name = O;
transform = "{1, 0, 0, 1, -1, 0}";
}
);
layerId = "A390C1A2-E540-434D-BB9E-4BCEE875BA63";
paths = (
{
closed = 1;
nodes = (
"176 0 LINE",
"760 700 LINE",
"606 700 LINE",
"22 0 LINE"
);
}
);
width = 782;
}
);
unicode = 00D8;
userData = {
com.schriftgestaltung.Glyphs.ColorIndex = 4;
};
},
{
glyphname = OE;
lastChange = "2019-05-10 10:24:02 +0000";
layers = (
{
background = {
paths = (
{
closed = 1;
nodes = (
"517 -7 OFFCURVE",
"623 59 OFFCURVE",
"668 171 CURVE",
"668 0 LINE",
"1034 0 LINE",
"1034 56 LINE",
"738 56 LINE",
"738 324 LINE",
"1004 324 LINE",
"1004 379 LINE",
"738 379 LINE",
"738 643 LINE",
"1034 643 LINE",
"1034 699 LINE",
"668 699 LINE",
"668 530 LINE",
"623 640 OFFCURVE",
"517 707 OFFCURVE",
"389 707 CURVE",
"198 707 OFFCURVE",
"48 560 OFFCURVE",
"48 350 CURVE",
"48 140 OFFCURVE",
"198 -7 OFFCURVE",
"389 -7 CURVE"
);
},
{
closed = 1;
nodes = (
"239 56 OFFCURVE",
"120 169 OFFCURVE",
"120 350 CURVE",
"120 531 OFFCURVE",
"239 643 OFFCURVE",
"394 643 CURVE",
"549 643 OFFCURVE",
"668 531 OFFCURVE",
"668 350 CURVE",
"668 169 OFFCURVE",
"549 56 OFFCURVE",
"394 56 CURVE"
);
}
);
};
layerId = "3B8883BF-F483-4B97-AC7C-CABF8B821093";
paths = (
{
closed = 1;
nodes = (
"509 -12 OFFCURVE",
"608 38 OFFCURVE",
"670 133 CURVE",
"670 0 LINE",
"1065 0 LINE",
"1065 58 LINE",
"740 58 LINE",
"740 323 LINE",
"1035 323 LINE",
"1035 381 LINE",
"740 381 LINE",
"740 642 LINE",
"1065 642 LINE",
"1065 700 LINE",
"670 700 LINE",
"670 567 LINE",
"608 661 OFFCURVE",
"509 712 OFFCURVE",
"394 712 CURVE SMOOTH",
"198 712 OFFCURVE",
"48 564 OFFCURVE",
"48 350 CURVE SMOOTH",
"48 135 OFFCURVE",
"198 -12 OFFCURVE",
"394 -12 CURVE SMOOTH"
);
},
{
closed = 1;
nodes = (
"243 49 OFFCURVE",
"120 162 OFFCURVE",
"120 350 CURVE SMOOTH",
"120 538 OFFCURVE",
"243 650 OFFCURVE",
"394 650 CURVE SMOOTH",
"545 650 OFFCURVE",
"668 538 OFFCURVE",
"668 350 CURVE SMOOTH",
"668 162 OFFCURVE",
"545 49 OFFCURVE",
"394 49 CURVE SMOOTH"
);
}
);
width = 1123;
},
{
background = {
paths = (
{
closed = 1;
nodes = (
"471 -8 OFFCURVE",
"543 17 OFFCURVE",
"594 72 CURVE",
"594 0 LINE",
"1025 0 LINE",
"1025 135 LINE",
"765 135 LINE",
"765 291 LINE",
"995 291 LINE",
"995 421 LINE",
"765 421 LINE",
"765 567 LINE",
"1025 567 LINE",
"1025 702 LINE",
"594 702 LINE",
"594 632 LINE",
"543 686 OFFCURVE",
"471 712 OFFCURVE",
"390 712 CURVE SMOOTH",
"196 712 OFFCURVE",
"43 564 OFFCURVE",
"43 352 CURVE SMOOTH",
"43 140 OFFCURVE",
"195 -10 OFFCURVE",
"390 -10 CURVE SMOOTH"
);
},
{
closed = 1;
nodes = (
"290 147 OFFCURVE",
"218 228 OFFCURVE",
"218 352 CURVE SMOOTH",
"218 475 OFFCURVE",
"290 555 OFFCURVE",
"404 555 CURVE SMOOTH",
"516 555 OFFCURVE",
"589 475 OFFCURVE",
"589 352 CURVE SMOOTH",
"589 228 OFFCURVE",
"516 147 OFFCURVE",
"404 147 CURVE SMOOTH"
);
}
);
};
layerId = "A390C1A2-E540-434D-BB9E-4BCEE875BA63";
paths = (
{
closed = 1;
nodes = (
"459 -12 OFFCURVE",
"545 19 OFFCURVE",
"589 69 CURVE",
"589 0 LINE",
"1039 0 LINE",
"1039 137 LINE",
"760 137 LINE",
"760 291 LINE",
"1009 291 LINE",
"1009 423 LINE",
"760 423 LINE",
"760 563 LINE",
"1039 563 LINE",
"1039 700 LINE",
"589 700 LINE",
"589 627 LINE",
"544 681 OFFCURVE",
"459 712 OFFCURVE",
"385 712 CURVE SMOOTH",
"189 712 OFFCURVE",
"43 564 OFFCURVE",
"43 350 CURVE SMOOTH",
"43 136 OFFCURVE",
"189 -12 OFFCURVE",
"385 -12 CURVE SMOOTH"
);
},
{
closed = 1;
nodes = (
"300 143 OFFCURVE",
"217 223 OFFCURVE",
"217 350 CURVE SMOOTH",
"217 477 OFFCURVE",
"300 557 OFFCURVE",
"403 557 CURVE SMOOTH",
"506 557 OFFCURVE",
"589 477 OFFCURVE",
"589 350 CURVE SMOOTH",
"589 223 OFFCURVE",
"506 143 OFFCURVE",
"403 143 CURVE SMOOTH"
);
}
);
width = 1089;
}
);
leftKerningGroup = O;
leftMetricsKey = O;
rightKerningGroup = E;
rightMetricsKey = E;
unicode = 0152;
userData = {
com.schriftgestaltung.Glyphs.ColorIndex = 4;
com.typesupply.AccentFactory.yCoordinates = {
bottom = {
name = origin;
type = glyphMetric;
};
top = {
name = capHeight;
type = fontInfo;
};
};
};
},
{
glyphname = P;
lastChange = "2019-05-10 10:24:02 +0000";
layers = (
{
background = {
paths = (
{
closed = 1;
nodes = (
"146 0 LINE",
"146 298 LINE",
"287 298 LINE SMOOTH",
"451 298 OFFCURVE",
"523 385 OFFCURVE",
"523 498 CURVE SMOOTH",
"523 613 OFFCURVE",
"449 699 OFFCURVE",
"287 699 CURVE SMOOTH",
"76 699 LINE",
"76 0 LINE"
);
},
{
closed = 1;
nodes = (
"146 640 LINE",
"287 640 LINE SMOOTH",
"405 640 OFFCURVE",
"451 588 OFFCURVE",
"451 498 CURVE SMOOTH",
"451 412 OFFCURVE",
"405 358 OFFCURVE",
"287 358 CURVE SMOOTH",
"146 358 LINE"
);
}
);
};
layerId = "3B8883BF-F483-4B97-AC7C-CABF8B821093";
paths = (
{
closed = 1;
nodes = (
"146 0 LINE",
"146 299 LINE",
"297 299 LINE SMOOTH",
"461 299 OFFCURVE",
"533 386 OFFCURVE",
"533 499 CURVE SMOOTH",
"533 614 OFFCURVE",
"459 700 OFFCURVE",
"297 700 CURVE SMOOTH",
"76 700 LINE",
"76 0 LINE"
);
},
{
closed = 1;
nodes = (
"146 641 LINE",
"297 641 LINE SMOOTH",
"415 641 OFFCURVE",
"461 589 OFFCURVE",
"461 499 CURVE SMOOTH",
"461 413 OFFCURVE",
"415 359 OFFCURVE",
"297 359 CURVE SMOOTH",
"146 359 LINE"
);
}
);
width = 570;
},
{
background = {
paths = (
{
closed = 1;
nodes = (
"233 0 LINE",
"233 252 LINE",
"339 252 LINE SMOOTH",
"518 252 OFFCURVE",
"597 360 OFFCURVE",
"597 476 CURVE SMOOTH",
"597 605 OFFCURVE",
"511 702 OFFCURVE",
"339 702 CURVE SMOOTH",
"62 702 LINE",
"62 0 LINE"
);
},
{
closed = 1;
nodes = (
"233 564 LINE",
"326 564 LINE SMOOTH",
"394 564 OFFCURVE",
"423 530 OFFCURVE",
"423 476 CURVE SMOOTH",
"423 422 OFFCURVE",
"394 388 OFFCURVE",
"326 388 CURVE SMOOTH",
"233 388 LINE"
);
}
);
};
layerId = "A390C1A2-E540-434D-BB9E-4BCEE875BA63";
paths = (
{
closed = 1;
nodes = (
"233 0 LINE",
"233 250 LINE",
"349 250 LINE SMOOTH",
"528 250 OFFCURVE",
"607 358 OFFCURVE",
"607 474 CURVE SMOOTH",
"607 603 OFFCURVE",
"521 700 OFFCURVE",
"349 700 CURVE SMOOTH",
"62 700 LINE",
"62 0 LINE"
);
},
{
closed = 1;
nodes = (
"233 562 LINE",
"336 562 LINE SMOOTH",
"404 562 OFFCURVE",
"433 528 OFFCURVE",
"433 474 CURVE SMOOTH",
"433 420 OFFCURVE",
"404 386 OFFCURVE",
"336 386 CURVE SMOOTH",
"233 386 LINE"
);
}
);
width = 634;
}
);
leftKerningGroup = H;
leftMetricsKey = H;
unicode = 0050;
userData = {
com.schriftgestaltung.Glyphs.ColorIndex = 4;
com.typesupply.AccentFactory.yCoordinates = {
bottom = {
name = origin;
type = glyphMetric;
};
top = {
name = capHeight;
type = fontInfo;
};
};
};
},
{
glyphname = Thorn;
lastChange = "2019-05-10 10:24:02 +0000";
layers = (
{
background = {
paths = (
{
closed = 1;
nodes = (
"146 0 LINE",
"146 150 LINE",
"287 150 LINE SMOOTH",
"451 150 OFFCURVE",
"523 236 OFFCURVE",
"523 350 CURVE SMOOTH",
"523 465 OFFCURVE",
"449 551 OFFCURVE",
"287 551 CURVE SMOOTH",
"145 551 LINE",
"145 700 LINE",
"76 700 LINE",
"76 0 LINE"
);
},
{
closed = 1;
nodes = (
"146 494 LINE",
"287 494 LINE SMOOTH",
"405 494 OFFCURVE",
"451 439 OFFCURVE",
"451 350 CURVE SMOOTH",
"451 264 OFFCURVE",
"405 207 OFFCURVE",
"287 207 CURVE SMOOTH",
"146 207 LINE"
);
}
);
};
layerId = "3B8883BF-F483-4B97-AC7C-CABF8B821093";
paths = (
{
closed = 1;
nodes = (
"146 0 LINE",
"146 150 LINE",
"297 150 LINE SMOOTH",
"461 150 OFFCURVE",
"533 237 OFFCURVE",
"533 350 CURVE SMOOTH",
"533 465 OFFCURVE",
"459 551 OFFCURVE",
"297 551 CURVE SMOOTH",
"146 551 LINE",
"146 700 LINE",
"76 700 LINE",
"76 0 LINE"
);
},
{
closed = 1;
nodes = (
"146 492 LINE",
"297 492 LINE SMOOTH",
"415 492 OFFCURVE",
"461 440 OFFCURVE",
"461 350 CURVE SMOOTH",
"461 264 OFFCURVE",
"415 210 OFFCURVE",
"297 210 CURVE SMOOTH",
"146 210 LINE"
);
}
);
width = 570;
},
{
background = {
paths = (
{
closed = 1;
nodes = (
"233 0 LINE",
"233 133 LINE",
"339 133 LINE SMOOTH",
"518 133 OFFCURVE",
"597 238 OFFCURVE",
"597 352 CURVE SMOOTH",
"597 477 OFFCURVE",
"511 572 OFFCURVE",
"339 572 CURVE SMOOTH",
"231 572 LINE",
"231 702 LINE",
"62 702 LINE",
"62 0 LINE"
);
},
{
closed = 1;
nodes = (
"233 442 LINE",
"326 442 LINE SMOOTH",
"394 442 OFFCURVE",
"423 406 OFFCURVE",
"423 352 CURVE SMOOTH",
"423 298 OFFCURVE",
"394 262 OFFCURVE",
"326 262 CURVE SMOOTH",
"233 262 LINE"
);
}
);
};
layerId = "A390C1A2-E540-434D-BB9E-4BCEE875BA63";
paths = (
{
closed = 1;
nodes = (
"233 0 LINE",
"233 125 LINE",
"349 125 LINE SMOOTH",
"528 125 OFFCURVE",
"607 233 OFFCURVE",
"607 349 CURVE SMOOTH",
"607 478 OFFCURVE",
"521 575 OFFCURVE",
"349 575 CURVE SMOOTH",
"233 575 LINE",
"233 700 LINE",
"62 700 LINE",
"62 0 LINE"
);
},
{
closed = 1;
nodes = (
"233 437 LINE",
"336 437 LINE SMOOTH",
"404 437 OFFCURVE",
"433 403 OFFCURVE",
"433 349 CURVE SMOOTH",
"433 295 OFFCURVE",
"404 261 OFFCURVE",
"336 261 CURVE SMOOTH",
"233 261 LINE"
);
}
);
width = 634;
}
);
leftKerningGroup = H;
leftMetricsKey = H;
rightMetricsKey = P;
unicode = 00DE;
userData = {
com.schriftgestaltung.Glyphs.ColorIndex = 4;
};
},
{
glyphname = Q;
lastChange = "2019-05-10 10:24:02 +0000";
layers = (
{
background = {
components = (
{
alignment = -1;
name = O;
}
);
paths = (
{
closed = 1;
nodes = (
"751 -137 LINE",
"538 59 LINE",
"474 33 LINE",
"657 -137 LINE"
);
}
);
};
components = (
{
alignment = -1;
name = O;
}
);
layerId = "3B8883BF-F483-4B97-AC7C-CABF8B821093";
paths = (
{
closed = 1;
nodes = (
"751 -137 LINE",
"538 59 LINE",
"474 33 LINE",
"657 -137 LINE"
);
}
);
width = 789;
},
{
background = {
components = (
{
alignment = -1;
name = O;
}
);
paths = (
{
closed = 1;
nodes = (
"769 -120 LINE",
"580 107 LINE",
"417 75 LINE",
"562 -120 LINE"
);
}
);
};
components = (
{
alignment = -1;
name = O;
}
);
layerId = "A390C1A2-E540-434D-BB9E-4BCEE875BA63";
paths = (
{
closed = 1;
nodes = (
"769 -120 LINE",
"580 107 LINE",
"417 75 LINE",
"562 -120 LINE"
);
}
);
width = 788;
}
);
leftKerningGroup = O;
leftMetricsKey = O;
unicode = 0051;
userData = {
com.schriftgestaltung.Glyphs.ColorIndex = 4;
com.typesupply.AccentFactory.yCoordinates = {
bottom = {
name = origin;
type = glyphMetric;
};
top = {
name = capHeight;
type = fontInfo;
};
};
};
},
{
glyphname = R;
lastChange = "2019-05-10 10:24:02 +0000";
layers = (
{
anchors = (
{
name = bottom;
position = "{303, 0}";
},
{
name = top;
position = "{263, 700}";
}
);
background = {
paths = (
{
closed = 1;
nodes = (
"146 0 LINE",
"146 293 LINE",
"287 293 LINE SMOOTH",
"451 293 OFFCURVE",
"524 385 OFFCURVE",
"524 497 CURVE SMOOTH",
"524 612 OFFCURVE",
"448 700 OFFCURVE",
"286 700 CURVE SMOOTH",
"76 700 LINE",
"76 0 LINE"
);
},
{
closed = 1;
nodes = (
"532 0 LINE",
"341 315 LINE",
"261 315 LINE",
"448 0 LINE"
);
},
{
closed = 1;
nodes = (
"146 641 LINE",
"286 641 LINE SMOOTH",
"404 641 OFFCURVE",
"452 585 OFFCURVE",
"452 497 CURVE SMOOTH",
"452 412 OFFCURVE",
"401 350 OFFCURVE",
"287 350 CURVE SMOOTH",
"146 350 LINE"
);
}
);
};
layerId = "3B8883BF-F483-4B97-AC7C-CABF8B821093";
paths = (
{
closed = 1;
nodes = (
"146 0 LINE",
"146 293 LINE",
"287 293 LINE SMOOTH",
"451 293 OFFCURVE",
"524 385 OFFCURVE",
"524 497 CURVE SMOOTH",
"524 612 OFFCURVE",
"454 700 OFFCURVE",
"292 700 CURVE SMOOTH",
"76 700 LINE",
"76 0 LINE"
);
},
{
closed = 1;
nodes = (
"532 0 LINE",
"371 315 LINE",
"291 315 LINE",
"448 0 LINE"
);
},
{
closed = 1;
nodes = (
"146 641 LINE",
"286 641 LINE SMOOTH",
"404 641 OFFCURVE",
"452 585 OFFCURVE",
"452 497 CURVE SMOOTH",
"452 412 OFFCURVE",
"401 350 OFFCURVE",
"287 350 CURVE SMOOTH",
"146 350 LINE"
);
}
);
width = 583;
},
{
anchors = (
{
name = bottom;
position = "{321, 0}";
},
{
name = top;
position = "{301, 700}";
}
);
background = {
anchors = (
{
name = bottom;
position = "{321, 0}";
},
{
name = top;
position = "{321, 704}";
}
);
paths = (
{
closed = 1;
nodes = (
"233 0 LINE",
"233 265 LINE",
"349 265 LINE SMOOTH",
"529 265 OFFCURVE",
"607 369 OFFCURVE",
"607 481 CURVE SMOOTH",
"607 603 OFFCURVE",
"521 702 OFFCURVE",
"349 702 CURVE SMOOTH",
"62 702 LINE",
"62 0 LINE"
);
},
{
closed = 1;
nodes = (
"613 0 LINE",
"436 304 LINE",
"253 304 LINE",
"420 0 LINE"
);
},
{
closed = 1;
nodes = (
"233 560 LINE",
"339 560 LINE SMOOTH",
"403 560 OFFCURVE",
"433 526 OFFCURVE",
"433 474 CURVE SMOOTH",
"433 419 OFFCURVE",
"403 386 OFFCURVE",
"339 386 CURVE SMOOTH",
"233 386 LINE"
);
}
);
};
layerId = "A390C1A2-E540-434D-BB9E-4BCEE875BA63";
paths = (
{
closed = 1;
nodes = (
"233 0 LINE",
"233 263 LINE",
"349 263 LINE SMOOTH",
"529 263 OFFCURVE",
"607 367 OFFCURVE",
"607 479 CURVE SMOOTH",
"607 601 OFFCURVE",
"521 700 OFFCURVE",
"349 700 CURVE SMOOTH",
"62 700 LINE",
"62 0 LINE"
);
},
{
closed = 1;
nodes = (
"613 0 LINE",
"466 304 LINE",
"283 304 LINE",
"420 0 LINE"
);
},
{
closed = 1;
nodes = (
"233 558 LINE",
"339 558 LINE SMOOTH",
"403 558 OFFCURVE",
"433 524 OFFCURVE",
"433 472 CURVE SMOOTH",
"433 417 OFFCURVE",
"403 384 OFFCURVE",
"339 384 CURVE SMOOTH",
"233 384 LINE"
);
}
);
width = 652;
}
);
leftKerningGroup = H;
leftMetricsKey = H;
rightKerningGroup = R;
unicode = 0052;
userData = {
com.schriftgestaltung.Glyphs.ColorIndex = 4;
com.typesupply.AccentFactory.yCoordinates = {
bottom = {
name = origin;
type = glyphMetric;
};
top = {
name = capHeight;
type = fontInfo;
};
};
};
},
{
glyphname = Rcommaaccent;
lastChange = "2019-05-10 10:24:02 +0000";
layers = (
{
anchors = (
{
name = _bottom;
position = "{291, 0}";
}
);
background = {
anchors = (
{
name = _bottom;
position = "{291, 0}";
}
);
components = (
{
alignment = -1;
name = R;
}
);
paths = (
{
closed = 1;
nodes = (
"303 -226 OFFCURVE",
"337 -197 OFFCURVE",
"337 -119 CURVE SMOOTH",
"337 -100 OFFCURVE",
"334 -76 OFFCURVE",
"329 -52 CURVE",
"250 -52 LINE",
"250 -121 LINE",
"292 -121 LINE",
"292 -135 LINE SMOOTH",
"292 -171 OFFCURVE",
"279 -191 OFFCURVE",
"247 -191 CURVE",
"247 -226 LINE"
);
}
);
};
components = (
{
alignment = -1;
name = R;
}
);
layerId = "3B8883BF-F483-4B97-AC7C-CABF8B821093";
paths = (
{
closed = 1;
nodes = (
"303 -226 OFFCURVE",
"337 -197 OFFCURVE",
"337 -119 CURVE SMOOTH",
"337 -100 OFFCURVE",
"334 -76 OFFCURVE",
"329 -52 CURVE",
"250 -52 LINE",
"250 -121 LINE",
"292 -121 LINE",
"292 -135 LINE SMOOTH",
"292 -171 OFFCURVE",
"279 -191 OFFCURVE",
"247 -191 CURVE",
"247 -226 LINE"
);
}
);
width = 583;
},
{
anchors = (
{
name = _bottom;
position = "{334, 0}";
}
);
background = {
anchors = (
{
name = _bottom;
position = "{334, 0}";
}
);
components = (
{
alignment = -1;
name = R;
}
);
paths = (
{
closed = 1;
nodes = (
"372 -310 OFFCURVE",
"417 -248 OFFCURVE",
"417 -158 CURVE SMOOTH",
"417 -122 OFFCURVE",
"411 -82 OFFCURVE",
"397 -40 CURVE",
"266 -40 LINE",
"266 -163 LINE",
"329 -163 LINE",
"329 -179 LINE SMOOTH",
"329 -224 OFFCURVE",
"311 -245 OFFCURVE",
"277 -245 CURVE",
"277 -310 LINE"
);
}
);
};
components = (
{
alignment = -1;
name = R;
}
);
layerId = "A390C1A2-E540-434D-BB9E-4BCEE875BA63";
paths = (
{
closed = 1;
nodes = (
"372 -310 OFFCURVE",
"417 -248 OFFCURVE",
"417 -158 CURVE SMOOTH",
"417 -122 OFFCURVE",
"411 -82 OFFCURVE",
"397 -40 CURVE",
"266 -40 LINE",
"266 -163 LINE",
"329 -163 LINE",
"329 -179 LINE SMOOTH",
"329 -224 OFFCURVE",
"311 -245 OFFCURVE",
"277 -245 CURVE",
"277 -310 LINE"
);
}
);
width = 652;
}
);
leftKerningGroup = H;
leftMetricsKey = H;
rightKerningGroup = R;
rightMetricsKey = R;
unicode = 0156;
userData = {
com.schriftgestaltung.Glyphs.ColorIndex = 8;
com.typesupply.AccentFactory.compileType = manual;
};
},
{
glyphname = S;
lastChange = "2019-05-10 10:24:02 +0000";
layers = (
{
anchors = (
{
name = bottom;
position = "{292, 0}";
},
{
name = top;
position = "{284, 700}";
}
);
background = {
anchors = (
{
name = bottom;
position = "{287, -4}";
},
{
name = top;
position = "{284, 694}";
}
);
paths = (
{
closed = 1;
nodes = (
"440 -7 OFFCURVE",
"517 89 OFFCURVE",
"517 184 CURVE SMOOTH",
"517 444 OFFCURVE",
"133 320 OFFCURVE",
"133 522 CURVE SMOOTH",
"133 603 OFFCURVE",
"201 648 OFFCURVE",
"283 647 CURVE",
"380 646 OFFCURVE",
"427 586 OFFCURVE",
"435 537 CURVE",
"511 537 LINE",
"499 633 OFFCURVE",
"419 707 OFFCURVE",
"286 707 CURVE",
"151 707 OFFCURVE",
"62 628 OFFCURVE",
"62 520 CURVE SMOOTH",
"62 257 OFFCURVE",
"446 387 OFFCURVE",
"446 181 CURVE SMOOTH",
"446 109 OFFCURVE",
"389 52 OFFCURVE",
"292 52 CURVE SMOOTH",
"179 52 OFFCURVE",
"136 122 OFFCURVE",
"130 180 CURVE",
"56 180 LINE",
"60 73 OFFCURVE",
"152 -7 OFFCURVE",
"292 -7 CURVE SMOOTH"
);
}
);
};
layerId = "3B8883BF-F483-4B97-AC7C-CABF8B821093";
paths = (
{
closed = 1;
nodes = (
"450 -12 OFFCURVE",
"527 83 OFFCURVE",
"527 180 CURVE SMOOTH",
"527 295 OFFCURVE",
"456 344 OFFCURVE",
"356 378 CURVE SMOOTH",
"229 421 OFFCURVE",
"142 434 OFFCURVE",
"142 530 CURVE SMOOTH",
"142 606 OFFCURVE",
"200 652 OFFCURVE",
"282 652 CURVE SMOOTH",
"383 652 OFFCURVE",
"430 582 OFFCURVE",
"430 520 CURVE",
"502 520 LINE",
"502 630 OFFCURVE",
"417 712 OFFCURVE",
"286 712 CURVE SMOOTH",
"151 712 OFFCURVE",
"69 632 OFFCURVE",
"70 522 CURVE SMOOTH",
"71 436 OFFCURVE",
"119 385 OFFCURVE",
"227 348 CURVE SMOOTH",
"347 307 OFFCURVE",
"455 295 OFFCURVE",
"455 176 CURVE SMOOTH",
"455 104 OFFCURVE",
"397 47 OFFCURVE",
"294 47 CURVE SMOOTH",
"177 47 OFFCURVE",
"117 122 OFFCURVE",
"117 210 CURVE",
"44 210 LINE",
"44 79 OFFCURVE",
"139 -12 OFFCURVE",
"294 -12 CURVE SMOOTH"
);
}
);
width = 572;
},
{
anchors = (
{
name = bottom;
position = "{314, 0}";
},
{
name = top;
position = "{306, 700}";
}
);
background = {
anchors = (
{
name = bottom;
position = "{309, -3}";
},
{
name = top;
position = "{306, 708}";
}
);
paths = (
{
closed = 1;
nodes = (
"480 -7 OFFCURVE",
"572 91 OFFCURVE",
"572 209 CURVE SMOOTH",
"572 444 OFFCURVE",
"225 389 OFFCURVE",
"225 511 CURVE SMOOTH",
"225 555 OFFCURVE",
"256 576 OFFCURVE",
"297 575 CURVE SMOOTH",
"343 574 OFFCURVE",
"375 547 OFFCURVE",
"378 502 CURVE",
"563 502 LINE",
"556 636 OFFCURVE",
"453 712 OFFCURVE",
"300 712 CURVE SMOOTH",
"153 712 OFFCURVE",
"44 638 OFFCURVE",
"44 505 CURVE SMOOTH",
"42 256 OFFCURVE",
"393 326 OFFCURVE",
"393 196 CURVE SMOOTH",
"393 155 OFFCURVE",
"361 130 OFFCURVE",
"311 130 CURVE SMOOTH",
"263 130 OFFCURVE",
"229 156 OFFCURVE",
"224 210 CURVE",
"42 210 LINE",
"47 68 OFFCURVE",
"165 -7 OFFCURVE",
"316 -7 CURVE SMOOTH"
);
}
);
};
layerId = "A390C1A2-E540-434D-BB9E-4BCEE875BA63";
paths = (
{
closed = 1;
nodes = (
"480 -12 OFFCURVE",
"572 86 OFFCURVE",
"572 204 CURVE SMOOTH",
"572 337 OFFCURVE",
"475 382 OFFCURVE",
"368 418 CURVE SMOOTH",
"293 443 OFFCURVE",
"233 463 OFFCURVE",
"233 515 CURVE SMOOTH",
"233 552 OFFCURVE",
"264 570 OFFCURVE",
"301 569 CURVE SMOOTH",
"339 568 OFFCURVE",
"371 542 OFFCURVE",
"374 502 CURVE",
"559 502 LINE",
"552 636 OFFCURVE",
"449 712 OFFCURVE",
"302 712 CURVE SMOOTH",
"161 712 OFFCURVE",
"52 638 OFFCURVE",
"52 505 CURVE SMOOTH",
"52 398 OFFCURVE",
"117 341 OFFCURVE",
"225 305 CURVE SMOOTH",
"312 276 OFFCURVE",
"389 253 OFFCURVE",
"389 192 CURVE SMOOTH",
"389 150 OFFCURVE",
"356 131 OFFCURVE",
"315 131 CURVE SMOOTH",
"265 131 OFFCURVE",
"228 162 OFFCURVE",
"224 212 CURVE",
"42 212 LINE",
"47 63 OFFCURVE",
"165 -12 OFFCURVE",
"316 -12 CURVE SMOOTH"
);
}
);
width = 616;
}
);
leftKerningGroup = S;
rightKerningGroup = S;
unicode = 0053;
userData = {
com.schriftgestaltung.Glyphs.ColorIndex = 4;
com.typesupply.AccentFactory.yCoordinates = {
bottom = {
name = origin;
type = glyphMetric;
};
top = {
name = capHeight;
type = fontInfo;
};
};
};
},
{
glyphname = Scommaaccent;
lastChange = "2019-05-10 10:24:02 +0000";
layers = (
{
anchors = (
{
name = _bottom;
position = "{297, -3}";
}
);
background = {
anchors = (
{
name = _bottom;
position = "{297, -3}";
}
);
components = (
{
alignment = -1;
name = S;
}
);
paths = (
{
closed = 1;
nodes = (
"310 -226 OFFCURVE",
"344 -197 OFFCURVE",
"344 -119 CURVE SMOOTH",
"344 -100 OFFCURVE",
"341 -76 OFFCURVE",
"336 -52 CURVE",
"257 -52 LINE",
"257 -121 LINE",
"300 -121 LINE",
"300 -135 LINE SMOOTH",
"300 -171 OFFCURVE",
"286 -191 OFFCURVE",
"253 -191 CURVE",
"253 -226 LINE"
);
}
);
};
components = (
{
alignment = -1;
name = S;
}
);
layerId = "3B8883BF-F483-4B97-AC7C-CABF8B821093";
paths = (
{
closed = 1;
nodes = (
"310 -226 OFFCURVE",
"344 -197 OFFCURVE",
"344 -119 CURVE SMOOTH",
"344 -100 OFFCURVE",
"341 -76 OFFCURVE",
"336 -52 CURVE",
"257 -52 LINE",
"257 -121 LINE",
"300 -121 LINE",
"300 -135 LINE SMOOTH",
"300 -171 OFFCURVE",
"286 -191 OFFCURVE",
"253 -191 CURVE",
"253 -226 LINE"
);
}
);
width = 572;
},
{
anchors = (
{
name = _bottom;
position = "{324, 0}";
}
);
background = {
anchors = (
{
name = _bottom;
position = "{324, 0}";
}
);
components = (
{
alignment = -1;
name = S;
}
);
paths = (
{
closed = 1;
nodes = (
"362 -310 OFFCURVE",
"407 -248 OFFCURVE",
"407 -158 CURVE SMOOTH",
"407 -122 OFFCURVE",
"401 -82 OFFCURVE",
"387 -40 CURVE",
"256 -40 LINE",
"256 -163 LINE",
"319 -163 LINE",
"319 -179 LINE SMOOTH",
"319 -224 OFFCURVE",
"301 -245 OFFCURVE",
"267 -245 CURVE",
"267 -310 LINE"
);
}
);
};
components = (
{
alignment = -1;
name = S;
}
);
layerId = "A390C1A2-E540-434D-BB9E-4BCEE875BA63";
paths = (
{
closed = 1;
nodes = (
"362 -310 OFFCURVE",
"407 -248 OFFCURVE",
"407 -158 CURVE SMOOTH",
"407 -122 OFFCURVE",
"401 -82 OFFCURVE",
"387 -40 CURVE",
"256 -40 LINE",
"256 -163 LINE",
"319 -163 LINE",
"319 -179 LINE SMOOTH",
"319 -224 OFFCURVE",
"301 -245 OFFCURVE",
"267 -245 CURVE",
"267 -310 LINE"
);
}
);
width = 616;
}
);
leftKerningGroup = S;
leftMetricsKey = S;
rightKerningGroup = S;
rightMetricsKey = S;
unicode = 0218;
userData = {
com.schriftgestaltung.Glyphs.ColorIndex = 8;
com.typesupply.AccentFactory.compileType = manual;
};
},
{
glyphname = T;
lastChange = "2019-05-10 10:24:02 +0000";
layers = (
{
anchors = (
{
name = bottom;
position = "{273, 0}";
},
{
name = top;
position = "{275, 700}";
}
);
background = {
anchors = (
{
name = bottom;
position = "{273, 0}";
},
{
name = top;
position = "{275, 690}";
}
);
paths = (
{
closed = 1;
nodes = (
"310 0 LINE",
"310 641 LINE",
"504 641 LINE",
"504 699 LINE",
"45 699 LINE",
"45 641 LINE",
"240 641 LINE",
"240 0 LINE"
);
}
);
};
layerId = "3B8883BF-F483-4B97-AC7C-CABF8B821093";
paths = (
{
closed = 1;
nodes = (
"310 0 LINE",
"310 642 LINE",
"520 642 LINE",
"520 700 LINE",
"30 700 LINE",
"30 642 LINE",
"240 642 LINE",
"240 0 LINE"
);
}
);
width = 550;
},
{
anchors = (
{
name = bottom;
position = "{307, 0}";
},
{
name = top;
position = "{308, 700}";
}
);
background = {
anchors = (
{
name = bottom;
position = "{307, 0}";
},
{
name = top;
position = "{308, 704}";
}
);
paths = (
{
closed = 1;
nodes = (
"396 0 LINE",
"396 565 LINE",
"582 565 LINE",
"582 702 LINE",
"39 702 LINE",
"39 565 LINE",
"225 565 LINE",
"225 0 LINE"
);
}
);
};
layerId = "A390C1A2-E540-434D-BB9E-4BCEE875BA63";
paths = (
{
closed = 1;
nodes = (
"396 0 LINE",
"396 563 LINE",
"597 563 LINE",
"597 700 LINE",
"24 700 LINE",
"24 563 LINE",
"225 563 LINE",
"225 0 LINE"
);
}
);
width = 621;
}
);
leftKerningGroup = T;
rightKerningGroup = T;
unicode = 0054;
userData = {
com.schriftgestaltung.Glyphs.ColorIndex = 4;
com.typesupply.AccentFactory.yCoordinates = {
bottom = {
name = origin;
type = glyphMetric;
};
top = {
name = capHeight;
type = fontInfo;
};
};
};
},
{
glyphname = Tcommaaccent;
lastChange = "2019-05-10 10:24:02 +0000";
layers = (
{
background = {
components = (
{
alignment = -1;
name = T;
}
);
paths = (
{
closed = 1;
nodes = (
"271 -226 OFFCURVE",
"305 -197 OFFCURVE",
"305 -119 CURVE SMOOTH",
"305 -100 OFFCURVE",
"302 -76 OFFCURVE",
"297 -52 CURVE",
"218 -52 LINE",
"218 -121 LINE",
"261 -121 LINE",
"261 -135 LINE SMOOTH",
"261 -171 OFFCURVE",
"247 -191 OFFCURVE",
"215 -191 CURVE",
"215 -226 LINE"
);
}
);
};
components = (
{
alignment = -1;
name = T;
}
);
layerId = "3B8883BF-F483-4B97-AC7C-CABF8B821093";
paths = (
{
closed = 1;
nodes = (
"286 -226 OFFCURVE",
"320 -197 OFFCURVE",
"320 -119 CURVE SMOOTH",
"320 -100 OFFCURVE",
"317 -76 OFFCURVE",
"312 -52 CURVE",
"233 -52 LINE",
"233 -121 LINE",
"276 -121 LINE",
"276 -135 LINE SMOOTH",
"276 -171 OFFCURVE",
"262 -191 OFFCURVE",
"230 -191 CURVE",
"230 -226 LINE"
);
}
);
width = 550;
},
{
background = {
components = (
{
alignment = -1;
name = T;
}
);
paths = (
{
closed = 1;
nodes = (
"334 -310 OFFCURVE",
"379 -248 OFFCURVE",
"379 -158 CURVE SMOOTH",
"379 -122 OFFCURVE",
"373 -82 OFFCURVE",
"360 -40 CURVE",
"229 -40 LINE",
"229 -163 LINE",
"292 -163 LINE",
"292 -179 LINE SMOOTH",
"292 -224 OFFCURVE",
"273 -245 OFFCURVE",
"239 -245 CURVE",
"239 -310 LINE"
);
}
);
};
components = (
{
alignment = -1;
name = T;
}
);
layerId = "A390C1A2-E540-434D-BB9E-4BCEE875BA63";
paths = (
{
closed = 1;
nodes = (
"341 -310 OFFCURVE",
"386 -248 OFFCURVE",
"386 -158 CURVE SMOOTH",
"386 -122 OFFCURVE",
"380 -82 OFFCURVE",
"367 -40 CURVE",
"236 -40 LINE",
"236 -163 LINE",
"299 -163 LINE",
"299 -179 LINE SMOOTH",
"299 -224 OFFCURVE",
"280 -245 OFFCURVE",
"246 -245 CURVE",
"246 -310 LINE"
);
}
);
width = 621;
}
);
leftKerningGroup = T;
leftMetricsKey = T;
rightKerningGroup = T;
rightMetricsKey = T;
unicode = 021A;
userData = {
com.schriftgestaltung.Glyphs.ColorIndex = 8;
com.typesupply.AccentFactory.compileType = manual;
};
},
{
glyphname = U;
lastChange = "2019-05-10 10:24:02 +0000";
layers = (
{
anchors = (
{
name = ogonek;
position = "{392, 0}";
},
{
name = top;
position = "{323, 700}";
}
);
background = {
anchors = (
{
name = ogonek;
position = "{392, 0}";
},
{
name = top;
position = "{323, 690}";
}
);
paths = (
{
closed = 1;
nodes = (
"466 -7 OFFCURVE",
"578 75 OFFCURVE",
"578 260 CURVE SMOOTH",
"578 699 LINE",
"508 699 LINE",
"508 259 LINE SMOOTH",
"508 114 OFFCURVE",
"434 55 OFFCURVE",
"325 55 CURVE SMOOTH",
"216 55 OFFCURVE",
"140 114 OFFCURVE",
"140 259 CURVE SMOOTH",
"140 699 LINE",
"70 699 LINE",
"70 260 LINE SMOOTH",
"70 75 OFFCURVE",
"182 -7 OFFCURVE",
"324 -7 CURVE SMOOTH"
);
}
);
};
layerId = "3B8883BF-F483-4B97-AC7C-CABF8B821093";
paths = (
{
closed = 1;
nodes = (
"466 -12 OFFCURVE",
"578 70 OFFCURVE",
"578 255 CURVE SMOOTH",
"578 700 LINE",
"508 700 LINE",
"508 254 LINE SMOOTH",
"508 109 OFFCURVE",
"434 50 OFFCURVE",
"325 50 CURVE SMOOTH",
"216 50 OFFCURVE",
"140 109 OFFCURVE",
"140 254 CURVE SMOOTH",
"140 700 LINE",
"70 700 LINE",
"70 255 LINE SMOOTH",
"70 70 OFFCURVE",
"182 -12 OFFCURVE",
"324 -12 CURVE SMOOTH"
);
}
);
width = 648;
},
{
anchors = (
{
name = ogonek;
position = "{434, 2}";
},
{
name = top;
position = "{353, 700}";
}
);
background = {
anchors = (
{
name = ogonek;
position = "{434, 2}";
},
{
name = top;
position = "{353, 704}";
}
);
paths = (
{
closed = 1;
nodes = (
"511 -7 OFFCURVE",
"647 89 OFFCURVE",
"647 283 CURVE SMOOTH",
"647 702 LINE",
"476 702 LINE",
"476 282 LINE SMOOTH",
"476 199 OFFCURVE",
"433 151 OFFCURVE",
"352 151 CURVE SMOOTH",
"271 151 OFFCURVE",
"230 199 OFFCURVE",
"230 282 CURVE SMOOTH",
"230 702 LINE",
"59 702 LINE",
"59 283 LINE SMOOTH",
"59 89 OFFCURVE",
"186 -7 OFFCURVE",
"349 -7 CURVE SMOOTH"
);
}
);
};
layerId = "A390C1A2-E540-434D-BB9E-4BCEE875BA63";
paths = (
{
closed = 1;
nodes = (
"511 -12 OFFCURVE",
"647 84 OFFCURVE",
"647 278 CURVE SMOOTH",
"647 700 LINE",
"476 700 LINE",
"476 277 LINE SMOOTH",
"476 194 OFFCURVE",
"433 146 OFFCURVE",
"352 146 CURVE SMOOTH",
"271 146 OFFCURVE",
"230 194 OFFCURVE",
"230 277 CURVE SMOOTH",
"230 700 LINE",
"59 700 LINE",
"59 278 LINE SMOOTH",
"59 84 OFFCURVE",
"186 -12 OFFCURVE",
"349 -12 CURVE SMOOTH"
);
}
);
width = 705;
}
);
leftKerningGroup = U;
rightKerningGroup = U;
unicode = 0055;
userData = {
com.schriftgestaltung.Glyphs.ColorIndex = 4;
com.typesupply.AccentFactory.yCoordinates = {
bottom = {
name = origin;
type = glyphMetric;
};
top = {
name = capHeight;
type = fontInfo;
};
};
};
},
{
glyphname = V;
lastChange = "2019-05-10 10:24:02 +0000";
layers = (
{
background = {
paths = (
{
closed = 1;
nodes = (
"369 0 LINE",
"634 699 LINE",
"560 699 LINE",
"329 76 LINE",
"100 699 LINE",
"24 699 LINE",
"289 0 LINE"
);
}
);
};
layerId = "3B8883BF-F483-4B97-AC7C-CABF8B821093";
paths = (
{
closed = 1;
nodes = (
"369 0 LINE",
"634 700 LINE",
"560 700 LINE",
"329 76 LINE",
"100 700 LINE",
"24 700 LINE",
"289 0 LINE"
);
}
);
width = 658;
},
{
background = {
paths = (
{
closed = 1;
nodes = (
"472 0 LINE",
"721 702 LINE",
"540 702 LINE",
"365 172 LINE",
"191 702 LINE",
"9 702 LINE",
"258 0 LINE"
);
}
);
};
layerId = "A390C1A2-E540-434D-BB9E-4BCEE875BA63";
paths = (
{
closed = 1;
nodes = (
"472 0 LINE",
"721 700 LINE",
"540 700 LINE",
"365 172 LINE",
"191 700 LINE",
"9 700 LINE",
"258 0 LINE"
);
}
);
width = 730;
}
);
leftKerningGroup = V;
rightKerningGroup = V;
unicode = 0056;
userData = {
com.schriftgestaltung.Glyphs.ColorIndex = 4;
com.typesupply.AccentFactory.yCoordinates = {
bottom = {
name = origin;
type = glyphMetric;
};
top = {
name = capHeight;
type = fontInfo;
};
};
};
},
{
glyphname = W;
lastChange = "2019-05-10 10:24:02 +0000";
layers = (
{
anchors = (
{
name = bottom;
position = "{478, 0}";
},
{
name = top;
position = "{478, 700}";
}
);
background = {
paths = (
{
closed = 1;
nodes = (
"296 0 LINE",
"488 634 LINE",
"465 634 LINE",
"652 0 LINE",
"730 0 LINE",
"928 699 LINE",
"853 699 LINE",
"681 42 LINE",
"705 42 LINE",
"518 699 LINE",
"440 699 LINE",
"248 43 LINE",
"272 43 LINE",
"101 699 LINE",
"26 699 LINE",
"220 -1 LINE"
);
}
);
};
layerId = "3B8883BF-F483-4B97-AC7C-CABF8B821093";
paths = (
{
closed = 1;
nodes = (
"296 0 LINE",
"488 635 LINE",
"465 635 LINE",
"652 0 LINE",
"730 0 LINE",
"928 700 LINE",
"853 700 LINE",
"681 42 LINE",
"705 42 LINE",
"518 700 LINE",
"440 700 LINE",
"248 43 LINE",
"272 43 LINE",
"101 700 LINE",
"26 700 LINE",
"220 -1 LINE"
);
}
);
width = 954;
},
{
anchors = (
{
name = bottom;
position = "{525, 0}";
},
{
name = top;
position = "{525, 700}";
}
);
background = {
paths = (
{
closed = 1;
nodes = (
"409 0 LINE",
"537 511 LINE",
"513 511 LINE",
"637 0 LINE",
"844 0 LINE",
"1027 702 LINE",
"843 702 LINE",
"721 90 LINE",
"765 90 LINE",
"621 702 LINE",
"433 702 LINE",
"284 91 LINE",
"328 91 LINE",
"207 702 LINE",
"24 702 LINE",
"202 0 LINE"
);
}
);
};
layerId = "A390C1A2-E540-434D-BB9E-4BCEE875BA63";
paths = (
{
closed = 1;
nodes = (
"409 0 LINE",
"537 509 LINE",
"513 509 LINE",
"637 0 LINE",
"844 0 LINE",
"1027 700 LINE",
"843 700 LINE",
"721 90 LINE",
"765 90 LINE",
"621 700 LINE",
"433 700 LINE",
"284 91 LINE",
"328 91 LINE",
"207 700 LINE",
"24 700 LINE",
"202 0 LINE"
);
}
);
width = 1051;
}
);
leftKerningGroup = W;
rightKerningGroup = W;
unicode = 0057;
userData = {
com.schriftgestaltung.Glyphs.ColorIndex = 4;
com.typemytype.robofont.layerData = {
b = {
anchors = (
);
components = (
);
contours = (
{
points = (
{
segmentType = line;
smooth = 0;
x = 229;
y = -2;
},
{
segmentType = line;
smooth = 0;
x = 245;
y = 0;
},
{
segmentType = line;
smooth = 0;
x = 473;
y = 727;
},
{
segmentType = line;
smooth = 0;
x = 435;
y = 727;
},
{
segmentType = line;
smooth = 0;
x = 638;
y = 0;
},
{
segmentType = line;
smooth = 0;
x = 654;
y = 0;
},
{
segmentType = line;
smooth = 0;
x = 877;
y = 684;
},
{
segmentType = line;
smooth = 0;
x = 860;
y = 684;
},
{
segmentType = line;
smooth = 0;
x = 636;
y = 7;
},
{
segmentType = line;
smooth = 0;
x = 650;
y = 5;
},
{
segmentType = line;
smooth = 0;
x = 459;
y = 684;
},
{
segmentType = line;
smooth = 0;
x = 442;
y = 684;
},
{
segmentType = line;
smooth = 0;
x = 230;
y = 10;
},
{
segmentType = line;
smooth = 0;
x = 239;
y = 10;
},
{
segmentType = line;
smooth = 0;
x = 54;
y = 684;
},
{
segmentType = line;
smooth = 0;
x = 36;
y = 684;
}
);
}
);
lib = {
};
name = W;
unicodes = (
);
width = 904;
};
};
com.typesupply.AccentFactory.yCoordinates = {
bottom = {
name = origin;
type = glyphMetric;
};
top = {
name = capHeight;
type = fontInfo;
};
};
};
},
{
glyphname = X;
lastChange = "2019-05-10 10:24:02 +0000";
layers = (
{
background = {
paths = (
{
closed = 1;
nodes = (
"543 0 LINE",
"118 699 LINE",
"40 699 LINE",
"465 0 LINE"
);
},
{
closed = 1;
nodes = (
"118 0 LINE",
"305 323 LINE",
"265 375 LINE",
"40 0 LINE"
);
},
{
closed = 1;
nodes = (
"544 699 LINE",
"466 699 LINE",
"280 383 LINE",
"320 331 LINE"
);
}
);
};
layerId = "3B8883BF-F483-4B97-AC7C-CABF8B821093";
paths = (
{
closed = 1;
nodes = (
"543 0 LINE",
"118 700 LINE",
"40 700 LINE",
"465 0 LINE"
);
},
{
closed = 1;
nodes = (
"118 0 LINE",
"305 323 LINE",
"265 375 LINE",
"40 0 LINE"
);
},
{
closed = 1;
nodes = (
"544 700 LINE",
"466 700 LINE",
"280 383 LINE",
"320 331 LINE"
);
}
);
width = 584;
},
{
background = {
paths = (
{
closed = 1;
nodes = (
"691 0 LINE",
"223 702 LINE",
"24 702 LINE",
"492 0 LINE"
);
},
{
closed = 1;
nodes = (
"223 0 LINE",
"378 265 LINE",
"280 398 LINE",
"29 0 LINE"
);
},
{
closed = 1;
nodes = (
"682 702 LINE",
"488 702 LINE",
"333 437 LINE",
"431 304 LINE"
);
}
);
};
layerId = "A390C1A2-E540-434D-BB9E-4BCEE875BA63";
paths = (
{
closed = 1;
nodes = (
"691 0 LINE",
"223 700 LINE",
"24 700 LINE",
"492 0 LINE"
);
},
{
closed = 1;
nodes = (
"223 0 LINE",
"378 265 LINE",
"280 398 LINE",
"29 0 LINE"
);
},
{
closed = 1;
nodes = (
"682 700 LINE",
"488 700 LINE",
"333 437 LINE",
"431 304 LINE"
);
}
);
width = 715;
}
);
unicode = 0058;
userData = {
com.schriftgestaltung.Glyphs.ColorIndex = 4;
com.typemytype.robofont.guides = (
{
angle = 90;
isGlobal = 0;
magnetic = 5;
x = 50;
y = 16;
},
{
angle = 90;
isGlobal = 0;
magnetic = 5;
x = 490;
y = 36;
},
{
angle = 0;
isGlobal = 0;
magnetic = 5;
x = 511;
y = 352;
}
);
com.typesupply.AccentFactory.yCoordinates = {
bottom = {
name = origin;
type = glyphMetric;
};
top = {
name = capHeight;
type = fontInfo;
};
};
};
},
{
glyphname = Y;
lastChange = "2019-05-10 10:24:02 +0000";
layers = (
{
anchors = (
{
name = top;
position = "{283, 700}";
}
);
background = {
anchors = (
{
name = top;
position = "{283, 690}";
}
);
paths = (
{
closed = 1;
nodes = (
"318 0 LINE",
"318 272 LINE",
"542 699 LINE",
"464 699 LINE",
"267 304 LINE",
"299 304 LINE",
"101 699 LINE",
"22 699 LINE",
"248 272 LINE",
"248 0 LINE"
);
}
);
};
layerId = "3B8883BF-F483-4B97-AC7C-CABF8B821093";
paths = (
{
closed = 1;
nodes = (
"318 0 LINE",
"318 272 LINE",
"542 700 LINE",
"464 700 LINE",
"267 304 LINE",
"299 304 LINE",
"101 700 LINE",
"22 700 LINE",
"248 272 LINE",
"248 0 LINE"
);
}
);
width = 564;
},
{
anchors = (
{
name = top;
position = "{336, 700}";
}
);
background = {
anchors = (
{
name = top;
position = "{336, 704}";
}
);
paths = (
{
closed = 1;
nodes = (
"421 0 LINE",
"421 232 LINE",
"664 702 LINE",
"472 702 LINE",
"304 336 LINE",
"370 336 LINE",
"201 702 LINE",
"7 702 LINE",
"250 232 LINE",
"250 0 LINE"
);
}
);
};
layerId = "A390C1A2-E540-434D-BB9E-4BCEE875BA63";
paths = (
{
closed = 1;
nodes = (
"421 0 LINE",
"421 232 LINE",
"663 700 LINE",
"471 700 LINE",
"318 367 LINE",
"356 367 LINE",
"202 700 LINE",
"8 700 LINE",
"250 232 LINE",
"250 0 LINE"
);
}
);
width = 671;
}
);
leftKerningGroup = Y;
rightKerningGroup = Y;
unicode = 0059;
userData = {
com.schriftgestaltung.Glyphs.ColorIndex = 4;
com.typesupply.AccentFactory.yCoordinates = {
bottom = {
name = origin;
type = glyphMetric;
};
top = {
name = capHeight;
type = fontInfo;
};
};
};
},
{
glyphname = Z;
lastChange = "2019-05-10 10:24:02 +0000";
layers = (
{
anchors = (
{
name = top;
position = "{263, 700}";
}
);
background = {
anchors = (
{
name = top;
position = "{263, 690}";
}
);
paths = (
{
closed = 1;
nodes = (
"482 0 LINE",
"482 62 LINE",
"125 62 LINE",
"477 643 LINE",
"477 699 LINE",
"49 699 LINE",
"49 637 LINE",
"395 637 LINE",
"43 56 LINE",
"43 0 LINE"
);
}
);
};
layerId = "3B8883BF-F483-4B97-AC7C-CABF8B821093";
paths = (
{
closed = 1;
nodes = (
"482 0 LINE",
"482 62 LINE",
"125 62 LINE",
"477 644 LINE",
"477 700 LINE",
"49 700 LINE",
"49 638 LINE",
"395 638 LINE",
"43 56 LINE",
"43 0 LINE"
);
}
);
width = 525;
},
{
anchors = (
{
name = top;
position = "{298, 700}";
}
);
background = {
anchors = (
{
name = top;
position = "{298, 704}";
}
);
paths = (
{
closed = 1;
nodes = (
"546 0 LINE",
"546 140 LINE",
"244 140 LINE",
"546 572 LINE",
"546 702 LINE",
"50 702 LINE",
"50 562 LINE",
"350 562 LINE",
"50 130 LINE",
"50 0 LINE"
);
}
);
};
layerId = "A390C1A2-E540-434D-BB9E-4BCEE875BA63";
paths = (
{
closed = 1;
nodes = (
"546 0 LINE",
"546 140 LINE",
"244 140 LINE",
"546 570 LINE",
"546 700 LINE",
"50 700 LINE",
"50 560 LINE",
"350 560 LINE",
"50 130 LINE",
"50 0 LINE"
);
}
);
width = 596;
}
);
leftKerningGroup = Z;
rightKerningGroup = Z;
unicode = 005A;
userData = {
com.schriftgestaltung.Glyphs.ColorIndex = 4;
com.typesupply.AccentFactory.yCoordinates = {
bottom = {
name = origin;
type = glyphMetric;
};
top = {
name = capHeight;
type = fontInfo;
};
};
};
},
{
glyphname = a;
lastChange = "2019-05-10 10:24:02 +0000";
layers = (
{
anchors = (
{
name = ogonek;
position = "{472, 0}";
},
{
name = top;
position = "{266, 496}";
}
);
background = {
anchors = (
{
name = ogonek;
position = "{472, 0}";
},
{
name = top;
position = "{266, 496}";
}
);
paths = (
{
closed = 1;
nodes = (
"472 0 LINE",
"472 305 LINE SMOOTH",
"472 425 OFFCURVE",
"407 508 OFFCURVE",
"270 508 CURVE SMOOTH",
"170 508 OFFCURVE",
"71 451 OFFCURVE",
"59 344 CURVE",
"133 344 LINE",
"145 412 OFFCURVE",
"201 448 OFFCURVE",
"270 448 CURVE SMOOTH",
"351 448 OFFCURVE",
"402 398 OFFCURVE",
"402 305 CURVE SMOOTH",
"402 0 LINE"
);
},
{
closed = 1;
nodes = (
"352 -12 OFFCURVE",
"409 74 OFFCURVE",
"427 158 CURVE",
"402 226 LINE",
"402 138 OFFCURVE",
"333 50 OFFCURVE",
"233 50 CURVE SMOOTH",
"157 50 OFFCURVE",
"115 88 OFFCURVE",
"115 144 CURVE SMOOTH",
"115 199 OFFCURVE",
"154 241 OFFCURVE",
"263 241 CURVE SMOOTH",
"432 241 LINE",
"432 301 LINE",
"258 301 LINE SMOOTH",
"129 301 OFFCURVE",
"42 246 OFFCURVE",
"42 142 CURVE SMOOTH",
"42 60 OFFCURVE",
"101 -12 OFFCURVE",
"226 -12 CURVE SMOOTH"
);
}
);
};
layerId = "3B8883BF-F483-4B97-AC7C-CABF8B821093";
paths = (
{
closed = 1;
nodes = (
"472 0 LINE",
"472 305 LINE SMOOTH",
"472 425 OFFCURVE",
"407 508 OFFCURVE",
"270 508 CURVE SMOOTH",
"170 508 OFFCURVE",
"71 451 OFFCURVE",
"59 344 CURVE",
"133 344 LINE",
"145 412 OFFCURVE",
"201 448 OFFCURVE",
"270 448 CURVE SMOOTH",
"351 448 OFFCURVE",
"402 398 OFFCURVE",
"402 305 CURVE SMOOTH",
"402 169 LINE",
"408 0 LINE"
);
},
{
closed = 1;
nodes = (
"360 -12 OFFCURVE",
"409 74 OFFCURVE",
"427 158 CURVE",
"402 226 LINE",
"402 138 OFFCURVE",
"341 50 OFFCURVE",
"241 50 CURVE SMOOTH",
"165 50 OFFCURVE",
"123 88 OFFCURVE",
"123 144 CURVE SMOOTH",
"123 199 OFFCURVE",
"162 241 OFFCURVE",
"271 241 CURVE SMOOTH",
"432 241 LINE",
"432 301 LINE",
"266 301 LINE SMOOTH",
"137 301 OFFCURVE",
"50 246 OFFCURVE",
"50 142 CURVE SMOOTH",
"50 60 OFFCURVE",
"109 -12 OFFCURVE",
"234 -12 CURVE SMOOTH"
);
}
);
width = 530;
},
{
anchors = (
{
name = ogonek;
position = "{555, 0}";
},
{
name = top;
position = "{307, 496}";
}
);
background = {
anchors = (
{
name = ogonek;
position = "{555, 0}";
},
{
name = top;
position = "{307, 496}";
}
);
paths = (
{
closed = 1;
nodes = (
"555 0 LINE",
"555 305 LINE SMOOTH",
"555 441 OFFCURVE",
"452 508 OFFCURVE",
"308 508 CURVE SMOOTH",
"167 508 OFFCURVE",
"73 431 OFFCURVE",
"64 321 CURVE",
"227 321 LINE",
"234 355 OFFCURVE",
"266 371 OFFCURVE",
"307 371 CURVE SMOOTH",
"347 371 OFFCURVE",
"384 354 OFFCURVE",
"384 305 CURVE SMOOTH",
"384 0 LINE"
);
},
{
closed = 1;
nodes = (
"333 -12 OFFCURVE",
"401 54 OFFCURVE",
"419 138 CURVE",
"384 276 LINE",
"384 187 OFFCURVE",
"350 116 OFFCURVE",
"271 116 CURVE SMOOTH",
"243 116 OFFCURVE",
"219 126 OFFCURVE",
"219 152 CURVE SMOOTH",
"219 176 OFFCURVE",
"238 192 OFFCURVE",
"275 192 CURVE SMOOTH",
"414 192 LINE",
"414 287 LINE",
"254 287 LINE SMOOTH",
"98 287 OFFCURVE",
"38 219 OFFCURVE",
"38 135 CURVE SMOOTH",
"38 53 OFFCURVE",
"96 -12 OFFCURVE",
"225 -12 CURVE SMOOTH"
);
}
);
};
layerId = "A390C1A2-E540-434D-BB9E-4BCEE875BA63";
paths = (
{
closed = 1;
nodes = (
"555 0 LINE",
"555 305 LINE SMOOTH",
"555 441 OFFCURVE",
"452 508 OFFCURVE",
"308 508 CURVE SMOOTH",
"167 508 OFFCURVE",
"73 431 OFFCURVE",
"64 321 CURVE",
"227 321 LINE",
"234 355 OFFCURVE",
"266 371 OFFCURVE",
"307 371 CURVE SMOOTH",
"347 371 OFFCURVE",
"384 354 OFFCURVE",
"384 305 CURVE SMOOTH",
"384 92 LINE",
"414 0 LINE"
);
},
{
closed = 1;
nodes = (
"345 -12 OFFCURVE",
"401 54 OFFCURVE",
"419 138 CURVE",
"384 276 LINE",
"384 187 OFFCURVE",
"362 116 OFFCURVE",
"283 116 CURVE SMOOTH",
"255 116 OFFCURVE",
"231 126 OFFCURVE",
"231 152 CURVE SMOOTH",
"231 176 OFFCURVE",
"250 192 OFFCURVE",
"287 192 CURVE SMOOTH",
"414 192 LINE",
"414 287 LINE",
"266 287 LINE SMOOTH",
"110 287 OFFCURVE",
"50 219 OFFCURVE",
"50 135 CURVE SMOOTH",
"50 53 OFFCURVE",
"108 -12 OFFCURVE",
"237 -12 CURVE SMOOTH"
);
}
);
width = 611;
}
);
leftKerningGroup = a;
rightKerningGroup = a;
rightMetricsKey = n;
unicode = 0061;
userData = {
com.schriftgestaltung.Glyphs.ColorIndex = 4;
com.typemytype.robofont.guides = (
{
angle = 90;
isGlobal = 0;
magnetic = 5;
x = 306;
y = 501;
},
{
angle = 0;
isGlobal = 0;
magnetic = 5;
x = 88;
y = 270;
}
);
com.typesupply.AccentFactory.yCoordinates = {
bottom = {
name = origin;
type = glyphMetric;
};
top = {
name = xHeight;
type = fontInfo;
};
};
};
},
{
glyphname = ae;
lastChange = "2019-05-10 10:24:02 +0000";
layers = (
{
anchors = (
{
name = bottom;
position = "{455, 0}";
},
{
name = top;
position = "{455, 496}";
}
);
background = {
paths = (
{
closed = 1;
nodes = (
"399 -8 OFFCURVE",
"477 49 OFFCURVE",
"512 126 CURVE",
"512 0 LINE",
"573 0 LINE",
"573 126 LINE",
"609 41 OFFCURVE",
"695 -8 OFFCURVE",
"792 -8 CURVE SMOOTH",
"925 -8 OFFCURVE",
"1013 70 OFFCURVE",
"1038 173 CURVE",
"962 173 LINE",
"945 99 OFFCURVE",
"878 51 OFFCURVE",
"781 51 CURVE SMOOTH",
"682 51 OFFCURVE",
"581 120 OFFCURVE",
"581 265 CURVE SMOOTH",
"581 283 LINE SMOOTH",
"581 421 OFFCURVE",
"676 494 OFFCURVE",
"782 494 CURVE SMOOTH",
"886 494 OFFCURVE",
"978 429 OFFCURVE",
"974 300 CURVE",
"571 300 LINE",
"571 248 LINE",
"1042 248 LINE",
"1045 267 OFFCURVE",
"1046 281 OFFCURVE",
"1046 302 CURVE SMOOTH",
"1046 438 OFFCURVE",
"950 554 OFFCURVE",
"792 554 CURVE SMOOTH",
"697 554 OFFCURVE",
"617 512 OFFCURVE",
"573 422 CURVE",
"573 546 LINE",
"514 546 LINE",
"514 423 LINE",
"475 503 OFFCURVE",
"399 554 OFFCURVE",
"297 554 CURVE",
"144 554 OFFCURVE",
"33 445 OFFCURVE",
"33 274 CURVE",
"33 103 OFFCURVE",
"144 -8 OFFCURVE",
"294 -8 CURVE"
);
},
{
closed = 1;
nodes = (
"192 53 OFFCURVE",
"104 136 OFFCURVE",
"104 274 CURVE",
"104 413 OFFCURVE",
"192 493 OFFCURVE",
"307 493 CURVE",
"419 493 OFFCURVE",
"510 409 OFFCURVE",
"510 273 CURVE",
"510 137 OFFCURVE",
"419 53 OFFCURVE",
"307 53 CURVE"
);
}
);
};
layerId = "3B8883BF-F483-4B97-AC7C-CABF8B821093";
paths = (
{
closed = 1;
nodes = (
"328 -12 OFFCURVE",
"394 42 OFFCURVE",
"433 111 CURVE",
"473 34 OFFCURVE",
"549 -12 OFFCURVE",
"637 -12 CURVE SMOOTH",
"754 -12 OFFCURVE",
"831 62 OFFCURVE",
"855 161 CURVE",
"788 161 LINE",
"766 91 OFFCURVE",
"717 48 OFFCURVE",
"637 48 CURVE SMOOTH",
"558 48 OFFCURVE",
"474 109 OFFCURVE",
"470 237 CURVE",
"861 237 LINE",
"862 256 OFFCURVE",
"862 269 OFFCURVE",
"862 283 CURVE SMOOTH",
"862 398 OFFCURVE",
"778 508 OFFCURVE",
"639 508 CURVE SMOOTH",
"559 508 OFFCURVE",
"490 473 OFFCURVE",
"448 411 CURVE",
"418 471 OFFCURVE",
"357 508 OFFCURVE",
"271 508 CURVE SMOOTH",
"176 508 OFFCURVE",
"79 451 OFFCURVE",
"67 344 CURVE",
"141 344 LINE",
"153 412 OFFCURVE",
"207 448 OFFCURVE",
"271 448 CURVE SMOOTH",
"347 448 OFFCURVE",
"400 398 OFFCURVE",
"400 305 CURVE SMOOTH",
"400 297 LINE",
"261 297 LINE SMOOTH",
"137 297 OFFCURVE",
"50 246 OFFCURVE",
"50 142 CURVE SMOOTH",
"50 60 OFFCURVE",
"109 -12 OFFCURVE",
"234 -12 CURVE SMOOTH"
);
},
{
closed = 1;
nodes = (
"165 50 OFFCURVE",
"123 88 OFFCURVE",
"123 144 CURVE SMOOTH",
"123 199 OFFCURVE",
"162 237 OFFCURVE",
"266 237 CURVE SMOOTH",
"400 237 LINE",
"400 214 LINE",
"394 130 OFFCURVE",
"326 50 OFFCURVE",
"236 50 CURVE SMOOTH"
);
},
{
closed = 1;
nodes = (
"481 395 OFFCURVE",
"556 448 OFFCURVE",
"638 448 CURVE SMOOTH",
"721 448 OFFCURVE",
"789 392 OFFCURVE",
"794 297 CURVE",
"471 297 LINE"
);
}
);
width = 904;
},
{
anchors = (
{
name = bottom;
position = "{498, 0}";
},
{
name = top;
position = "{498, 496}";
}
);
background = {
paths = (
{
closed = 1;
nodes = (
"345 -8 OFFCURVE",
"406 29 OFFCURVE",
"440 80 CURVE",
"440 0 LINE",
"603 0 LINE",
"603 80 LINE",
"638 27 OFFCURVE",
"703 -8 OFFCURVE",
"785 -8 CURVE SMOOTH",
"907 -8 OFFCURVE",
"992 76 OFFCURVE",
"1019 185 CURVE",
"837 185 LINE",
"823 152 OFFCURVE",
"790 129 OFFCURVE",
"734 129 CURVE SMOOTH",
"671 129 OFFCURVE",
"612 170 OFFCURVE",
"612 269 CURVE SMOOTH",
"612 297 LINE SMOOTH",
"612 386 OFFCURVE",
"670 429 OFFCURVE",
"738 429 CURVE SMOOTH",
"804 429 OFFCURVE",
"857 392 OFFCURVE",
"858 327 CURVE",
"593 327 LINE",
"591 240 LINE",
"1028 240 LINE",
"1031 257 OFFCURVE",
"1033 273 OFFCURVE",
"1033 289 CURVE SMOOTH",
"1033 456 OFFCURVE",
"930 566 OFFCURVE",
"785 566 CURVE SMOOTH",
"705 566 OFFCURVE",
"644 538 OFFCURVE",
"603 480 CURVE",
"603 558 LINE",
"442 558 LINE",
"442 480 LINE",
"404 535 OFFCURVE",
"345 566 OFFCURVE",
"269 566 CURVE SMOOTH",
"129 566 OFFCURVE",
"20 456 OFFCURVE",
"20 280 CURVE SMOOTH",
"20 104 OFFCURVE",
"129 -8 OFFCURVE",
"266 -8 CURVE SMOOTH"
);
},
{
closed = 1;
nodes = (
"252 141 OFFCURVE",
"194 191 OFFCURVE",
"194 280 CURVE SMOOTH",
"194 369 OFFCURVE",
"252 417 OFFCURVE",
"316 417 CURVE SMOOTH",
"381 417 OFFCURVE",
"438 368 OFFCURVE",
"438 279 CURVE SMOOTH",
"438 190 OFFCURVE",
"381 141 OFFCURVE",
"316 141 CURVE SMOOTH"
);
}
);
};
layerId = "A390C1A2-E540-434D-BB9E-4BCEE875BA63";
paths = (
{
closed = 1;
nodes = (
"358 -12 OFFCURVE",
"415 23 OFFCURVE",
"456 75 CURVE",
"504 21 OFFCURVE",
"577 -12 OFFCURVE",
"663 -12 CURVE SMOOTH",
"788 -12 OFFCURVE",
"887 71 OFFCURVE",
"914 176 CURVE",
"742 176 LINE",
"728 150 OFFCURVE",
"701 126 OFFCURVE",
"661 126 CURVE SMOOTH",
"608 126 OFFCURVE",
"575 159 OFFCURVE",
"568 201 CURVE",
"922 201 LINE",
"924 218 OFFCURVE",
"925 236 OFFCURVE",
"925 250 CURVE SMOOTH",
"925 407 OFFCURVE",
"811 508 OFFCURVE",
"662 508 CURVE SMOOTH",
"599 508 OFFCURVE",
"541 488 OFFCURVE",
"497 455 CURVE",
"453 490 OFFCURVE",
"390 508 OFFCURVE",
"316 508 CURVE SMOOTH",
"179 508 OFFCURVE",
"85 431 OFFCURVE",
"76 325 CURVE",
"239 325 LINE",
"246 355 OFFCURVE",
"278 371 OFFCURVE",
"316 371 CURVE SMOOTH",
"355 371 OFFCURVE",
"392 354 OFFCURVE",
"392 305 CURVE SMOOTH",
"392 295 LINE",
"262 295 LINE SMOOTH",
"106 295 OFFCURVE",
"50 223 OFFCURVE",
"50 137 CURVE SMOOTH",
"50 55 OFFCURVE",
"125 -12 OFFCURVE",
"254 -12 CURVE SMOOTH"
);
},
{
closed = 1;
nodes = (
"255 116 OFFCURVE",
"231 132 OFFCURVE",
"231 158 CURVE SMOOTH",
"231 182 OFFCURVE",
"250 201 OFFCURVE",
"287 201 CURVE SMOOTH",
"382 201 LINE",
"382 201 LINE",
"367 150 OFFCURVE",
"334 116 OFFCURVE",
"283 116 CURVE SMOOTH"
);
},
{
closed = 1;
nodes = (
"585 347 OFFCURVE",
"621 372 OFFCURVE",
"664 372 CURVE SMOOTH",
"711 372 OFFCURVE",
"746 343 OFFCURVE",
"750 296 CURVE",
"571 296 LINE"
);
}
);
width = 969;
}
);
leftKerningGroup = a;
leftMetricsKey = a;
rightKerningGroup = e;
rightMetricsKey = e;
unicode = 00E6;
userData = {
com.schriftgestaltung.Glyphs.ColorIndex = 4;
com.typemytype.robofont.layerData = {
b = {
anchors = (
);
components = (
);
contours = (
{
points = (
{
segmentType = line;
smooth = 0;
x = 547;
y = 261;
},
{
segmentType = line;
smooth = 0;
x = 1043;
y = 261;
},
{
smooth = 0;
x = 1046;
y = 280;
},
{
smooth = 0;
x = 1047;
y = 298;
},
{
segmentType = curve;
smooth = 1;
x = 1047;
y = 315;
},
{
smooth = 0;
x = 1047;
y = 439;
},
{
smooth = 0;
x = 956;
y = 552;
},
{
segmentType = curve;
smooth = 1;
x = 799;
y = 552;
},
{
smooth = 0;
x = 703;
y = 552;
},
{
smooth = 0;
x = 638;
y = 528;
},
{
segmentType = curve;
smooth = 0;
x = 582;
y = 437;
},
{
segmentType = line;
smooth = 0;
x = 582;
y = 540;
},
{
segmentType = line;
smooth = 0;
x = 562;
y = 540;
},
{
segmentType = line;
smooth = 0;
x = 562;
y = 437;
},
{
smooth = 0;
x = 508;
y = 528;
},
{
smooth = 0;
x = 432;
y = 552;
},
{
segmentType = curve;
smooth = 1;
x = 344;
y = 552;
},
{
smooth = 0;
x = 174;
y = 552;
},
{
smooth = 0;
x = 60;
y = 448;
},
{
segmentType = curve;
smooth = 1;
x = 60;
y = 278;
},
{
smooth = 0;
x = 60;
y = 108;
},
{
smooth = 0;
x = 174;
y = -12;
},
{
segmentType = curve;
smooth = 1;
x = 329;
y = -12;
},
{
smooth = 0;
x = 432;
y = -12;
},
{
smooth = 0;
x = 521;
y = 41;
},
{
segmentType = curve;
smooth = 0;
x = 562;
y = 105;
},
{
segmentType = line;
smooth = 0;
x = 562;
y = 0;
},
{
segmentType = line;
smooth = 0;
x = 582;
y = 0;
},
{
segmentType = line;
smooth = 0;
x = 582;
y = 103;
},
{
smooth = 0;
x = 627;
y = 34;
},
{
smooth = 0;
x = 696;
y = -12;
},
{
segmentType = curve;
smooth = 1;
x = 780;
y = -12;
},
{
smooth = 0;
x = 924;
y = -12;
},
{
smooth = 0;
x = 995;
y = 66;
},
{
segmentType = curve;
smooth = 0;
x = 1027;
y = 137;
},
{
segmentType = line;
smooth = 0;
x = 1007;
y = 137;
},
{
smooth = 0;
x = 982;
y = 60;
},
{
smooth = 0;
x = 917;
y = -1;
},
{
segmentType = curve;
smooth = 1;
x = 807;
y = -1;
},
{
smooth = 0;
x = 667;
y = -1;
},
{
smooth = 0;
x = 561;
y = 118;
},
{
segmentType = curve;
smooth = 1;
x = 561;
y = 274;
},
{
segmentType = line;
smooth = 1;
x = 561;
y = 259;
},
{
smooth = 0;
x = 561;
y = 432;
},
{
smooth = 0;
x = 674;
y = 541;
},
{
segmentType = curve;
smooth = 1;
x = 804;
y = 541;
},
{
smooth = 0;
x = 933;
y = 541;
},
{
smooth = 0;
x = 1030;
y = 448;
},
{
segmentType = curve;
smooth = 0;
x = 1027;
y = 290;
},
{
segmentType = line;
smooth = 0;
x = 552;
y = 290;
}
);
},
{
points = (
{
segmentType = curve;
smooth = 1;
x = 81;
y = 278;
},
{
smooth = 0;
x = 81;
y = 438;
},
{
smooth = 0;
x = 192;
y = 536;
},
{
segmentType = curve;
smooth = 1;
x = 323;
y = 536;
},
{
smooth = 0;
x = 456;
y = 536;
},
{
smooth = 0;
x = 567;
y = 430;
},
{
segmentType = curve;
smooth = 1;
x = 567;
y = 270;
},
{
smooth = 0;
x = 567;
y = 110;
},
{
smooth = 0;
x = 456;
y = 5;
},
{
segmentType = curve;
smooth = 1;
x = 323;
y = 5;
},
{
smooth = 0;
x = 192;
y = 5;
},
{
smooth = 0;
x = 81;
y = 118;
}
);
}
);
lib = {
};
name = ae;
unicodes = (
);
width = 1135;
};
};
com.typesupply.AccentFactory.yCoordinates = {
bottom = {
name = origin;
type = glyphMetric;
};
top = {
name = xHeight;
type = fontInfo;
};
};
};
},
{
glyphname = b;
lastChange = "2019-05-10 10:24:02 +0000";
layers = (
{
background = {
paths = (
{
closed = 1;
nodes = (
"477 -12 OFFCURVE",
"573 97 OFFCURVE",
"573 247 CURVE SMOOTH",
"573 397 OFFCURVE",
"477 508 OFFCURVE",
"327 508 CURVE SMOOTH",
"233 508 OFFCURVE",
"172 460 OFFCURVE",
"140 410 CURVE",
"140 720 LINE",
"70 720 LINE",
"70 0 LINE",
"140 0 LINE",
"140 88 LINE",
"174 25 OFFCURVE",
"242 -12 OFFCURVE",
"326 -12 CURVE SMOOTH"
);
},
{
closed = 1;
nodes = (
"218 49 OFFCURVE",
"144 128 OFFCURVE",
"144 248 CURVE SMOOTH",
"144 368 OFFCURVE",
"218 447 OFFCURVE",
"323 447 CURVE SMOOTH",
"428 447 OFFCURVE",
"502 368 OFFCURVE",
"502 248 CURVE SMOOTH",
"502 128 OFFCURVE",
"428 49 OFFCURVE",
"323 49 CURVE SMOOTH"
);
}
);
};
layerId = "3B8883BF-F483-4B97-AC7C-CABF8B821093";
paths = (
{
closed = 1;
nodes = (
"477 -12 OFFCURVE",
"573 97 OFFCURVE",
"573 247 CURVE SMOOTH",
"573 397 OFFCURVE",
"477 508 OFFCURVE",
"327 508 CURVE SMOOTH",
"233 508 OFFCURVE",
"172 460 OFFCURVE",
"140 410 CURVE",
"140 720 LINE",
"70 720 LINE",
"70 0 LINE",
"134 0 LINE",
"140 88 LINE",
"174 25 OFFCURVE",
"242 -12 OFFCURVE",
"326 -12 CURVE SMOOTH"
);
},
{
closed = 1;
nodes = (
"218 49 OFFCURVE",
"144 128 OFFCURVE",
"144 248 CURVE SMOOTH",
"144 368 OFFCURVE",
"218 447 OFFCURVE",
"323 447 CURVE SMOOTH",
"428 447 OFFCURVE",
"502 368 OFFCURVE",
"502 248 CURVE SMOOTH",
"502 128 OFFCURVE",
"428 49 OFFCURVE",
"323 49 CURVE SMOOTH"
);
}
);
width = 621;
},
{
background = {
paths = (
{
closed = 1;
nodes = (
"516 -12 OFFCURVE",
"625 98 OFFCURVE",
"625 247 CURVE SMOOTH",
"625 396 OFFCURVE",
"516 508 OFFCURVE",
"383 508 CURVE SMOOTH",
"307 508 OFFCURVE",
"264 476 OFFCURVE",
"233 436 CURVE",
"233 720 LINE",
"62 720 LINE",
"62 0 LINE",
"233 0 LINE",
"233 53 LINE",
"267 12 OFFCURVE",
"315 -12 OFFCURVE",
"383 -12 CURVE SMOOTH"
);
},
{
closed = 1;
nodes = (
"272 137 OFFCURVE",
"225 185 OFFCURVE",
"225 248 CURVE SMOOTH",
"225 309 OFFCURVE",
"272 359 OFFCURVE",
"338 359 CURVE SMOOTH",
"403 359 OFFCURVE",
"451 309 OFFCURVE",
"451 247 CURVE SMOOTH",
"451 185 OFFCURVE",
"403 137 OFFCURVE",
"338 137 CURVE SMOOTH"
);
}
);
};
layerId = "A390C1A2-E540-434D-BB9E-4BCEE875BA63";
paths = (
{
closed = 1;
nodes = (
"516 -12 OFFCURVE",
"625 98 OFFCURVE",
"625 247 CURVE SMOOTH",
"625 396 OFFCURVE",
"516 508 OFFCURVE",
"383 508 CURVE SMOOTH",
"307 508 OFFCURVE",
"264 476 OFFCURVE",
"233 436 CURVE",
"233 720 LINE",
"62 720 LINE",
"62 0 LINE",
"213 0 LINE",
"233 53 LINE",
"267 12 OFFCURVE",
"315 -12 OFFCURVE",
"383 -12 CURVE SMOOTH"
);
},
{
closed = 1;
nodes = (
"272 137 OFFCURVE",
"225 185 OFFCURVE",
"225 248 CURVE SMOOTH",
"225 309 OFFCURVE",
"272 359 OFFCURVE",
"338 359 CURVE SMOOTH",
"403 359 OFFCURVE",
"451 309 OFFCURVE",
"451 247 CURVE SMOOTH",
"451 185 OFFCURVE",
"403 137 OFFCURVE",
"338 137 CURVE SMOOTH"
);
}
);
width = 675;
}
);
leftKerningGroup = l;
leftMetricsKey = l;
rightKerningGroup = o;
rightMetricsKey = o;
unicode = 0062;
userData = {
com.schriftgestaltung.Glyphs.ColorIndex = 4;
com.typemytype.robofont.layerData = {
b = {
anchors = (
);
components = (
);
contours = (
{
points = (
{
segmentType = curve;
smooth = 0;
x = 105;
y = 398;
},
{
segmentType = line;
smooth = 0;
x = 105;
y = 740;
},
{
segmentType = line;
smooth = 0;
x = 85;
y = 740;
},
{
segmentType = line;
smooth = 0;
x = 85;
y = 0;
},
{
segmentType = line;
smooth = 0;
x = 105;
y = 0;
},
{
segmentType = line;
smooth = 0;
x = 105;
y = 140;
},
{
smooth = 0;
x = 137;
y = 60;
},
{
smooth = 0;
x = 223;
y = -12;
},
{
segmentType = curve;
smooth = 1;
x = 342;
y = -12;
},
{
smooth = 0;
x = 498;
y = -12;
},
{
smooth = 0;
x = 611;
y = 108;
},
{
segmentType = curve;
smooth = 1;
x = 611;
y = 278;
},
{
smooth = 0;
x = 611;
y = 448;
},
{
smooth = 0;
x = 498;
y = 552;
},
{
segmentType = curve;
smooth = 1;
x = 342;
y = 552;
},
{
smooth = 0;
x = 223;
y = 552;
},
{
smooth = 0;
x = 138;
y = 480;
}
);
},
{
points = (
{
segmentType = curve;
smooth = 1;
x = 590;
y = 278;
},
{
smooth = 0;
x = 590;
y = 118;
},
{
smooth = 0;
x = 480;
y = 5;
},
{
segmentType = curve;
smooth = 1;
x = 347;
y = 5;
},
{
smooth = 0;
x = 215;
y = 5;
},
{
smooth = 0;
x = 105;
y = 110;
},
{
segmentType = curve;
smooth = 1;
x = 105;
y = 270;
},
{
smooth = 0;
x = 105;
y = 430;
},
{
smooth = 0;
x = 215;
y = 536;
},
{
segmentType = curve;
smooth = 1;
x = 347;
y = 536;
},
{
smooth = 0;
x = 480;
y = 536;
},
{
smooth = 0;
x = 590;
y = 438;
}
);
}
);
lib = {
};
name = b;
unicodes = (
);
width = 671;
};
};
com.typesupply.AccentFactory.yCoordinates = {
bottom = {
name = origin;
type = glyphMetric;
};
top = {
name = ascender;
type = fontInfo;
};
};
};
},
{
glyphname = c;
lastChange = "2019-05-20 09:05:44 +0000";
layers = (
{
anchors = (
{
name = bottom;
position = "{288, -1}";
},
{
name = top;
position = "{293, 497}";
}
);
background = {
anchors = (
{
name = bottom;
position = "{288, 0}";
},
{
name = top;
position = "{288, 546}";
}
);
paths = (
{
closed = 1;
nodes = (
"430 -8 OFFCURVE",
"519 69 OFFCURVE",
"544 178 CURVE",
"469 178 LINE",
"450 98 OFFCURVE",
"385 51 OFFCURVE",
"293 51 CURVE SMOOTH",
"186 51 OFFCURVE",
"99 125 OFFCURVE",
"99 273 CURVE",
"99 421 OFFCURVE",
"186 494 OFFCURVE",
"293 494 CURVE SMOOTH",
"385 494 OFFCURVE",
"451 446 OFFCURVE",
"469 368 CURVE",
"544 368 LINE",
"519 481 OFFCURVE",
"430 554 OFFCURVE",
"293 554 CURVE SMOOTH",
"139 554 OFFCURVE",
"28 446 OFFCURVE",
"28 273 CURVE",
"28 100 OFFCURVE",
"139 -8 OFFCURVE",
"293 -8 CURVE SMOOTH"
);
}
);
};
layerId = "3B8883BF-F483-4B97-AC7C-CABF8B821093";
paths = (
{
closed = 1;
nodes = (
"409 -12 OFFCURVE",
"493 56 OFFCURVE",
"513 152 CURVE",
"443 152 LINE",
"428 85 OFFCURVE",
"367 47 OFFCURVE",
"293 47 CURVE SMOOTH",
"204 47 OFFCURVE",
"120 115 OFFCURVE",
"120 248 CURVE SMOOTH",
"120 381 OFFCURVE",
"204 448 OFFCURVE",
"293 448 CURVE SMOOTH",
"367 448 OFFCURVE",
"428 410 OFFCURVE",
"443 344 CURVE",
"513 344 LINE",
"492 443 OFFCURVE",
"409 508 OFFCURVE",
"293 508 CURVE SMOOTH",
"154 508 OFFCURVE",
"48 405 OFFCURVE",
"48 248 CURVE SMOOTH",
"48 91 OFFCURVE",
"154 -12 OFFCURVE",
"293 -12 CURVE SMOOTH"
);
}
);
width = 561;
},
{
anchors = (
{
name = bottom;
position = "{315, 0}";
},
{
name = top;
position = "{324, 496}";
}
);
background = {
anchors = (
{
name = bottom;
position = "{315, 0}";
},
{
name = top;
position = "{315, 558}";
}
);
paths = (
{
closed = 1;
nodes = (
"464 -8 OFFCURVE",
"563 73 OFFCURVE",
"592 202 CURVE",
"410 202 LINE",
"395 161 OFFCURVE",
"368 138 OFFCURVE",
"321 138 CURVE SMOOTH",
"260 138 OFFCURVE",
"218 186 OFFCURVE",
"218 279 CURVE SMOOTH",
"218 372 OFFCURVE",
"260 420 OFFCURVE",
"321 420 CURVE SMOOTH",
"368 420 OFFCURVE",
"396 395 OFFCURVE",
"410 356 CURVE",
"592 356 LINE",
"563 489 OFFCURVE",
"464 566 OFFCURVE",
"324 566 CURVE SMOOTH",
"160 566 OFFCURVE",
"44 455 OFFCURVE",
"44 279 CURVE SMOOTH",
"44 102 OFFCURVE",
"160 -8 OFFCURVE",
"324 -8 CURVE SMOOTH"
);
}
);
};
layerId = "A390C1A2-E540-434D-BB9E-4BCEE875BA63";
paths = (
{
closed = 1;
nodes = (
"453 -12 OFFCURVE",
"553 66 OFFCURVE",
"579 190 CURVE",
"396 190 LINE",
"385 154 OFFCURVE",
"356 134 OFFCURVE",
"318 134 CURVE SMOOTH",
"260 134 OFFCURVE",
"224 182 OFFCURVE",
"224 248 CURVE SMOOTH",
"224 314 OFFCURVE",
"260 362 OFFCURVE",
"318 362 CURVE SMOOTH",
"356 362 OFFCURVE",
"385 340 OFFCURVE",
"396 306 CURVE",
"579 306 LINE",
"553 434 OFFCURVE",
"453 508 OFFCURVE",
"319 508 CURVE SMOOTH",
"159 508 OFFCURVE",
"50 397 OFFCURVE",
"50 248 CURVE SMOOTH",
"50 98 OFFCURVE",
"159 -12 OFFCURVE",
"319 -12 CURVE SMOOTH"
);
}
);
width = 629;
}
);
leftKerningGroup = o;
leftMetricsKey = o;
rightKerningGroup = c;
rightMetricsKey = o;
unicode = 0063;
userData = {
com.schriftgestaltung.Glyphs.ColorIndex = 4;
com.typemytype.robofont.guides = (
{
angle = 90;
isGlobal = 0;
magnetic = 5;
x = 287;
y = 532;
}
);
com.typesupply.AccentFactory.yCoordinates = {
bottom = {
name = origin;
type = glyphMetric;
};
top = {
name = xHeight;
type = fontInfo;
};
};
};
},
{
glyphname = d;
lastChange = "2019-05-10 10:24:02 +0000";
layers = (
{
anchors = (
{
name = bottom;
position = "{312, 0}";
},
{
name = center;
position = "{312, 248}";
},
{
name = top;
position = "{312, 720}";
},
{
name = topright;
position = "{602, 496}";
}
);
background = {
anchors = (
{
name = bottom;
position = "{312, 0}";
},
{
name = center;
position = "{312, 248}";
},
{
name = top;
position = "{312, 720}";
},
{
name = topright;
position = "{602, 496}";
}
);
paths = (
{
closed = 1;
nodes = (
"388 -12 OFFCURVE",
"449 36 OFFCURVE",
"481 86 CURVE",
"481 0 LINE",
"551 0 LINE",
"551 720 LINE",
"481 720 LINE",
"481 408 LINE",
"447 471 OFFCURVE",
"379 508 OFFCURVE",
"295 508 CURVE SMOOTH",
"144 508 OFFCURVE",
"48 399 OFFCURVE",
"48 249 CURVE SMOOTH",
"48 99 OFFCURVE",
"144 -12 OFFCURVE",
"294 -12 CURVE SMOOTH"
);
},
{
closed = 1;
nodes = (
"193 49 OFFCURVE",
"119 128 OFFCURVE",
"119 248 CURVE SMOOTH",
"119 368 OFFCURVE",
"193 447 OFFCURVE",
"298 447 CURVE SMOOTH",
"403 447 OFFCURVE",
"477 368 OFFCURVE",
"477 248 CURVE SMOOTH",
"477 128 OFFCURVE",
"403 49 OFFCURVE",
"298 49 CURVE SMOOTH"
);
}
);
};
layerId = "3B8883BF-F483-4B97-AC7C-CABF8B821093";
paths = (
{
closed = 1;
nodes = (
"388 -12 OFFCURVE",
"449 36 OFFCURVE",
"481 86 CURVE",
"487 0 LINE",
"551 0 LINE",
"551 720 LINE",
"481 720 LINE",
"481 408 LINE",
"447 471 OFFCURVE",
"379 508 OFFCURVE",
"295 508 CURVE SMOOTH",
"144 508 OFFCURVE",
"48 399 OFFCURVE",
"48 249 CURVE SMOOTH",
"48 99 OFFCURVE",
"144 -12 OFFCURVE",
"294 -12 CURVE SMOOTH"
);
},
{
closed = 1;
nodes = (
"193 49 OFFCURVE",
"119 128 OFFCURVE",
"119 248 CURVE SMOOTH",
"119 368 OFFCURVE",
"193 447 OFFCURVE",
"298 447 CURVE SMOOTH",
"403 447 OFFCURVE",
"477 368 OFFCURVE",
"477 248 CURVE SMOOTH",
"477 128 OFFCURVE",
"403 49 OFFCURVE",
"298 49 CURVE SMOOTH"
);
}
);
width = 621;
},
{
anchors = (
{
name = bottom;
position = "{347, 0}";
},
{
name = center;
position = "{347, 248}";
},
{
name = top;
position = "{347, 720}";
},
{
name = topright;
position = "{671, 496}";
}
);
background = {
anchors = (
{
name = bottom;
position = "{347, 0}";
},
{
name = center;
position = "{347, 248}";
},
{
name = top;
position = "{347, 720}";
},
{
name = topright;
position = "{671, 496}";
}
);
paths = (
{
closed = 1;
nodes = (
"368 -12 OFFCURVE",
"411 20 OFFCURVE",
"442 60 CURVE",
"442 0 LINE",
"613 0 LINE",
"613 720 LINE",
"442 720 LINE",
"442 443 LINE",
"408 484 OFFCURVE",
"360 508 OFFCURVE",
"292 508 CURVE SMOOTH",
"159 508 OFFCURVE",
"50 398 OFFCURVE",
"50 249 CURVE SMOOTH",
"50 100 OFFCURVE",
"159 -12 OFFCURVE",
"292 -12 CURVE SMOOTH"
);
},
{
closed = 1;
nodes = (
"272 137 OFFCURVE",
"224 187 OFFCURVE",
"224 249 CURVE SMOOTH",
"224 311 OFFCURVE",
"272 359 OFFCURVE",
"337 359 CURVE SMOOTH",
"403 359 OFFCURVE",
"450 311 OFFCURVE",
"450 248 CURVE SMOOTH",
"450 187 OFFCURVE",
"403 137 OFFCURVE",
"337 137 CURVE SMOOTH"
);
}
);
};
layerId = "A390C1A2-E540-434D-BB9E-4BCEE875BA63";
paths = (
{
closed = 1;
nodes = (
"368 -12 OFFCURVE",
"411 20 OFFCURVE",
"442 60 CURVE",
"462 0 LINE",
"613 0 LINE",
"613 720 LINE",
"442 720 LINE",
"442 443 LINE",
"408 484 OFFCURVE",
"360 508 OFFCURVE",
"292 508 CURVE SMOOTH",
"159 508 OFFCURVE",
"50 398 OFFCURVE",
"50 249 CURVE SMOOTH",
"50 100 OFFCURVE",
"159 -12 OFFCURVE",
"292 -12 CURVE SMOOTH"
);
},
{
closed = 1;
nodes = (
"272 137 OFFCURVE",
"224 187 OFFCURVE",
"224 249 CURVE SMOOTH",
"224 311 OFFCURVE",
"272 359 OFFCURVE",
"337 359 CURVE SMOOTH",
"403 359 OFFCURVE",
"450 311 OFFCURVE",
"450 248 CURVE SMOOTH",
"450 187 OFFCURVE",
"403 137 OFFCURVE",
"337 137 CURVE SMOOTH"
);
}
);
width = 675;
}
);
leftKerningGroup = o;
leftMetricsKey = o;
rightKerningGroup = l;
rightMetricsKey = l;
unicode = 0064;
userData = {
com.schriftgestaltung.Glyphs.ColorIndex = 4;
com.typesupply.AccentFactory.yCoordinates = {
bottom = {
name = origin;
type = glyphMetric;
};
top = {
name = ascender;
type = fontInfo;
};
};
};
},
{
glyphname = dcaron;
lastChange = "2019-05-10 10:24:02 +0000";
layers = (
{
background = {
components = (
{
alignment = -1;
name = d;
}
);
paths = (
{
closed = 1;
nodes = (
"706 552 OFFCURVE",
"739 581 OFFCURVE",
"739 655 CURVE SMOOTH",
"739 679 OFFCURVE",
"736 707 OFFCURVE",
"729 740 CURVE",
"648 740 LINE",
"648 664 LINE",
"694 664 LINE",
"694 639 LINE SMOOTH",
"694 606 OFFCURVE",
"682 588 OFFCURVE",
"647 588 CURVE",
"647 552 LINE"
);
}
);
};
components = (
{
alignment = -1;
name = d;
}
);
layerId = "3B8883BF-F483-4B97-AC7C-CABF8B821093";
paths = (
{
closed = 1;
nodes = (
"685 552 OFFCURVE",
"718 581 OFFCURVE",
"718 655 CURVE SMOOTH",
"718 679 OFFCURVE",
"715 707 OFFCURVE",
"708 740 CURVE",
"627 740 LINE",
"627 664 LINE",
"673 664 LINE",
"673 639 LINE SMOOTH",
"673 606 OFFCURVE",
"661 588 OFFCURVE",
"626 588 CURVE",
"626 552 LINE"
);
}
);
width = 726;
},
{
background = {
components = (
{
alignment = -1;
name = d;
}
);
paths = (
{
closed = 1;
nodes = (
"779 470 OFFCURVE",
"824 532 OFFCURVE",
"824 622 CURVE SMOOTH",
"824 658 OFFCURVE",
"818 698 OFFCURVE",
"804 740 CURVE",
"673 740 LINE",
"673 617 LINE",
"736 617 LINE",
"736 601 LINE SMOOTH",
"736 556 OFFCURVE",
"718 535 OFFCURVE",
"684 535 CURVE",
"684 470 LINE"
);
}
);
};
components = (
{
alignment = -1;
name = d;
}
);
layerId = "A390C1A2-E540-434D-BB9E-4BCEE875BA63";
paths = (
{
closed = 1;
nodes = (
"784 470 OFFCURVE",
"829 532 OFFCURVE",
"829 622 CURVE SMOOTH",
"829 658 OFFCURVE",
"823 698 OFFCURVE",
"809 740 CURVE",
"678 740 LINE",
"678 617 LINE",
"741 617 LINE",
"741 601 LINE SMOOTH",
"741 556 OFFCURVE",
"723 535 OFFCURVE",
"689 535 CURVE",
"689 470 LINE"
);
}
);
width = 855;
}
);
leftKerningGroup = o;
leftMetricsKey = o;
rightKerningGroup = lcaron;
rightMetricsKey = lcaron;
unicode = 010F;
userData = {
com.schriftgestaltung.Glyphs.ColorIndex = 8;
com.typesupply.AccentFactory.compileType = manual;
};
},
{
glyphname = dcroat;
lastChange = "2019-05-10 10:24:02 +0000";
layers = (
{
background = {
components = (
{
alignment = -1;
name = d;
}
);
paths = (
{
closed = 1;
nodes = (
"658 618 LINE",
"658 662 LINE",
"385 662 LINE",
"385 618 LINE"
);
}
);
};
components = (
{
alignment = -1;
name = d;
}
);
layerId = "3B8883BF-F483-4B97-AC7C-CABF8B821093";
paths = (
{
closed = 1;
nodes = (
"628 572 LINE",
"628 632 LINE",
"335 632 LINE",
"335 572 LINE"
);
}
);
width = 671;
},
{
background = {
components = (
{
alignment = -1;
name = d;
}
);
paths = (
{
closed = 1;
nodes = (
"679 591 LINE",
"679 673 LINE",
"376 673 LINE",
"376 591 LINE"
);
}
);
};
components = (
{
alignment = -1;
name = d;
}
);
guideLines = (
{
position = "{493, 653}";
},
{
position = "{235, 561}";
}
);
layerId = "A390C1A2-E540-434D-BB9E-4BCEE875BA63";
paths = (
{
closed = 1;
nodes = (
"679 561 LINE",
"679 653 LINE",
"306 653 LINE",
"306 561 LINE"
);
}
);
width = 692;
}
);
leftKerningGroup = o;
leftMetricsKey = o;
unicode = 0111;
userData = {
com.schriftgestaltung.Glyphs.ColorIndex = 8;
};
},
{
glyphname = eth;
lastChange = "2019-05-10 10:24:02 +0000";
layers = (
{
background = {
paths = (
{
closed = 1;
nodes = (
"210 47 OFFCURVE",
"119 125 OFFCURVE",
"119 249 CURVE SMOOTH",
"119 373 OFFCURVE",
"210 451 OFFCURVE",
"310 451 CURVE SMOOTH",
"410 451 OFFCURVE",
"501 373 OFFCURVE",
"501 249 CURVE SMOOTH",
"501 125 OFFCURVE",
"410 47 OFFCURVE",
"310 47 CURVE SMOOTH"
);
}
);
};
layerId = "3B8883BF-F483-4B97-AC7C-CABF8B821093";
paths = (
{
closed = 1;
nodes = (
"457 -12 OFFCURVE",
"572 104 OFFCURVE",
"572 266 CURVE SMOOTH",
"572 443 OFFCURVE",
"498 583 OFFCURVE",
"356 700 CURVE",
"284 700 LINE",
"404 602 OFFCURVE",
"467 506 OFFCURVE",
"500 395 CURVE",
"506 393 LINE",
"465 478 OFFCURVE",
"380 508 OFFCURVE",
"304 508 CURVE SMOOTH",
"160 508 OFFCURVE",
"48 399 OFFCURVE",
"48 247 CURVE SMOOTH",
"48 104 OFFCURVE",
"157 -12 OFFCURVE",
"308 -12 CURVE SMOOTH"
);
},
{
closed = 1;
nodes = (
"210 47 OFFCURVE",
"119 125 OFFCURVE",
"119 249 CURVE SMOOTH",
"119 371 OFFCURVE",
"210 449 OFFCURVE",
"310 449 CURVE SMOOTH",
"410 449 OFFCURVE",
"501 371 OFFCURVE",
"501 249 CURVE SMOOTH",
"501 125 OFFCURVE",
"410 47 OFFCURVE",
"310 47 CURVE SMOOTH"
);
},
{
closed = 1;
nodes = (
"534 657 LINE",
"534 708 LINE",
"248 606 LINE",
"248 555 LINE"
);
}
);
width = 620;
},
{
background = {
paths = (
{
closed = 1;
nodes = (
"274 134 OFFCURVE",
"225 176 OFFCURVE",
"225 244 CURVE SMOOTH",
"225 312 OFFCURVE",
"274 354 OFFCURVE",
"332 354 CURVE SMOOTH",
"390 354 OFFCURVE",
"439 312 OFFCURVE",
"439 244 CURVE SMOOTH",
"439 176 OFFCURVE",
"390 134 OFFCURVE",
"332 134 CURVE SMOOTH"
);
}
);
};
layerId = "A390C1A2-E540-434D-BB9E-4BCEE875BA63";
paths = (
{
closed = 1;
nodes = (
"486 -12 OFFCURVE",
"614 105 OFFCURVE",
"614 306 CURVE SMOOTH",
"614 417 OFFCURVE",
"558 589 OFFCURVE",
"432 700 CURVE",
"275 700 LINE",
"353 630 OFFCURVE",
"429 511 OFFCURVE",
"450 406 CURVE",
"478 445 LINE",
"420 480 OFFCURVE",
"378 499 OFFCURVE",
"314 499 CURVE SMOOTH",
"162 499 OFFCURVE",
"50 391 OFFCURVE",
"50 245 CURVE SMOOTH",
"50 99 OFFCURVE",
"165 -12 OFFCURVE",
"327 -12 CURVE SMOOTH"
);
},
{
closed = 1;
nodes = (
"274 134 OFFCURVE",
"225 176 OFFCURVE",
"225 244 CURVE SMOOTH",
"225 312 OFFCURVE",
"274 354 OFFCURVE",
"332 354 CURVE SMOOTH",
"390 354 OFFCURVE",
"439 312 OFFCURVE",
"439 244 CURVE SMOOTH",
"439 176 OFFCURVE",
"390 134 OFFCURVE",
"332 134 CURVE SMOOTH"
);
},
{
closed = 1;
nodes = (
"571 613 LINE",
"571 710 LINE",
"276 620 LINE",
"276 523 LINE"
);
}
);
width = 664;
}
);
leftKerningGroup = o;
leftMetricsKey = o;
rightMetricsKey = o;
unicode = 00F0;
userData = {
com.schriftgestaltung.Glyphs.ColorIndex = 4;
};
},
{
glyphname = e;
lastChange = "2023-03-02 14:18:37 +0000";
layers = (
{
anchors = (
{
name = bottom;
position = "{283, -1}";
},
{
name = ogonek;
position = "{391, 12}";
},
{
name = top;
position = "{287, 496}";
}
);
background = {
paths = (
{
closed = 1;
nodes = (
"404 -12 OFFCURVE",
"479 55 OFFCURVE",
"504 146 CURVE",
"436 146 LINE",
"414 85 OFFCURVE",
"362 48 OFFCURVE",
"288 48 CURVE SMOOTH",
"202 48 OFFCURVE",
"116 112 OFFCURVE",
"116 247 CURVE SMOOTH",
"116 274 LINE SMOOTH",
"116 387 OFFCURVE",
"196 448 OFFCURVE",
"287 448 CURVE SMOOTH",
"378 448 OFFCURVE",
"446 390 OFFCURVE",
"450 293 CURVE",
"102 293 LINE",
"102 233 LINE",
"517 233 LINE",
"518 252 OFFCURVE",
"518 265 OFFCURVE",
"518 279 CURVE SMOOTH",
"518 398 OFFCURVE",
"434 508 OFFCURVE",
"290 508 CURVE SMOOTH",
"147 508 OFFCURVE",
"48 407 OFFCURVE",
"48 249 CURVE SMOOTH",
"48 91 OFFCURVE",
"148 -12 OFFCURVE",
"288 -12 CURVE SMOOTH"
);
}
);
};
layerId = "3B8883BF-F483-4B97-AC7C-CABF8B821093";
paths = (
{
closed = 1;
nodes = (
"404 -12 OFFCURVE",
"479 55 OFFCURVE",
"504 146 CURVE",
"436 146 LINE",
"414 85 OFFCURVE",
"362 48 OFFCURVE",
"288 48 CURVE SMOOTH",
"202 48 OFFCURVE",
"116 112 OFFCURVE",
"116 247 CURVE SMOOTH",
"116 274 LINE SMOOTH",
"116 387 OFFCURVE",
"196 448 OFFCURVE",
"287 448 CURVE SMOOTH",
"378 448 OFFCURVE",
"446 390 OFFCURVE",
"450 293 CURVE",
"102 293 LINE",
"102 233 LINE",
"517 233 LINE",
"518 252 OFFCURVE",
"518 265 OFFCURVE",
"518 279 CURVE SMOOTH",
"518 398 OFFCURVE",
"434 508 OFFCURVE",
"290 508 CURVE SMOOTH",
"147 508 OFFCURVE",
"48 407 OFFCURVE",
"48 249 CURVE SMOOTH",
"48 91 OFFCURVE",
"148 -12 OFFCURVE",
"288 -12 CURVE SMOOTH"
);
}
);
width = 560;
},
{
anchors = (
{
name = bottom;
position = "{316, -4}";
},
{
name = ogonek;
position = "{418, 11}";
},
{
name = top;
position = "{318, 496}";
}
);
background = {
paths = (
{
closed = 1;
nodes = (
"440 -12 OFFCURVE",
"536 65 OFFCURVE",
"567 164 CURVE",
"391 164 LINE",
"376 143 OFFCURVE",
"352 126 OFFCURVE",
"318 126 CURVE SMOOTH",
"253 126 OFFCURVE",
"219 170 OFFCURVE",
"219 220 CURVE SMOOTH",
"219 250 LINE SMOOTH",
"219 333 OFFCURVE",
"262 372 OFFCURVE",
"321 372 CURVE SMOOTH",
"368 372 OFFCURVE",
"403 341 OFFCURVE",
"407 300 CURVE",
"170 300 LINE",
"170 205 LINE",
"579 205 LINE",
"581 222 OFFCURVE",
"582 240 OFFCURVE",
"582 254 CURVE SMOOTH",
"582 405 OFFCURVE",
"468 508 OFFCURVE",
"319 508 CURVE SMOOTH",
"156 508 OFFCURVE",
"50 393 OFFCURVE",
"50 240 CURVE SMOOTH",
"50 92 OFFCURVE",
"160 -12 OFFCURVE",
"320 -12 CURVE SMOOTH"
);
}
);
};
layerId = "A390C1A2-E540-434D-BB9E-4BCEE875BA63";
paths = (
{
closed = 1;
nodes = (
"440 -12 OFFCURVE",
"536 65 OFFCURVE",
"567 164 CURVE",
"391 164 LINE",
"376 143 OFFCURVE",
"352 126 OFFCURVE",
"318 126 CURVE SMOOTH",
"253 126 OFFCURVE",
"219 170 OFFCURVE",
"219 220 CURVE SMOOTH",
"219 250 LINE SMOOTH",
"219 333 OFFCURVE",
"262 372 OFFCURVE",
"321 372 CURVE SMOOTH",
"368 372 OFFCURVE",
"403 341 OFFCURVE",
"407 300 CURVE",
"170 300 LINE",
"170 205 LINE",
"579 205 LINE",
"581 222 OFFCURVE",
"582 240 OFFCURVE",
"582 254 CURVE SMOOTH",
"582 405 OFFCURVE",
"468 508 OFFCURVE",
"319 508 CURVE SMOOTH",
"156 508 OFFCURVE",
"50 393 OFFCURVE",
"50 240 CURVE SMOOTH",
"50 92 OFFCURVE",
"160 -12 OFFCURVE",
"320 -12 CURVE SMOOTH"
);
}
);
width = 626;
}
);
leftKerningGroup = o;
leftMetricsKey = o;
rightKerningGroup = e;
unicode = 0065;
userData = {
com.schriftgestaltung.Glyphs.ColorIndex = 4;
com.typemytype.robofont.layerData = {
b = {
anchors = (
{
name = top;
x = 314;
y = 540;
},
{
name = ogonek;
x = 442;
y = 45;
},
{
name = bottom;
x = 314;
y = 0;
}
);
components = (
);
contours = (
{
points = (
{
segmentType = line;
smooth = 0;
x = 54;
y = 261;
},
{
segmentType = line;
smooth = 0;
x = 564;
y = 261;
},
{
smooth = 0;
x = 567;
y = 280;
},
{
smooth = 0;
x = 568;
y = 298;
},
{
segmentType = curve;
smooth = 1;
x = 568;
y = 315;
},
{
smooth = 0;
x = 568;
y = 434;
},
{
smooth = 0;
x = 482;
y = 552;
},
{
segmentType = curve;
smooth = 1;
x = 330;
y = 552;
},
{
smooth = 0;
x = 164;
y = 552;
},
{
smooth = 0;
x = 60;
y = 438;
},
{
segmentType = curve;
smooth = 1;
x = 60;
y = 270;
},
{
smooth = 0;
x = 60;
y = 103;
},
{
smooth = 0;
x = 164;
y = -12;
},
{
segmentType = curve;
smooth = 1;
x = 316;
y = -12;
},
{
smooth = 0;
x = 451;
y = -12;
},
{
smooth = 0;
x = 516;
y = 66;
},
{
segmentType = curve;
smooth = 0;
x = 548;
y = 137;
},
{
segmentType = line;
smooth = 0;
x = 528;
y = 137;
},
{
smooth = 0;
x = 505;
y = 60;
},
{
smooth = 0;
x = 424;
y = -1;
},
{
segmentType = curve;
smooth = 1;
x = 316;
y = -1;
},
{
smooth = 0;
x = 186;
y = -1;
},
{
smooth = 0;
x = 81;
y = 93;
},
{
segmentType = curve;
smooth = 1;
x = 81;
y = 269;
},
{
segmentType = line;
smooth = 1;
x = 81;
y = 274;
},
{
smooth = 0;
x = 81;
y = 447;
},
{
smooth = 0;
x = 183;
y = 541;
},
{
segmentType = curve;
smooth = 1;
x = 316;
y = 541;
},
{
smooth = 0;
x = 448;
y = 541;
},
{
smooth = 0;
x = 551;
y = 448;
},
{
segmentType = curve;
smooth = 0;
x = 549;
y = 290;
},
{
segmentType = line;
smooth = 0;
x = 53;
y = 290;
}
);
}
);
lib = {
};
name = e;
unicodes = (
);
width = 628;
};
};
com.typesupply.AccentFactory.yCoordinates = {
bottom = {
name = origin;
type = glyphMetric;
};
top = {
name = xHeight;
type = fontInfo;
};
};
};
},
{
glyphname = schwa;
lastChange = "2019-10-15 13:37:32 +0000";
layers = (
{
anchors = (
{
name = bottom;
position = "{273, 0}";
},
{
name = ogonek;
position = "{169, 484}";
},
{
name = top;
position = "{277, 497}";
}
);
background = {
components = (
{
name = e;
transform = "{-1, 0, 0, -1, 622, 518}";
}
);
};
layerId = "3B8883BF-F483-4B97-AC7C-CABF8B821093";
paths = (
{
closed = 1;
nodes = (
"413 -12 OFFCURVE",
"512 89 OFFCURVE",
"512 247 CURVE SMOOTH",
"512 405 OFFCURVE",
"412 508 OFFCURVE",
"272 508 CURVE SMOOTH",
"156 508 OFFCURVE",
"81 441 OFFCURVE",
"56 350 CURVE",
"124 350 LINE",
"146 411 OFFCURVE",
"198 448 OFFCURVE",
"272 448 CURVE SMOOTH",
"358 448 OFFCURVE",
"444 384 OFFCURVE",
"444 249 CURVE SMOOTH",
"444 222 LINE SMOOTH",
"444 109 OFFCURVE",
"364 48 OFFCURVE",
"273 48 CURVE SMOOTH",
"182 48 OFFCURVE",
"114 106 OFFCURVE",
"110 203 CURVE",
"458 203 LINE",
"458 263 LINE",
"43 263 LINE",
"42 244 OFFCURVE",
"42 231 OFFCURVE",
"42 217 CURVE SMOOTH",
"42 98 OFFCURVE",
"126 -12 OFFCURVE",
"270 -12 CURVE SMOOTH"
);
}
);
width = 560;
},
{
anchors = (
{
name = bottom;
position = "{308, 0}";
},
{
name = ogonek;
position = "{208, 485}";
},
{
name = top;
position = "{310, 500}";
}
);
background = {
components = (
{
name = e;
transform = "{-1, 0, 0, -1, 616, 530}";
}
);
};
layerId = "A390C1A2-E540-434D-BB9E-4BCEE875BA63";
paths = (
{
closed = 1;
nodes = (
"470 -12 OFFCURVE",
"576 103 OFFCURVE",
"576 256 CURVE SMOOTH",
"576 404 OFFCURVE",
"466 508 OFFCURVE",
"306 508 CURVE SMOOTH",
"186 508 OFFCURVE",
"90 431 OFFCURVE",
"59 332 CURVE",
"235 332 LINE",
"250 353 OFFCURVE",
"274 370 OFFCURVE",
"308 370 CURVE SMOOTH",
"373 370 OFFCURVE",
"407 326 OFFCURVE",
"407 276 CURVE SMOOTH",
"407 246 LINE SMOOTH",
"407 163 OFFCURVE",
"364 124 OFFCURVE",
"305 124 CURVE SMOOTH",
"258 124 OFFCURVE",
"223 155 OFFCURVE",
"219 196 CURVE",
"456 196 LINE",
"456 291 LINE",
"47 291 LINE",
"45 274 OFFCURVE",
"44 256 OFFCURVE",
"44 242 CURVE SMOOTH",
"44 91 OFFCURVE",
"158 -12 OFFCURVE",
"307 -12 CURVE SMOOTH"
);
}
);
width = 626;
}
);
leftKerningGroup = o;
rightKerningGroup = o;
unicode = 0259;
},
{
glyphname = f;
lastChange = "2019-05-16 16:15:23 +0000";
layers = (
{
background = {
paths = (
{
closed = 1;
nodes = (
"168 0 LINE",
"168 584 LINE SMOOTH",
"168 663 OFFCURVE",
"198 697 OFFCURVE",
"291 697 CURVE",
"291 757 LINE",
"153 757 OFFCURVE",
"98 701 OFFCURVE",
"98 584 CURVE SMOOTH",
"98 0 LINE"
);
},
{
closed = 1;
nodes = (
"295 487 LINE",
"295 546 LINE",
"22 546 LINE",
"22 487 LINE"
);
}
);
};
layerId = "3B8883BF-F483-4B97-AC7C-CABF8B821093";
paths = (
{
closed = 1;
nodes = (
"168 0 LINE",
"168 588 LINE SMOOTH",
"168 641 OFFCURVE",
"189 660 OFFCURVE",
"241 660 CURVE SMOOTH",
"279 660 LINE",
"279 720 LINE",
"230 720 LINE SMOOTH",
"142 720 OFFCURVE",
"98 679 OFFCURVE",
"98 591 CURVE SMOOTH",
"98 0 LINE"
);
},
{
closed = 1;
nodes = (
"295 436 LINE",
"295 496 LINE",
"22 496 LINE",
"22 436 LINE"
);
}
);
width = 325;
},
{
background = {
paths = (
{
closed = 1;
nodes = (
"251 0 LINE",
"251 563 LINE SMOOTH",
"251 622 OFFCURVE",
"274 642 OFFCURVE",
"340 638 CURVE",
"340 783 LINE",
"170 792 OFFCURVE",
"80 720 OFFCURVE",
"80 574 CURVE SMOOTH",
"80 0 LINE"
);
},
{
closed = 1;
nodes = (
"343 416 LINE",
"343 558 LINE",
"18 558 LINE",
"18 416 LINE"
);
}
);
};
layerId = "A390C1A2-E540-434D-BB9E-4BCEE875BA63";
paths = (
{
closed = 1;
nodes = (
"251 0 LINE",
"251 528 LINE SMOOTH",
"251 561 OFFCURVE",
"265 575 OFFCURVE",
"303 575 CURVE SMOOTH",
"336 575 LINE",
"336 720 LINE",
"277 720 LINE SMOOTH",
"161 720 OFFCURVE",
"80 671 OFFCURVE",
"80 526 CURVE SMOOTH",
"80 0 LINE"
);
},
{
closed = 1;
nodes = (
"343 354 LINE",
"343 496 LINE",
"18 496 LINE",
"18 354 LINE"
);
}
);
width = 385;
}
);
unicode = 0066;
userData = {
com.schriftgestaltung.Glyphs.ColorIndex = 4;
com.typemytype.robofont.layerData = {
b = {
anchors = (
);
components = (
);
contours = (
{
points = (
{
segmentType = line;
smooth = 0;
x = 108;
y = 0;
},
{
segmentType = line;
smooth = 0;
x = 128;
y = 0;
},
{
segmentType = line;
smooth = 1;
x = 128;
y = 609;
},
{
smooth = 0;
x = 128;
y = 701;
},
{
smooth = 0;
x = 162;
y = 742;
},
{
segmentType = curve;
smooth = 0;
x = 275;
y = 742;
},
{
segmentType = line;
smooth = 0;
x = 275;
y = 753;
},
{
smooth = 0;
x = 158;
y = 753;
},
{
smooth = 0;
x = 108;
y = 711;
},
{
segmentType = curve;
smooth = 1;
x = 108;
y = 609;
}
);
}
);
lib = {
};
name = f;
unicodes = (
);
width = 318;
};
};
com.typesupply.AccentFactory.yCoordinates = {
bottom = {
name = origin;
type = glyphMetric;
};
top = {
name = ascender;
type = fontInfo;
};
};
};
},
{
glyphname = g;
lastChange = "2019-05-16 15:30:45 +0000";
layers = (
{
anchors = (
{
name = top;
position = "{262, 496}";
}
);
background = {
paths = (
{
closed = 1;
nodes = (
"414 -232 OFFCURVE",
"482 -145 OFFCURVE",
"482 -63 CURVE SMOOTH",
"482 7 OFFCURVE",
"441 64 OFFCURVE",
"325 87 CURVE SMOOTH",
"107 131 LINE",
"109 93 LINE",
"200 187 LINE",
"136 211 LINE",
"52 115 LINE",
"52 76 LINE",
"279 32 LINE SMOOTH",
"387 11 OFFCURVE",
"410 -17 OFFCURVE",
"410 -64 CURVE SMOOTH",
"410 -129 OFFCURVE",
"352 -172 OFFCURVE",
"264 -172 CURVE SMOOTH",
"173 -172 OFFCURVE",
"108 -141 OFFCURVE",
"108 -69 CURVE SMOOTH",
"108 -32 OFFCURVE",
"125 24 OFFCURVE",
"205 57 CURVE",
"147 80 LINE",
"58 38 OFFCURVE",
"36 -30 OFFCURVE",
"36 -76 CURVE SMOOTH",
"36 -186 OFFCURVE",
"131 -232 OFFCURVE",
"264 -232 CURVE SMOOTH"
);
},
{
closed = 1;
nodes = (
"381 158 OFFCURVE",
"457 236 OFFCURVE",
"457 333 CURVE SMOOTH",
"457 430 OFFCURVE",
"381 508 OFFCURVE",
"262 508 CURVE SMOOTH",
"142 508 OFFCURVE",
"66 430 OFFCURVE",
"66 333 CURVE SMOOTH",
"66 236 OFFCURVE",
"142 158 OFFCURVE",
"262 158 CURVE SMOOTH"
);
},
{
closed = 1;
nodes = (
"191 218 OFFCURVE",
"137 259 OFFCURVE",
"137 333 CURVE SMOOTH",
"137 407 OFFCURVE",
"191 448 OFFCURVE",
"262 448 CURVE SMOOTH",
"332 448 OFFCURVE",
"386 407 OFFCURVE",
"386 333 CURVE SMOOTH",
"386 259 OFFCURVE",
"332 218 OFFCURVE",
"262 218 CURVE SMOOTH"
);
},
{
closed = 1;
nodes = (
"521 436 LINE",
"521 496 LINE",
"316 496 LINE",
"342 436 LINE"
);
}
);
};
guideLines = (
{
position = "{294, 312}";
}
);
layerId = "3B8883BF-F483-4B97-AC7C-CABF8B821093";
paths = (
{
closed = 1;
nodes = (
"414 -232 OFFCURVE",
"482 -147 OFFCURVE",
"482 -61 CURVE SMOOTH",
"482 21 OFFCURVE",
"431 76 OFFCURVE",
"297 86 CURVE SMOOTH",
"154 97 OFFCURVE",
"144 107 OFFCURVE",
"115 130 CURVE",
"110 105 LINE",
"200 187 LINE",
"136 211 LINE",
"41 120 LINE",
"41 96 LINE",
"80 61 OFFCURVE",
"116 34 OFFCURVE",
"279 24 CURVE SMOOTH",
"379 18 OFFCURVE",
"410 -19 OFFCURVE",
"410 -64 CURVE SMOOTH",
"410 -129 OFFCURVE",
"352 -172 OFFCURVE",
"264 -172 CURVE SMOOTH",
"173 -172 OFFCURVE",
"108 -137 OFFCURVE",
"108 -65 CURVE SMOOTH",
"108 -36 OFFCURVE",
"120 8 OFFCURVE",
"190 41 CURVE",
"132 65 LINE",
"51 24 OFFCURVE",
"36 -34 OFFCURVE",
"36 -72 CURVE SMOOTH",
"36 -179 OFFCURVE",
"131 -232 OFFCURVE",
"264 -232 CURVE SMOOTH"
);
},
{
closed = 1;
nodes = (
"387 158 OFFCURVE",
"457 236 OFFCURVE",
"457 333 CURVE SMOOTH",
"457 430 OFFCURVE",
"387 508 OFFCURVE",
"262 508 CURVE SMOOTH",
"136 508 OFFCURVE",
"66 430 OFFCURVE",
"66 333 CURVE SMOOTH",
"66 236 OFFCURVE",
"136 158 OFFCURVE",
"262 158 CURVE SMOOTH"
);
},
{
closed = 1;
nodes = (
"185 218 OFFCURVE",
"137 259 OFFCURVE",
"137 333 CURVE SMOOTH",
"137 407 OFFCURVE",
"185 448 OFFCURVE",
"262 448 CURVE SMOOTH",
"338 448 OFFCURVE",
"386 407 OFFCURVE",
"386 333 CURVE SMOOTH",
"386 259 OFFCURVE",
"338 218 OFFCURVE",
"262 218 CURVE SMOOTH"
);
},
{
closed = 1;
nodes = (
"521 438 LINE",
"521 496 LINE",
"316 496 LINE",
"342 432 LINE"
);
}
);
width = 547;
},
{
anchors = (
{
name = top;
position = "{284, 496}";
}
);
background = {
anchors = (
{
name = top;
position = "{284, 496}";
}
);
paths = (
{
closed = 1;
nodes = (
"460 -232 OFFCURVE",
"514 -121 OFFCURVE",
"514 -60 CURVE SMOOTH",
"514 33 OFFCURVE",
"449 63 OFFCURVE",
"366 87 CURVE SMOOTH",
"175 142 LINE",
"144 45 LINE",
"280 189 LINE",
"154 223 LINE",
"74 146 LINE",
"74 60 LINE",
"300 -9 LINE SMOOTH",
"349 -24 OFFCURVE",
"366 -36 OFFCURVE",
"366 -58 CURVE SMOOTH",
"366 -87 OFFCURVE",
"332 -103 OFFCURVE",
"282 -103 CURVE SMOOTH",
"228 -103 OFFCURVE",
"189 -86 OFFCURVE",
"189 -49 CURVE SMOOTH",
"189 -8 OFFCURVE",
"222 10 OFFCURVE",
"275 25 CURVE",
"226 105 LINE",
"132 71 OFFCURVE",
"42 10 OFFCURVE",
"42 -78 CURVE SMOOTH",
"42 -188 OFFCURVE",
"140 -232 OFFCURVE",
"282 -232 CURVE SMOOTH"
);
},
{
closed = 1;
nodes = (
"410 140 OFFCURVE",
"490 222 OFFCURVE",
"490 324 CURVE SMOOTH",
"490 426 OFFCURVE",
"410 508 OFFCURVE",
"284 508 CURVE SMOOTH",
"157 508 OFFCURVE",
"77 426 OFFCURVE",
"77 324 CURVE SMOOTH",
"77 222 OFFCURVE",
"157 140 OFFCURVE",
"284 140 CURVE SMOOTH"
);
},
{
closed = 1;
nodes = (
"246 265 OFFCURVE",
"215 286 OFFCURVE",
"215 323 CURVE SMOOTH",
"215 360 OFFCURVE",
"246 381 OFFCURVE",
"284 381 CURVE SMOOTH",
"321 381 OFFCURVE",
"352 360 OFFCURVE",
"352 323 CURVE SMOOTH",
"352 286 OFFCURVE",
"321 265 OFFCURVE",
"284 265 CURVE SMOOTH"
);
},
{
closed = 1;
nodes = (
"555 396 LINE",
"555 496 LINE",
"346 496 LINE",
"366 396 LINE"
);
}
);
};
guideLines = (
{
position = "{461, 384}";
}
);
layerId = "A390C1A2-E540-434D-BB9E-4BCEE875BA63";
paths = (
{
closed = 1;
nodes = (
"440 -232 OFFCURVE",
"514 -149 OFFCURVE",
"514 -59 CURVE SMOOTH",
"514 35 OFFCURVE",
"451 83 OFFCURVE",
"321 96 CURVE SMOOTH",
"239 105 OFFCURVE",
"211 112 OFFCURVE",
"185 128 CURVE",
"128 40 LINE",
"270 189 LINE",
"159 223 LINE",
"45 94 LINE",
"45 71 LINE",
"78 35 OFFCURVE",
"171 -1 OFFCURVE",
"290 -11 CURVE SMOOTH",
"349 -16 OFFCURVE",
"362 -32 OFFCURVE",
"362 -62 CURVE SMOOTH",
"362 -91 OFFCURVE",
"328 -107 OFFCURVE",
"282 -107 CURVE SMOOTH",
"232 -107 OFFCURVE",
"189 -91 OFFCURVE",
"189 -58 CURVE SMOOTH",
"189 -23 OFFCURVE",
"222 1 OFFCURVE",
"275 15 CURVE",
"230 105 LINE",
"116 71 OFFCURVE",
"40 11 OFFCURVE",
"40 -75 CURVE SMOOTH",
"40 -179 OFFCURVE",
"133 -232 OFFCURVE",
"282 -232 CURVE SMOOTH"
);
},
{
closed = 1;
nodes = (
"410 140 OFFCURVE",
"490 222 OFFCURVE",
"490 324 CURVE SMOOTH",
"490 426 OFFCURVE",
"410 508 OFFCURVE",
"284 508 CURVE SMOOTH",
"157 508 OFFCURVE",
"77 426 OFFCURVE",
"77 324 CURVE SMOOTH",
"77 222 OFFCURVE",
"157 140 OFFCURVE",
"284 140 CURVE SMOOTH"
);
},
{
closed = 1;
nodes = (
"247 267 OFFCURVE",
"218 287 OFFCURVE",
"218 323 CURVE SMOOTH",
"218 359 OFFCURVE",
"247 379 OFFCURVE",
"284 379 CURVE SMOOTH",
"320 379 OFFCURVE",
"349 359 OFFCURVE",
"349 323 CURVE SMOOTH",
"349 287 OFFCURVE",
"320 267 OFFCURVE",
"284 267 CURVE SMOOTH"
);
},
{
closed = 1;
nodes = (
"555 404 LINE",
"555 496 LINE",
"346 496 LINE",
"366 384 LINE"
);
}
);
width = 585;
}
);
leftKerningGroup = g;
rightKerningGroup = g;
unicode = 0067;
userData = {
com.schriftgestaltung.Glyphs.ColorIndex = 4;
com.typesupply.AccentFactory.yCoordinates = {
top = {
name = xHeight;
type = fontInfo;
};
};
};
},
{
glyphname = gcommaaccent;
lastChange = "2019-05-10 10:24:02 +0000";
layers = (
{
background = {
components = (
{
alignment = -1;
name = g.ss03;
transform = "{1, 0, 0, 1, -70, 0}";
}
);
paths = (
{
closed = 1;
nodes = (
"303 595 LINE",
"303 672 LINE",
"257 672 LINE",
"257 696 LINE SMOOTH",
"257 730 OFFCURVE",
"270 747 OFFCURVE",
"304 747 CURVE",
"304 783 LINE",
"246 783 OFFCURVE",
"213 754 OFFCURVE",
"213 680 CURVE SMOOTH",
"213 656 OFFCURVE",
"216 628 OFFCURVE",
"222 595 CURVE"
);
}
);
};
components = (
{
name = g;
}
);
layerId = "3B8883BF-F483-4B97-AC7C-CABF8B821093";
paths = (
{
closed = 1;
nodes = (
"303 595 LINE",
"303 672 LINE",
"257 672 LINE",
"257 696 LINE SMOOTH",
"257 730 OFFCURVE",
"270 747 OFFCURVE",
"304 747 CURVE",
"304 783 LINE",
"246 783 OFFCURVE",
"213 754 OFFCURVE",
"213 680 CURVE SMOOTH",
"213 656 OFFCURVE",
"216 628 OFFCURVE",
"222 595 CURVE"
);
}
);
width = 547;
},
{
background = {
components = (
{
alignment = -1;
name = g.ss03;
transform = "{1, 0, 0, 1, -40, 0}";
}
);
paths = (
{
closed = 1;
nodes = (
"377 598 LINE",
"377 721 LINE",
"314 721 LINE",
"314 737 LINE SMOOTH",
"314 782 OFFCURVE",
"332 803 OFFCURVE",
"366 803 CURVE",
"366 868 LINE",
"271 868 OFFCURVE",
"226 806 OFFCURVE",
"226 716 CURVE SMOOTH",
"226 680 OFFCURVE",
"232 640 OFFCURVE",
"246 598 CURVE"
);
}
);
};
components = (
{
name = g;
}
);
layerId = "A390C1A2-E540-434D-BB9E-4BCEE875BA63";
paths = (
{
closed = 1;
nodes = (
"377 598 LINE",
"377 721 LINE",
"314 721 LINE",
"314 737 LINE SMOOTH",
"314 782 OFFCURVE",
"332 803 OFFCURVE",
"366 803 CURVE",
"366 868 LINE",
"271 868 OFFCURVE",
"226 806 OFFCURVE",
"226 716 CURVE SMOOTH",
"226 680 OFFCURVE",
"232 640 OFFCURVE",
"246 598 CURVE"
);
}
);
width = 585;
}
);
leftKerningGroup = g;
leftMetricsKey = g;
rightKerningGroup = g;
rightMetricsKey = g;
unicode = 0123;
userData = {
com.schriftgestaltung.Glyphs.ColorIndex = 8;
com.typesupply.AccentFactory.compileType = manual;
};
},
{
glyphname = h;
lastChange = "2019-05-10 10:24:02 +0000";
layers = (
{
anchors = (
{
name = bottom;
position = "{282, 0}";
},
{
name = center;
position = "{279, 360}";
},
{
name = top;
position = "{108, 720}";
}
);
background = {
paths = (
{
closed = 1;
nodes = (
"560 0 LINE",
"560 320 LINE SMOOTH",
"560 480 OFFCURVE",
"463 556 OFFCURVE",
"342 556 CURVE",
"236 556 OFFCURVE",
"148 498 OFFCURVE",
"132 389 CURVE",
"152 298 LINE",
"152 431 OFFCURVE",
"223 495 OFFCURVE",
"325 495 CURVE",
"425 495 OFFCURVE",
"491 433 OFFCURVE",
"491 312 CURVE SMOOTH",
"491 0 LINE"
);
},
{
closed = 1;
nodes = (
"152 0 LINE",
"152 740 LINE",
"82 740 LINE",
"82 0 LINE"
);
}
);
};
layerId = "3B8883BF-F483-4B97-AC7C-CABF8B821093";
paths = (
{
closed = 1;
nodes = (
"502 0 LINE",
"502 293 LINE SMOOTH",
"502 441 OFFCURVE",
"425 508 OFFCURVE",
"313 508 CURVE SMOOTH",
"221 508 OFFCURVE",
"136 447 OFFCURVE",
"120 349 CURVE",
"140 257 LINE",
"140 380 OFFCURVE",
"211 447 OFFCURVE",
"302 447 CURVE SMOOTH",
"388 447 OFFCURVE",
"433 394 OFFCURVE",
"433 285 CURVE SMOOTH",
"433 0 LINE"
);
},
{
closed = 1;
nodes = (
"140 0 LINE",
"140 720 LINE",
"70 720 LINE",
"70 0 LINE"
);
}
);
width = 560;
},
{
anchors = (
{
name = bottom;
position = "{327, 0}";
},
{
name = center;
position = "{327, 360}";
},
{
name = top;
position = "{146, 720}";
}
);
background = {
paths = (
{
closed = 1;
nodes = (
"617 0 LINE",
"617 326 LINE SMOOTH",
"617 476 OFFCURVE",
"532 564 OFFCURVE",
"405 564 CURVE SMOOTH",
"307 564 OFFCURVE",
"236 511 OFFCURVE",
"211 442 CURVE",
"233 303 LINE",
"233 379 OFFCURVE",
"275 421 OFFCURVE",
"340 421 CURVE SMOOTH",
"405 421 OFFCURVE",
"447 379 OFFCURVE",
"447 303 CURVE SMOOTH",
"447 0 LINE"
);
},
{
closed = 1;
nodes = (
"233 0 LINE",
"233 740 LINE",
"62 740 LINE",
"62 0 LINE"
);
}
);
};
layerId = "A390C1A2-E540-434D-BB9E-4BCEE875BA63";
paths = (
{
closed = 1;
nodes = (
"587 0 LINE",
"587 270 LINE SMOOTH",
"587 420 OFFCURVE",
"521 508 OFFCURVE",
"392 508 CURVE SMOOTH",
"296 508 OFFCURVE",
"236 455 OFFCURVE",
"211 386 CURVE",
"233 255 LINE",
"233 323 OFFCURVE",
"272 365 OFFCURVE",
"329 365 CURVE SMOOTH",
"394 365 OFFCURVE",
"417 323 OFFCURVE",
"417 255 CURVE SMOOTH",
"417 0 LINE"
);
},
{
closed = 1;
nodes = (
"233 0 LINE",
"233 720 LINE",
"62 720 LINE",
"62 0 LINE"
);
}
);
width = 643;
}
);
leftKerningGroup = l;
leftMetricsKey = l;
rightKerningGroup = n;
rightMetricsKey = n;
unicode = 0068;
userData = {
com.schriftgestaltung.Glyphs.ColorIndex = 4;
com.typesupply.AccentFactory.yCoordinates = {
bottom = {
name = origin;
type = glyphMetric;
};
top = {
name = ascender;
type = fontInfo;
};
};
};
},
{
glyphname = i;
lastChange = "2019-05-10 10:24:02 +0000";
layers = (
{
anchors = (
{
name = ogonek;
position = "{150, 1}";
}
);
background = {
anchors = (
{
name = ogonek;
position = "{150, 1}";
}
);
paths = (
{
closed = 1;
nodes = (
"150 0 LINE",
"150 518 LINE",
"80 518 LINE",
"80 0 LINE"
);
},
{
closed = 1;
nodes = (
"143 605 OFFCURVE",
"166 627 OFFCURVE",
"166 657 CURVE SMOOTH",
"166 687 OFFCURVE",
"143 708 OFFCURVE",
"115 708 CURVE SMOOTH",
"87 708 OFFCURVE",
"64 687 OFFCURVE",
"64 657 CURVE SMOOTH",
"64 627 OFFCURVE",
"87 605 OFFCURVE",
"115 605 CURVE SMOOTH"
);
}
);
};
layerId = "3B8883BF-F483-4B97-AC7C-CABF8B821093";
paths = (
{
closed = 1;
nodes = (
"150 0 LINE",
"150 496 LINE",
"80 496 LINE",
"80 0 LINE"
);
},
{
closed = 1;
nodes = (
"143 617 OFFCURVE",
"166 639 OFFCURVE",
"166 669 CURVE SMOOTH",
"166 699 OFFCURVE",
"143 720 OFFCURVE",
"115 720 CURVE SMOOTH",
"87 720 OFFCURVE",
"64 699 OFFCURVE",
"64 669 CURVE SMOOTH",
"64 639 OFFCURVE",
"87 617 OFFCURVE",
"115 617 CURVE SMOOTH"
);
}
);
width = 230;
},
{
anchors = (
{
name = ogonek;
position = "{233, 0}";
}
);
background = {
anchors = (
{
name = ogonek;
position = "{233, 0}";
}
);
paths = (
{
closed = 1;
nodes = (
"233 0 LINE",
"233 530 LINE",
"62 530 LINE",
"62 0 LINE"
);
},
{
closed = 1;
nodes = (
"208 578 OFFCURVE",
"249 619 OFFCURVE",
"249 670 CURVE SMOOTH",
"249 722 OFFCURVE",
"208 763 OFFCURVE",
"148 763 CURVE SMOOTH",
"87 763 OFFCURVE",
"46 722 OFFCURVE",
"46 670 CURVE SMOOTH",
"46 619 OFFCURVE",
"87 578 OFFCURVE",
"148 578 CURVE SMOOTH"
);
}
);
};
guideLines = (
{
position = "{182, 578}";
}
);
layerId = "A390C1A2-E540-434D-BB9E-4BCEE875BA63";
paths = (
{
closed = 1;
nodes = (
"233 0 LINE",
"233 496 LINE",
"62 496 LINE",
"62 0 LINE"
);
},
{
closed = 1;
nodes = (
"209 541 OFFCURVE",
"250 579 OFFCURVE",
"250 630 CURVE SMOOTH",
"250 682 OFFCURVE",
"209 720 OFFCURVE",
"148 720 CURVE SMOOTH",
"88 720 OFFCURVE",
"47 682 OFFCURVE",
"47 630 CURVE SMOOTH",
"47 579 OFFCURVE",
"88 541 OFFCURVE",
"148 541 CURVE SMOOTH"
);
}
);
width = 295;
}
);
leftKerningGroup = i;
rightKerningGroup = i;
unicode = 0069;
userData = {
com.schriftgestaltung.Glyphs.ColorIndex = 4;
com.typemytype.robofont.guides = (
{
angle = 0;
isGlobal = 0;
magnetic = 5;
x = 82;
y = 540;
}
);
com.typesupply.AccentFactory.yCoordinates = {
bottom = {
name = origin;
type = glyphMetric;
};
};
};
},
{
glyphname = idotless;
lastChange = "2019-05-20 09:32:58 +0000";
layers = (
{
anchors = (
{
name = ogonek;
position = "{140, 0}";
},
{
name = top;
position = "{105, 496}";
}
);
background = {
anchors = (
{
name = ogonek;
position = "{193, 10}";
},
{
name = top;
position = "{105, 546}";
}
);
paths = (
{
closed = 1;
nodes = (
"140 0 LINE",
"140 546 LINE",
"70 546 LINE",
"70 0 LINE"
);
}
);
};
layerId = "3B8883BF-F483-4B97-AC7C-CABF8B821093";
paths = (
{
closed = 1;
nodes = (
"140 0 LINE",
"140 496 LINE",
"70 496 LINE",
"70 0 LINE"
);
}
);
width = 210;
},
{
anchors = (
{
name = ogonek;
position = "{233, 0}";
},
{
name = top;
position = "{148, 496}";
}
);
background = {
anchors = (
{
name = ogonek;
position = "{276, 10}";
},
{
name = top;
position = "{148, 558}";
}
);
paths = (
{
closed = 1;
nodes = (
"233 0 LINE",
"233 558 LINE",
"62 558 LINE",
"62 0 LINE"
);
}
);
};
layerId = "A390C1A2-E540-434D-BB9E-4BCEE875BA63";
paths = (
{
closed = 1;
nodes = (
"233 0 LINE",
"233 496 LINE",
"62 496 LINE",
"62 0 LINE"
);
}
);
width = 295;
}
);
leftKerningGroup = n;
leftMetricsKey = n;
rightKerningGroup = u;
rightMetricsKey = u;
unicode = 0131;
userData = {
com.schriftgestaltung.Glyphs.ColorIndex = 4;
com.typesupply.AccentFactory.yCoordinates = {
bottom = {
name = origin;
type = glyphMetric;
};
top = {
name = xHeight;
type = fontInfo;
};
};
};
},
{
glyphname = j;
lastChange = "2019-05-10 10:24:02 +0000";
layers = (
{
background = {
paths = (
{
closed = 1;
nodes = (
"102 -232 OFFCURVE",
"154 -191 OFFCURVE",
"154 -88 CURVE SMOOTH",
"154 496 LINE",
"84 496 LINE",
"84 -87 LINE SMOOTH",
"84 -147 OFFCURVE",
"57 -172 OFFCURVE",
"16 -172 CURVE SMOOTH",
"-6 -172 OFFCURVE",
"-27 -168 OFFCURVE",
"-44 -161 CURVE",
"-44 -221 LINE",
"-23 -228 OFFCURVE",
"0 -232 OFFCURVE",
"25 -232 CURVE SMOOTH"
);
},
{
closed = 1;
nodes = (
"148 617 OFFCURVE",
"170 639 OFFCURVE",
"170 669 CURVE SMOOTH",
"170 699 OFFCURVE",
"148 720 OFFCURVE",
"120 720 CURVE SMOOTH",
"92 720 OFFCURVE",
"69 699 OFFCURVE",
"69 669 CURVE SMOOTH",
"69 639 OFFCURVE",
"92 617 OFFCURVE",
"120 617 CURVE SMOOTH"
);
}
);
};
layerId = "3B8883BF-F483-4B97-AC7C-CABF8B821093";
paths = (
{
closed = 1;
nodes = (
"22 -220 LINE SMOOTH",
"110 -220 OFFCURVE",
"154 -179 OFFCURVE",
"154 -91 CURVE SMOOTH",
"154 496 LINE",
"84 496 LINE",
"84 -88 LINE SMOOTH",
"84 -141 OFFCURVE",
"63 -160 OFFCURVE",
"11 -160 CURVE SMOOTH",
"-27 -160 LINE",
"-27 -220 LINE"
);
},
{
closed = 1;
nodes = (
"148 617 OFFCURVE",
"170 639 OFFCURVE",
"170 669 CURVE SMOOTH",
"170 699 OFFCURVE",
"148 720 OFFCURVE",
"120 720 CURVE SMOOTH",
"92 720 OFFCURVE",
"69 699 OFFCURVE",
"69 669 CURVE SMOOTH",
"69 639 OFFCURVE",
"92 617 OFFCURVE",
"120 617 CURVE SMOOTH"
);
}
);
width = 234;
},
{
background = {
paths = (
{
closed = 1;
nodes = (
"152 -232 OFFCURVE",
"233 -183 OFFCURVE",
"233 -38 CURVE SMOOTH",
"233 496 LINE",
"62 496 LINE",
"62 -32 LINE SMOOTH",
"62 -70 OFFCURVE",
"44 -87 OFFCURVE",
"10 -87 CURVE SMOOTH",
"-5 -87 OFFCURVE",
"-22 -82 OFFCURVE",
"-44 -68 CURVE",
"-83 -195 LINE",
"-34 -223 OFFCURVE",
"7 -232 OFFCURVE",
"46 -232 CURVE SMOOTH"
);
},
{
closed = 1;
nodes = (
"207 576 OFFCURVE",
"248 617 OFFCURVE",
"248 668 CURVE SMOOTH",
"248 720 OFFCURVE",
"207 761 OFFCURVE",
"147 761 CURVE SMOOTH",
"86 761 OFFCURVE",
"45 720 OFFCURVE",
"45 668 CURVE SMOOTH",
"45 617 OFFCURVE",
"86 576 OFFCURVE",
"147 576 CURVE SMOOTH"
);
}
);
};
guideLines = (
{
position = "{182, 578}";
}
);
layerId = "A390C1A2-E540-434D-BB9E-4BCEE875BA63";
paths = (
{
closed = 1;
nodes = (
"36 -220 LINE SMOOTH",
"152 -220 OFFCURVE",
"233 -171 OFFCURVE",
"233 -26 CURVE SMOOTH",
"233 496 LINE",
"62 496 LINE",
"62 -28 LINE SMOOTH",
"62 -61 OFFCURVE",
"48 -75 OFFCURVE",
"10 -75 CURVE SMOOTH",
"-31 -75 LINE",
"-31 -220 LINE"
);
},
{
closed = 1;
nodes = (
"209 541 OFFCURVE",
"250 579 OFFCURVE",
"250 630 CURVE SMOOTH",
"250 682 OFFCURVE",
"209 720 OFFCURVE",
"148 720 CURVE SMOOTH",
"88 720 OFFCURVE",
"47 682 OFFCURVE",
"47 630 CURVE SMOOTH",
"47 579 OFFCURVE",
"88 541 OFFCURVE",
"148 541 CURVE SMOOTH"
);
}
);
width = 294;
}
);
unicode = 006A;
userData = {
com.schriftgestaltung.Glyphs.ColorIndex = 4;
com.typesupply.AccentFactory.yCoordinates = {
bottom = {
name = origin;
type = glyphMetric;
};
};
};
},
{
glyphname = k;
lastChange = "2019-05-10 10:24:02 +0000";
layers = (
{
anchors = (
{
name = bottom;
position = "{233, 0}";
}
);
background = {
paths = (
{
closed = 1;
nodes = (
"452 0 LINE",
"177 297 LINE",
"176 250 LINE",
"425 496 LINE",
"338 496 LINE",
"114 273 LINE",
"361 0 LINE"
);
},
{
closed = 1;
nodes = (
"140 0 LINE",
"140 720 LINE",
"70 720 LINE",
"70 0 LINE"
);
}
);
};
layerId = "3B8883BF-F483-4B97-AC7C-CABF8B821093";
paths = (
{
closed = 1;
nodes = (
"466 0 LINE",
"191 297 LINE",
"190 250 LINE",
"439 496 LINE",
"352 496 LINE",
"128 273 LINE",
"375 0 LINE"
);
},
{
closed = 1;
nodes = (
"140 0 LINE",
"140 720 LINE",
"70 720 LINE",
"70 0 LINE"
);
}
);
width = 484;
},
{
anchors = (
{
name = bottom;
position = "{314, 0}";
}
);
background = {
paths = (
{
closed = 1;
nodes = (
"607 0 LINE",
"322 338 LINE",
"323 198 LINE",
"570 496 LINE",
"370 496 LINE",
"197 273 LINE",
"396 0 LINE"
);
},
{
closed = 1;
nodes = (
"233 0 LINE",
"233 720 LINE",
"62 720 LINE",
"62 0 LINE"
);
}
);
};
layerId = "A390C1A2-E540-434D-BB9E-4BCEE875BA63";
paths = (
{
closed = 1;
nodes = (
"619 0 LINE",
"334 338 LINE",
"335 198 LINE",
"582 496 LINE",
"382 496 LINE",
"209 273 LINE",
"408 0 LINE"
);
},
{
closed = 1;
nodes = (
"233 0 LINE",
"233 720 LINE",
"62 720 LINE",
"62 0 LINE"
);
}
);
width = 630;
}
);
leftKerningGroup = l;
leftMetricsKey = l;
rightKerningGroup = k;
unicode = 006B;
userData = {
com.schriftgestaltung.Glyphs.ColorIndex = 4;
com.typemytype.robofont.guides = (
{
angle = 0;
isGlobal = 0;
magnetic = 5;
x = 86;
y = 740;
}
);
com.typesupply.AccentFactory.yCoordinates = {
bottom = {
name = origin;
type = glyphMetric;
};
top = {
name = ascender;
type = fontInfo;
};
};
};
},
{
glyphname = kcommaaccent;
lastChange = "2019-05-10 10:24:02 +0000";
layers = (
{
background = {
components = (
{
alignment = -1;
name = k;
}
);
paths = (
{
closed = 1;
nodes = (
"254 -226 OFFCURVE",
"288 -197 OFFCURVE",
"288 -119 CURVE SMOOTH",
"288 -100 OFFCURVE",
"285 -76 OFFCURVE",
"280 -52 CURVE",
"201 -52 LINE",
"201 -121 LINE",
"244 -121 LINE",
"244 -135 LINE SMOOTH",
"244 -171 OFFCURVE",
"231 -191 OFFCURVE",
"198 -191 CURVE",
"198 -226 LINE"
);
}
);
};
components = (
{
alignment = -1;
name = k;
}
);
layerId = "3B8883BF-F483-4B97-AC7C-CABF8B821093";
paths = (
{
closed = 1;
nodes = (
"254 -226 OFFCURVE",
"288 -197 OFFCURVE",
"288 -119 CURVE SMOOTH",
"288 -100 OFFCURVE",
"285 -76 OFFCURVE",
"280 -52 CURVE",
"201 -52 LINE",
"201 -121 LINE",
"244 -121 LINE",
"244 -135 LINE SMOOTH",
"244 -171 OFFCURVE",
"231 -191 OFFCURVE",
"198 -191 CURVE",
"198 -226 LINE"
);
}
);
width = 484;
},
{
background = {
components = (
{
alignment = -1;
name = k;
}
);
paths = (
{
closed = 1;
nodes = (
"349 -310 OFFCURVE",
"394 -248 OFFCURVE",
"394 -158 CURVE SMOOTH",
"394 -122 OFFCURVE",
"388 -82 OFFCURVE",
"375 -40 CURVE",
"244 -40 LINE",
"244 -163 LINE",
"307 -163 LINE",
"307 -179 LINE SMOOTH",
"307 -224 OFFCURVE",
"288 -245 OFFCURVE",
"254 -245 CURVE",
"254 -310 LINE"
);
}
);
};
components = (
{
alignment = -1;
name = k;
}
);
layerId = "A390C1A2-E540-434D-BB9E-4BCEE875BA63";
paths = (
{
closed = 1;
nodes = (
"349 -310 OFFCURVE",
"394 -248 OFFCURVE",
"394 -158 CURVE SMOOTH",
"394 -122 OFFCURVE",
"388 -82 OFFCURVE",
"375 -40 CURVE",
"244 -40 LINE",
"244 -163 LINE",
"307 -163 LINE",
"307 -179 LINE SMOOTH",
"307 -224 OFFCURVE",
"288 -245 OFFCURVE",
"254 -245 CURVE",
"254 -310 LINE"
);
}
);
width = 630;
}
);
leftKerningGroup = l;
leftMetricsKey = l;
rightKerningGroup = k;
rightMetricsKey = k;
unicode = 0137;
userData = {
com.schriftgestaltung.Glyphs.ColorIndex = 8;
com.typesupply.AccentFactory.compileType = manual;
};
},
{
glyphname = l;
lastChange = "2019-05-10 10:24:02 +0000";
layers = (
{
anchors = (
{
name = bottom;
position = "{105, 0}";
},
{
name = commaaccent;
position = "{105, 10}";
},
{
name = top;
position = "{105, 720}";
},
{
name = topright;
position = "{195, 546}";
}
);
background = {
anchors = (
{
name = bottom;
position = "{105, 0}";
},
{
name = commaaccent;
position = "{105, 10}";
},
{
name = top;
position = "{105, 740}";
},
{
name = topright;
position = "{195, 546}";
}
);
paths = (
{
closed = 1;
nodes = (
"140 0 LINE",
"140 700 LINE",
"70 700 LINE",
"70 0 LINE"
);
}
);
};
layerId = "3B8883BF-F483-4B97-AC7C-CABF8B821093";
paths = (
{
closed = 1;
nodes = (
"140 0 LINE",
"140 720 LINE",
"70 720 LINE",
"70 0 LINE"
);
}
);
width = 210;
},
{
anchors = (
{
name = bottom;
position = "{148, 0}";
},
{
name = commaaccent;
position = "{148, 10}";
},
{
name = top;
position = "{148, 720}";
},
{
name = topright;
position = "{288, 558}";
}
);
background = {
anchors = (
{
name = bottom;
position = "{148, 0}";
},
{
name = commaaccent;
position = "{148, 10}";
},
{
name = top;
position = "{148, 740}";
},
{
name = topright;
position = "{288, 558}";
}
);
paths = (
{
closed = 1;
nodes = (
"233 0 LINE",
"233 700 LINE",
"62 700 LINE",
"62 0 LINE"
);
}
);
};
layerId = "A390C1A2-E540-434D-BB9E-4BCEE875BA63";
paths = (
{
closed = 1;
nodes = (
"233 0 LINE",
"233 720 LINE",
"62 720 LINE",
"62 0 LINE"
);
}
);
width = 295;
}
);
leftKerningGroup = l;
rightKerningGroup = l;
unicode = 006C;
userData = {
com.schriftgestaltung.Glyphs.ColorIndex = 4;
com.typesupply.AccentFactory.yCoordinates = {
bottom = {
name = origin;
type = glyphMetric;
};
top = {
name = ascender;
type = fontInfo;
};
};
};
},
{
glyphname = lcaron;
lastChange = "2019-05-10 10:24:02 +0000";
layers = (
{
background = {
components = (
{
alignment = -1;
name = l;
}
);
paths = (
{
closed = 1;
nodes = (
"275 552 OFFCURVE",
"308 581 OFFCURVE",
"308 655 CURVE SMOOTH",
"308 679 OFFCURVE",
"306 707 OFFCURVE",
"299 740 CURVE",
"218 740 LINE",
"218 664 LINE",
"264 664 LINE",
"264 639 LINE SMOOTH",
"264 606 OFFCURVE",
"251 588 OFFCURVE",
"217 588 CURVE",
"217 552 LINE"
);
}
);
};
components = (
{
alignment = -1;
name = l;
}
);
layerId = "3B8883BF-F483-4B97-AC7C-CABF8B821093";
paths = (
{
closed = 1;
nodes = (
"275 552 OFFCURVE",
"308 581 OFFCURVE",
"308 655 CURVE SMOOTH",
"308 679 OFFCURVE",
"306 707 OFFCURVE",
"299 740 CURVE",
"218 740 LINE",
"218 664 LINE",
"264 664 LINE",
"264 639 LINE SMOOTH",
"264 606 OFFCURVE",
"251 588 OFFCURVE",
"217 588 CURVE",
"217 552 LINE"
);
}
);
width = 316;
},
{
background = {
components = (
{
alignment = -1;
name = l;
}
);
paths = (
{
closed = 1;
nodes = (
"404 470 OFFCURVE",
"448 532 OFFCURVE",
"448 622 CURVE SMOOTH",
"448 658 OFFCURVE",
"443 698 OFFCURVE",
"429 740 CURVE",
"298 740 LINE",
"298 617 LINE",
"361 617 LINE",
"361 601 LINE SMOOTH",
"361 556 OFFCURVE",
"343 535 OFFCURVE",
"309 535 CURVE",
"309 470 LINE"
);
}
);
};
components = (
{
alignment = -1;
name = l;
}
);
layerId = "A390C1A2-E540-434D-BB9E-4BCEE875BA63";
paths = (
{
closed = 1;
nodes = (
"404 470 OFFCURVE",
"448 532 OFFCURVE",
"448 622 CURVE SMOOTH",
"448 658 OFFCURVE",
"443 698 OFFCURVE",
"429 740 CURVE",
"298 740 LINE",
"298 617 LINE",
"361 617 LINE",
"361 601 LINE SMOOTH",
"361 556 OFFCURVE",
"343 535 OFFCURVE",
"309 535 CURVE",
"309 470 LINE"
);
}
);
width = 474;
}
);
leftKerningGroup = l;
rightKerningGroup = lcaron;
unicode = 013E;
userData = {
com.schriftgestaltung.Glyphs.ColorIndex = 8;
com.typesupply.AccentFactory.compileType = manual;
};
},
{
glyphname = lcommaaccent;
lastChange = "2019-05-10 10:24:02 +0000";
layers = (
{
background = {
components = (
{
alignment = -1;
name = l;
}
);
paths = (
{
closed = 1;
nodes = (
"126 -226 OFFCURVE",
"160 -197 OFFCURVE",
"160 -119 CURVE SMOOTH",
"160 -100 OFFCURVE",
"157 -76 OFFCURVE",
"152 -52 CURVE",
"73 -52 LINE",
"73 -121 LINE",
"116 -121 LINE",
"116 -135 LINE SMOOTH",
"116 -171 OFFCURVE",
"102 -191 OFFCURVE",
"69 -191 CURVE",
"69 -226 LINE"
);
}
);
};
components = (
{
alignment = -1;
name = l;
}
);
layerId = "3B8883BF-F483-4B97-AC7C-CABF8B821093";
paths = (
{
closed = 1;
nodes = (
"119 -226 OFFCURVE",
"153 -197 OFFCURVE",
"153 -119 CURVE SMOOTH",
"153 -100 OFFCURVE",
"150 -76 OFFCURVE",
"145 -52 CURVE",
"66 -52 LINE",
"66 -121 LINE",
"109 -121 LINE",
"109 -135 LINE SMOOTH",
"109 -171 OFFCURVE",
"95 -191 OFFCURVE",
"62 -191 CURVE",
"62 -226 LINE"
);
}
);
width = 229;
},
{
background = {
components = (
{
alignment = -1;
name = l;
}
);
paths = (
{
closed = 1;
nodes = (
"188 -310 OFFCURVE",
"234 -248 OFFCURVE",
"234 -158 CURVE SMOOTH",
"234 -122 OFFCURVE",
"228 -82 OFFCURVE",
"214 -40 CURVE",
"83 -40 LINE",
"83 -163 LINE",
"146 -163 LINE",
"146 -179 LINE SMOOTH",
"146 -224 OFFCURVE",
"128 -245 OFFCURVE",
"94 -245 CURVE",
"94 -310 LINE"
);
}
);
};
components = (
{
alignment = -1;
name = l;
}
);
layerId = "A390C1A2-E540-434D-BB9E-4BCEE875BA63";
paths = (
{
closed = 1;
nodes = (
"185 -310 OFFCURVE",
"231 -248 OFFCURVE",
"231 -158 CURVE SMOOTH",
"231 -122 OFFCURVE",
"225 -82 OFFCURVE",
"211 -40 CURVE",
"80 -40 LINE",
"80 -163 LINE",
"143 -163 LINE",
"143 -179 LINE SMOOTH",
"143 -224 OFFCURVE",
"125 -245 OFFCURVE",
"91 -245 CURVE",
"91 -310 LINE"
);
}
);
width = 295;
}
);
leftKerningGroup = l;
rightKerningGroup = l;
unicode = 013C;
userData = {
com.schriftgestaltung.Glyphs.ColorIndex = 8;
com.typesupply.AccentFactory.compileType = manual;
};
},
{
glyphname = ldot;
lastChange = "2019-05-10 10:24:02 +0000";
layers = (
{
background = {
paths = (
{
closed = 1;
nodes = (
"150 0 LINE",
"150 740 LINE",
"80 740 LINE",
"80 0 LINE"
);
},
{
closed = 1;
nodes = (
"280 322 OFFCURVE",
"301 343 OFFCURVE",
"301 368 CURVE SMOOTH",
"301 393 OFFCURVE",
"280 414 OFFCURVE",
"255 414 CURVE SMOOTH",
"229 414 OFFCURVE",
"209 393 OFFCURVE",
"209 368 CURVE SMOOTH",
"209 343 OFFCURVE",
"229 322 OFFCURVE",
"255 322 CURVE SMOOTH"
);
}
);
};
layerId = "3B8883BF-F483-4B97-AC7C-CABF8B821093";
paths = (
{
closed = 1;
nodes = (
"150 0 LINE",
"150 720 LINE",
"80 720 LINE",
"80 0 LINE"
);
},
{
closed = 1;
nodes = (
"280 322 OFFCURVE",
"301 343 OFFCURVE",
"301 368 CURVE SMOOTH",
"301 393 OFFCURVE",
"280 414 OFFCURVE",
"255 414 CURVE SMOOTH",
"229 414 OFFCURVE",
"209 393 OFFCURVE",
"209 368 CURVE SMOOTH",
"209 343 OFFCURVE",
"229 322 OFFCURVE",
"255 322 CURVE SMOOTH"
);
}
);
width = 331;
},
{
background = {
paths = (
{
closed = 1;
nodes = (
"233 0 LINE",
"233 740 LINE",
"62 740 LINE",
"62 0 LINE"
);
},
{
closed = 1;
nodes = (
"379 290 OFFCURVE",
"411 322 OFFCURVE",
"411 363 CURVE SMOOTH",
"411 405 OFFCURVE",
"379 438 OFFCURVE",
"337 438 CURVE SMOOTH",
"295 438 OFFCURVE",
"263 405 OFFCURVE",
"263 363 CURVE SMOOTH",
"263 322 OFFCURVE",
"295 290 OFFCURVE",
"337 290 CURVE SMOOTH"
);
}
);
};
layerId = "A390C1A2-E540-434D-BB9E-4BCEE875BA63";
paths = (
{
closed = 1;
nodes = (
"233 0 LINE",
"233 720 LINE",
"62 720 LINE",
"62 0 LINE"
);
},
{
closed = 1;
nodes = (
"379 290 OFFCURVE",
"411 322 OFFCURVE",
"411 363 CURVE SMOOTH",
"411 405 OFFCURVE",
"379 438 OFFCURVE",
"337 438 CURVE SMOOTH",
"295 438 OFFCURVE",
"263 405 OFFCURVE",
"263 363 CURVE SMOOTH",
"263 322 OFFCURVE",
"295 290 OFFCURVE",
"337 290 CURVE SMOOTH"
);
}
);
width = 441;
}
);
leftKerningGroup = l;
rightMetricsKey = "=30";
unicode = 0140;
userData = {
com.typesupply.AccentFactory.compileType = manual;
};
},
{
glyphname = lslash;
lastChange = "2019-05-10 12:31:18 +0000";
layers = (
{
background = {
paths = (
{
closed = 1;
nodes = (
"154 0 LINE",
"154 740 LINE",
"84 740 LINE",
"84 0 LINE"
);
},
{
closed = 1;
nodes = (
"230 439 LINE",
"230 494 LINE",
"9 398 LINE",
"9 343 LINE"
);
}
);
};
layerId = "3B8883BF-F483-4B97-AC7C-CABF8B821093";
paths = (
{
closed = 1;
nodes = (
"154 0 LINE",
"154 720 LINE",
"84 720 LINE",
"84 0 LINE"
);
},
{
closed = 1;
nodes = (
"230 439 LINE",
"230 494 LINE",
"9 398 LINE",
"9 343 LINE"
);
}
);
width = 239;
},
{
background = {
paths = (
{
closed = 1;
nodes = (
"248 0 LINE",
"248 740 LINE",
"77 740 LINE",
"77 0 LINE"
);
},
{
closed = 1;
nodes = (
"314 347 LINE",
"314 492 LINE",
"12 401 LINE",
"12 256 LINE"
);
}
);
};
layerId = "A390C1A2-E540-434D-BB9E-4BCEE875BA63";
paths = (
{
closed = 1;
nodes = (
"248 0 LINE",
"248 720 LINE",
"77 720 LINE",
"77 0 LINE"
);
},
{
closed = 1;
nodes = (
"314 347 LINE",
"314 492 LINE",
"12 401 LINE",
"12 256 LINE"
);
}
);
width = 326;
}
);
unicode = 0142;
userData = {
com.schriftgestaltung.Glyphs.ColorIndex = 4;
};
},
{
glyphname = m;
lastChange = "2019-05-10 10:24:02 +0000";
layers = (
{
background = {
paths = (
{
closed = 1;
nodes = (
"824 0 LINE",
"824 293 LINE SMOOTH",
"824 441 OFFCURVE",
"745 508 OFFCURVE",
"630 508 CURVE SMOOTH",
"541 508 OFFCURVE",
"457 447 OFFCURVE",
"441 349 CURVE",
"482 257 LINE",
"482 380 OFFCURVE",
"545 447 OFFCURVE",
"628 447 CURVE SMOOTH",
"708 447 OFFCURVE",
"754 394 OFFCURVE",
"754 285 CURVE SMOOTH",
"754 0 LINE"
);
},
{
closed = 1;
nodes = (
"140 0 LINE",
"140 496 LINE",
"70 496 LINE",
"70 0 LINE"
);
},
{
closed = 1;
nodes = (
"482 0 LINE",
"482 293 LINE SMOOTH",
"482 439 OFFCURVE",
"407 508 OFFCURVE",
"293 508 CURVE SMOOTH",
"201 508 OFFCURVE",
"129 448 OFFCURVE",
"114 350 CURVE",
"140 257 LINE",
"140 380 OFFCURVE",
"203 447 OFFCURVE",
"286 447 CURVE SMOOTH",
"366 447 OFFCURVE",
"412 394 OFFCURVE",
"412 285 CURVE SMOOTH",
"412 0 LINE"
);
}
);
};
layerId = "3B8883BF-F483-4B97-AC7C-CABF8B821093";
paths = (
{
closed = 1;
nodes = (
"824 0 LINE",
"824 293 LINE SMOOTH",
"824 441 OFFCURVE",
"745 508 OFFCURVE",
"630 508 CURVE SMOOTH",
"541 508 OFFCURVE",
"457 447 OFFCURVE",
"441 349 CURVE",
"482 257 LINE",
"482 380 OFFCURVE",
"545 447 OFFCURVE",
"628 447 CURVE SMOOTH",
"708 447 OFFCURVE",
"754 394 OFFCURVE",
"754 285 CURVE SMOOTH",
"754 0 LINE"
);
},
{
closed = 1;
nodes = (
"140 0 LINE",
"140 400 LINE",
"134 496 LINE",
"70 496 LINE",
"70 0 LINE"
);
},
{
closed = 1;
nodes = (
"482 0 LINE",
"482 293 LINE SMOOTH",
"482 439 OFFCURVE",
"407 508 OFFCURVE",
"293 508 CURVE SMOOTH",
"201 508 OFFCURVE",
"129 448 OFFCURVE",
"114 350 CURVE",
"140 257 LINE",
"140 380 OFFCURVE",
"203 447 OFFCURVE",
"286 447 CURVE SMOOTH",
"366 447 OFFCURVE",
"412 394 OFFCURVE",
"412 285 CURVE SMOOTH",
"412 0 LINE"
);
}
);
width = 882;
},
{
background = {
paths = (
{
closed = 1;
nodes = (
"921 0 LINE",
"921 270 LINE SMOOTH",
"921 420 OFFCURVE",
"855 508 OFFCURVE",
"715 508 CURVE SMOOTH",
"622 508 OFFCURVE",
"550 458 OFFCURVE",
"515 389 CURVE",
"577 255 LINE",
"577 323 OFFCURVE",
"611 365 OFFCURVE",
"669 365 CURVE SMOOTH",
"728 365 OFFCURVE",
"751 323 OFFCURVE",
"751 255 CURVE SMOOTH",
"751 0 LINE"
);
},
{
closed = 1;
nodes = (
"233 0 LINE",
"233 496 LINE",
"62 496 LINE",
"62 0 LINE"
);
},
{
closed = 1;
nodes = (
"577 0 LINE",
"577 270 LINE SMOOTH",
"577 420 OFFCURVE",
"511 508 OFFCURVE",
"382 508 CURVE SMOOTH",
"286 508 OFFCURVE",
"226 455 OFFCURVE",
"201 386 CURVE",
"233 255 LINE",
"233 323 OFFCURVE",
"267 365 OFFCURVE",
"322 365 CURVE SMOOTH",
"384 365 OFFCURVE",
"407 323 OFFCURVE",
"407 255 CURVE SMOOTH",
"407 0 LINE"
);
}
);
};
layerId = "A390C1A2-E540-434D-BB9E-4BCEE875BA63";
paths = (
{
closed = 1;
nodes = (
"921 0 LINE",
"921 270 LINE SMOOTH",
"921 420 OFFCURVE",
"855 508 OFFCURVE",
"715 508 CURVE SMOOTH",
"622 508 OFFCURVE",
"550 458 OFFCURVE",
"515 389 CURVE",
"577 255 LINE",
"577 323 OFFCURVE",
"611 365 OFFCURVE",
"669 365 CURVE SMOOTH",
"728 365 OFFCURVE",
"751 323 OFFCURVE",
"751 255 CURVE SMOOTH",
"751 0 LINE"
);
},
{
closed = 1;
nodes = (
"233 0 LINE",
"233 403 LINE",
"211 496 LINE",
"62 496 LINE",
"62 0 LINE"
);
},
{
closed = 1;
nodes = (
"577 0 LINE",
"577 270 LINE SMOOTH",
"577 420 OFFCURVE",
"511 508 OFFCURVE",
"382 508 CURVE SMOOTH",
"286 508 OFFCURVE",
"226 455 OFFCURVE",
"201 386 CURVE",
"233 255 LINE",
"233 323 OFFCURVE",
"267 365 OFFCURVE",
"322 365 CURVE SMOOTH",
"384 365 OFFCURVE",
"407 323 OFFCURVE",
"407 255 CURVE SMOOTH",
"407 0 LINE"
);
}
);
width = 977;
}
);
leftKerningGroup = n;
leftMetricsKey = n;
rightKerningGroup = n;
rightMetricsKey = n;
unicode = 006D;
userData = {
com.schriftgestaltung.Glyphs.ColorIndex = 4;
com.typemytype.robofont.layerData = {
b = {
anchors = (
);
components = (
);
contours = (
{
points = (
{
segmentType = line;
smooth = 0;
x = 85;
y = 0;
},
{
segmentType = line;
smooth = 0;
x = 105;
y = 0;
},
{
segmentType = line;
smooth = 0;
x = 105;
y = 540;
},
{
segmentType = line;
smooth = 0;
x = 85;
y = 540;
}
);
},
{
points = (
{
segmentType = line;
smooth = 0;
x = 485;
y = 0;
},
{
segmentType = line;
smooth = 0;
x = 504;
y = 0;
},
{
segmentType = line;
smooth = 1;
x = 504;
y = 325;
},
{
smooth = 0;
x = 504;
y = 485;
},
{
smooth = 0;
x = 399;
y = 552;
},
{
segmentType = curve;
smooth = 1;
x = 292;
y = 552;
},
{
smooth = 0;
x = 189;
y = 552;
},
{
smooth = 0;
x = 91;
y = 494;
},
{
segmentType = curve;
smooth = 0;
x = 72;
y = 345;
},
{
segmentType = line;
smooth = 0;
x = 105;
y = 317;
},
{
smooth = 0;
x = 105;
y = 465;
},
{
smooth = 0;
x = 181;
y = 536;
},
{
segmentType = curve;
smooth = 1;
x = 296;
y = 536;
},
{
smooth = 0;
x = 410;
y = 536;
},
{
smooth = 0;
x = 485;
y = 465;
},
{
segmentType = curve;
smooth = 1;
x = 485;
y = 317;
}
);
},
{
points = (
{
segmentType = line;
smooth = 0;
x = 884;
y = 0;
},
{
segmentType = line;
smooth = 0;
x = 903;
y = 0;
},
{
segmentType = line;
smooth = 1;
x = 903;
y = 325;
},
{
smooth = 0;
x = 903;
y = 485;
},
{
smooth = 0;
x = 796;
y = 552;
},
{
segmentType = curve;
smooth = 1;
x = 694;
y = 552;
},
{
smooth = 0;
x = 580;
y = 552;
},
{
smooth = 0;
x = 492;
y = 487;
},
{
segmentType = curve;
smooth = 0;
x = 468;
y = 357;
},
{
segmentType = line;
smooth = 0;
x = 504;
y = 317;
},
{
smooth = 0;
x = 504;
y = 465;
},
{
smooth = 0;
x = 580;
y = 536;
},
{
segmentType = curve;
smooth = 1;
x = 695;
y = 536;
},
{
smooth = 0;
x = 809;
y = 536;
},
{
smooth = 0;
x = 884;
y = 465;
},
{
segmentType = curve;
smooth = 1;
x = 884;
y = 317;
}
);
}
);
lib = {
};
name = m;
unicodes = (
);
width = 1003;
};
};
com.typesupply.AccentFactory.yCoordinates = {
bottom = {
name = origin;
type = glyphMetric;
};
top = {
name = xHeight;
type = fontInfo;
};
};
};
},
{
glyphname = n;
lastChange = "2019-05-10 10:24:02 +0000";
layers = (
{
anchors = (
{
name = bottom;
position = "{280, 0}";
},
{
name = top;
position = "{297, 496}";
}
);
background = {
anchors = (
{
name = bottom;
position = "{280, 0}";
},
{
name = top;
position = "{297, 496}";
}
);
paths = (
{
closed = 1;
nodes = (
"502 0 LINE",
"502 293 LINE SMOOTH",
"502 441 OFFCURVE",
"425 508 OFFCURVE",
"310 508 CURVE SMOOTH",
"215 508 OFFCURVE",
"136 447 OFFCURVE",
"120 349 CURVE",
"140 257 LINE",
"140 380 OFFCURVE",
"207 447 OFFCURVE",
"298 447 CURVE SMOOTH",
"384 447 OFFCURVE",
"432 394 OFFCURVE",
"432 285 CURVE SMOOTH",
"432 0 LINE"
);
},
{
closed = 1;
nodes = (
"140 0 LINE",
"140 496 LINE",
"70 496 LINE",
"70 0 LINE"
);
}
);
};
layerId = "3B8883BF-F483-4B97-AC7C-CABF8B821093";
paths = (
{
closed = 1;
nodes = (
"502 0 LINE",
"502 293 LINE SMOOTH",
"502 441 OFFCURVE",
"425 508 OFFCURVE",
"310 508 CURVE SMOOTH",
"215 508 OFFCURVE",
"136 447 OFFCURVE",
"120 349 CURVE",
"140 257 LINE",
"140 380 OFFCURVE",
"207 447 OFFCURVE",
"298 447 CURVE SMOOTH",
"384 447 OFFCURVE",
"432 394 OFFCURVE",
"432 285 CURVE SMOOTH",
"432 0 LINE"
);
},
{
closed = 1;
nodes = (
"140 0 LINE",
"140 358 LINE",
"134 496 LINE",
"70 496 LINE",
"70 0 LINE"
);
}
);
width = 560;
},
{
anchors = (
{
name = bottom;
position = "{327, 0}";
},
{
name = top;
position = "{351, 496}";
}
);
background = {
anchors = (
{
name = bottom;
position = "{327, 0}";
},
{
name = top;
position = "{351, 496}";
}
);
paths = (
{
closed = 1;
nodes = (
"587 0 LINE",
"587 270 LINE SMOOTH",
"587 420 OFFCURVE",
"521 508 OFFCURVE",
"392 508 CURVE SMOOTH",
"296 508 OFFCURVE",
"236 455 OFFCURVE",
"211 386 CURVE",
"233 255 LINE",
"233 323 OFFCURVE",
"272 365 OFFCURVE",
"329 365 CURVE SMOOTH",
"394 365 OFFCURVE",
"417 323 OFFCURVE",
"417 255 CURVE SMOOTH",
"417 0 LINE"
);
},
{
closed = 1;
nodes = (
"233 0 LINE",
"233 496 LINE",
"62 496 LINE",
"62 0 LINE"
);
}
);
};
layerId = "A390C1A2-E540-434D-BB9E-4BCEE875BA63";
paths = (
{
closed = 1;
nodes = (
"587 0 LINE",
"587 270 LINE SMOOTH",
"587 420 OFFCURVE",
"521 508 OFFCURVE",
"392 508 CURVE SMOOTH",
"296 508 OFFCURVE",
"236 455 OFFCURVE",
"211 386 CURVE",
"233 255 LINE",
"233 323 OFFCURVE",
"272 365 OFFCURVE",
"329 365 CURVE SMOOTH",
"394 365 OFFCURVE",
"417 323 OFFCURVE",
"417 255 CURVE SMOOTH",
"417 0 LINE"
);
},
{
closed = 1;
nodes = (
"233 0 LINE",
"233 376 LINE",
"211 496 LINE",
"62 496 LINE",
"62 0 LINE"
);
}
);
width = 643;
}
);
leftKerningGroup = n;
rightKerningGroup = n;
unicode = 006E;
userData = {
com.schriftgestaltung.Glyphs.ColorIndex = 4;
com.typesupply.AccentFactory.yCoordinates = {
bottom = {
name = origin;
type = glyphMetric;
};
top = {
name = xHeight;
type = fontInfo;
};
};
};
},
{
glyphname = ncommaaccent;
lastChange = "2019-05-10 10:24:02 +0000";
layers = (
{
background = {
components = (
{
alignment = -1;
name = n;
}
);
paths = (
{
closed = 1;
nodes = (
"331 -226 OFFCURVE",
"365 -197 OFFCURVE",
"365 -119 CURVE SMOOTH",
"365 -100 OFFCURVE",
"362 -76 OFFCURVE",
"357 -52 CURVE",
"278 -52 LINE",
"278 -121 LINE",
"321 -121 LINE",
"321 -135 LINE SMOOTH",
"321 -171 OFFCURVE",
"308 -191 OFFCURVE",
"275 -191 CURVE",
"275 -226 LINE"
);
}
);
};
components = (
{
alignment = -1;
name = n;
}
);
layerId = "3B8883BF-F483-4B97-AC7C-CABF8B821093";
paths = (
{
closed = 1;
nodes = (
"311 -226 OFFCURVE",
"345 -197 OFFCURVE",
"345 -119 CURVE SMOOTH",
"345 -100 OFFCURVE",
"342 -76 OFFCURVE",
"337 -52 CURVE",
"258 -52 LINE",
"258 -121 LINE",
"301 -121 LINE",
"301 -135 LINE SMOOTH",
"301 -171 OFFCURVE",
"288 -191 OFFCURVE",
"255 -191 CURVE",
"255 -226 LINE"
);
}
);
width = 560;
},
{
background = {
components = (
{
alignment = -1;
name = n;
}
);
paths = (
{
closed = 1;
nodes = (
"388 -310 OFFCURVE",
"433 -248 OFFCURVE",
"433 -158 CURVE SMOOTH",
"433 -122 OFFCURVE",
"427 -82 OFFCURVE",
"413 -40 CURVE",
"282 -40 LINE",
"282 -163 LINE",
"345 -163 LINE",
"345 -179 LINE SMOOTH",
"345 -224 OFFCURVE",
"327 -245 OFFCURVE",
"293 -245 CURVE",
"293 -310 LINE"
);
}
);
};
components = (
{
alignment = -1;
name = n;
}
);
layerId = "A390C1A2-E540-434D-BB9E-4BCEE875BA63";
paths = (
{
closed = 1;
nodes = (
"368 -310 OFFCURVE",
"413 -248 OFFCURVE",
"413 -158 CURVE SMOOTH",
"413 -122 OFFCURVE",
"407 -82 OFFCURVE",
"393 -40 CURVE",
"262 -40 LINE",
"262 -163 LINE",
"325 -163 LINE",
"325 -179 LINE SMOOTH",
"325 -224 OFFCURVE",
"307 -245 OFFCURVE",
"273 -245 CURVE",
"273 -310 LINE"
);
}
);
width = 643;
}
);
leftKerningGroup = n;
leftMetricsKey = n;
rightKerningGroup = n;
rightMetricsKey = n;
unicode = 0146;
userData = {
com.schriftgestaltung.Glyphs.ColorIndex = 8;
com.typesupply.AccentFactory.compileType = manual;
};
},
{
glyphname = o;
lastChange = "2023-02-22 13:20:50 +0000";
layers = (
{
anchors = (
{
name = bottom;
position = "{294, 0}";
},
{
name = center;
position = "{294, 248}";
},
{
name = ogonek;
position = "{356, 0}";
},
{
name = top;
position = "{295, 496}";
},
{
name = topright;
position = "{568, 496}";
}
);
background = {
anchors = (
{
name = top;
position = "{296, 551}";
}
);
paths = (
{
closed = 1;
nodes = (
"446 -8 OFFCURVE",
"567 100 OFFCURVE",
"567 273 CURVE",
"567 447 OFFCURVE",
"448 554 OFFCURVE",
"294 554 CURVE",
"141 554 OFFCURVE",
"21 447 OFFCURVE",
"21 273 CURVE",
"21 100 OFFCURVE",
"138 -8 OFFCURVE",
"292 -8 CURVE"
);
},
{
closed = 1;
nodes = (
"188 53 OFFCURVE",
"92 123 OFFCURVE",
"92 273 CURVE",
"92 423 OFFCURVE",
"189 493 OFFCURVE",
"293 493 CURVE",
"397 493 OFFCURVE",
"495 423 OFFCURVE",
"495 273 CURVE",
"495 123 OFFCURVE",
"395 53 OFFCURVE",
"292 53 CURVE"
);
}
);
};
layerId = "3B8883BF-F483-4B97-AC7C-CABF8B821093";
paths = (
{
closed = 1;
nodes = (
"432 -12 OFFCURVE",
"540 89 OFFCURVE",
"540 248 CURVE SMOOTH",
"540 407 OFFCURVE",
"434 508 OFFCURVE",
"295 508 CURVE SMOOTH",
"156 508 OFFCURVE",
"48 407 OFFCURVE",
"48 248 CURVE SMOOTH",
"48 89 OFFCURVE",
"154 -12 OFFCURVE",
"293 -12 CURVE SMOOTH"
);
},
{
closed = 1;
nodes = (
"203 48 OFFCURVE",
"120 115 OFFCURVE",
"120 248 CURVE SMOOTH",
"120 381 OFFCURVE",
"204 448 OFFCURVE",
"295 448 CURVE SMOOTH",
"385 448 OFFCURVE",
"468 381 OFFCURVE",
"468 248 CURVE SMOOTH",
"468 115 OFFCURVE",
"384 48 OFFCURVE",
"293 48 CURVE SMOOTH"
);
}
);
width = 588;
},
{
anchors = (
{
name = bottom;
position = "{310, 0}";
},
{
name = center;
position = "{310, 248}";
},
{
name = ogonek;
position = "{381, 0}";
},
{
name = top;
position = "{310, 496}";
},
{
name = topright;
position = "{600, 496}";
}
);
background = {
anchors = (
{
name = top;
position = "{324, 562}";
}
);
paths = (
{
closed = 1;
nodes = (
"472 -8 OFFCURVE",
"600 102 OFFCURVE",
"600 279 CURVE SMOOTH",
"600 456 OFFCURVE",
"474 566 OFFCURVE",
"310 566 CURVE SMOOTH",
"147 566 OFFCURVE",
"20 456 OFFCURVE",
"20 279 CURVE SMOOTH",
"20 102 OFFCURVE",
"144 -8 OFFCURVE",
"308 -8 CURVE SMOOTH"
);
},
{
closed = 1;
nodes = (
"246 140 OFFCURVE",
"194 185 OFFCURVE",
"194 279 CURVE SMOOTH",
"194 374 OFFCURVE",
"248 418 OFFCURVE",
"310 418 CURVE SMOOTH",
"370 418 OFFCURVE",
"426 374 OFFCURVE",
"426 279 CURVE SMOOTH",
"426 185 OFFCURVE",
"369 140 OFFCURVE",
"308 140 CURVE SMOOTH"
);
}
);
};
layerId = "A390C1A2-E540-434D-BB9E-4BCEE875BA63";
paths = (
{
closed = 1;
nodes = (
"456 -12 OFFCURVE",
"570 98 OFFCURVE",
"570 248 CURVE SMOOTH",
"570 398 OFFCURVE",
"456 508 OFFCURVE",
"310 508 CURVE SMOOTH",
"164 508 OFFCURVE",
"50 398 OFFCURVE",
"50 248 CURVE SMOOTH",
"50 98 OFFCURVE",
"164 -12 OFFCURVE",
"310 -12 CURVE SMOOTH"
);
},
{
closed = 1;
nodes = (
"261 136 OFFCURVE",
"224 174 OFFCURVE",
"224 248 CURVE SMOOTH",
"224 322 OFFCURVE",
"261 360 OFFCURVE",
"310 360 CURVE SMOOTH",
"359 360 OFFCURVE",
"396 322 OFFCURVE",
"396 248 CURVE SMOOTH",
"396 174 OFFCURVE",
"359 136 OFFCURVE",
"310 136 CURVE SMOOTH"
);
}
);
width = 620;
}
);
leftKerningGroup = o;
rightKerningGroup = o;
unicode = 006F;
userData = {
com.schriftgestaltung.Glyphs.ColorIndex = 4;
com.typesupply.AccentFactory.yCoordinates = {
bottom = {
name = origin;
type = glyphMetric;
};
top = {
name = xHeight;
type = fontInfo;
};
};
};
},
{
glyphname = oslash;
lastChange = "2019-05-10 10:24:02 +0000";
layers = (
{
background = {
components = (
{
alignment = -1;
name = o;
}
);
paths = (
{
closed = 1;
nodes = (
"100 0 LINE",
"596 546 LINE",
"544 546 LINE",
"47 0 LINE"
);
}
);
};
layerId = "3B8883BF-F483-4B97-AC7C-CABF8B821093";
paths = (
{
closed = 1;
nodes = (
"120 0 LINE",
"551 496 LINE",
"479 496 LINE",
"47 0 LINE"
);
},
{
closed = 1;
nodes = (
"437 -12 OFFCURVE",
"545 89 OFFCURVE",
"545 248 CURVE SMOOTH",
"545 407 OFFCURVE",
"439 508 OFFCURVE",
"300 508 CURVE SMOOTH",
"161 508 OFFCURVE",
"53 407 OFFCURVE",
"53 248 CURVE SMOOTH",
"53 89 OFFCURVE",
"159 -12 OFFCURVE",
"298 -12 CURVE SMOOTH"
);
},
{
closed = 1;
nodes = (
"208 48 OFFCURVE",
"125 115 OFFCURVE",
"125 248 CURVE SMOOTH",
"125 381 OFFCURVE",
"209 448 OFFCURVE",
"300 448 CURVE SMOOTH",
"390 448 OFFCURVE",
"473 381 OFFCURVE",
"473 248 CURVE SMOOTH",
"473 115 OFFCURVE",
"389 48 OFFCURVE",
"298 48 CURVE SMOOTH"
);
}
);
width = 598;
},
{
background = {
components = (
{
alignment = -1;
name = o;
transform = "{1, 0, 0, 1, -4, 0}";
}
);
paths = (
{
closed = 1;
nodes = (
"105 0 LINE",
"616 558 LINE",
"524 558 LINE",
"13 0 LINE"
);
}
);
};
guideLines = (
{
position = "{207, 379}";
}
);
layerId = "A390C1A2-E540-434D-BB9E-4BCEE875BA63";
paths = (
{
closed = 1;
nodes = (
"139 0 LINE",
"563 496 LINE",
"441 496 LINE",
"17 0 LINE"
);
},
{
closed = 1;
nodes = (
"436 -12 OFFCURVE",
"550 98 OFFCURVE",
"550 248 CURVE SMOOTH",
"550 398 OFFCURVE",
"436 508 OFFCURVE",
"290 508 CURVE SMOOTH",
"144 508 OFFCURVE",
"30 398 OFFCURVE",
"30 248 CURVE SMOOTH",
"30 98 OFFCURVE",
"144 -12 OFFCURVE",
"290 -12 CURVE SMOOTH"
);
},
{
closed = 1;
nodes = (
"233 117 OFFCURVE",
"189 161 OFFCURVE",
"189 248 CURVE SMOOTH",
"189 335 OFFCURVE",
"233 379 OFFCURVE",
"290 379 CURVE SMOOTH",
"347 379 OFFCURVE",
"391 335 OFFCURVE",
"391 248 CURVE SMOOTH",
"391 161 OFFCURVE",
"347 117 OFFCURVE",
"290 117 CURVE SMOOTH"
);
}
);
width = 580;
}
);
unicode = 00F8;
userData = {
com.schriftgestaltung.Glyphs.ColorIndex = 4;
};
},
{
glyphname = oe;
lastChange = "2019-05-10 10:24:02 +0000";
layers = (
{
background = {
paths = (
{
closed = 1;
nodes = (
"426 -8 OFFCURVE",
"515 47 OFFCURVE",
"556 144 CURVE",
"595 47 OFFCURVE",
"680 -8 OFFCURVE",
"787 -8 CURVE SMOOTH",
"924 -8 OFFCURVE",
"1013 70 OFFCURVE",
"1038 173 CURVE",
"964 173 LINE",
"944 100 OFFCURVE",
"881 51 OFFCURVE",
"787 51 CURVE SMOOTH",
"682 51 OFFCURVE",
"594 122 OFFCURVE",
"594 258 CURVE SMOOTH",
"594 286 LINE SMOOTH",
"594 424 OFFCURVE",
"684 494 OFFCURVE",
"787 494 CURVE SMOOTH",
"888 494 OFFCURVE",
"980 429 OFFCURVE",
"977 298 CURVE",
"567 298 LINE",
"567 248 LINE",
"1044 248 LINE",
"1047 267 OFFCURVE",
"1048 281 OFFCURVE",
"1048 302 CURVE SMOOTH",
"1048 440 OFFCURVE",
"951 554 OFFCURVE",
"790 554 CURVE SMOOTH",
"681 554 OFFCURVE",
"595 499 OFFCURVE",
"557 403 CURVE",
"516 499 OFFCURVE",
"428 554 OFFCURVE",
"321 554 CURVE",
"168 554 OFFCURVE",
"48 447 OFFCURVE",
"48 273 CURVE",
"48 100 OFFCURVE",
"164 -8 OFFCURVE",
"319 -8 CURVE"
);
},
{
closed = 1;
nodes = (
"215 51 OFFCURVE",
"119 123 OFFCURVE",
"119 273 CURVE",
"119 423 OFFCURVE",
"216 494 OFFCURVE",
"320 494 CURVE",
"424 494 OFFCURVE",
"522 423 OFFCURVE",
"522 273 CURVE",
"522 123 OFFCURVE",
"422 51 OFFCURVE",
"319 51 CURVE"
);
}
);
};
layerId = "3B8883BF-F483-4B97-AC7C-CABF8B821093";
paths = (
{
closed = 1;
nodes = (
"386 -12 OFFCURVE",
"460 33 OFFCURVE",
"500 110 CURVE",
"540 33 OFFCURVE",
"615 -12 OFFCURVE",
"708 -12 CURVE SMOOTH",
"830 -12 OFFCURVE",
"907 62 OFFCURVE",
"931 161 CURVE",
"864 161 LINE",
"842 91 OFFCURVE",
"788 48 OFFCURVE",
"708 48 CURVE SMOOTH",
"625 48 OFFCURVE",
"542 108 OFFCURVE",
"536 233 CURVE",
"937 233 LINE",
"938 252 OFFCURVE",
"938 265 OFFCURVE",
"938 279 CURVE SMOOTH",
"938 398 OFFCURVE",
"854 508 OFFCURVE",
"710 508 CURVE SMOOTH",
"615 508 OFFCURVE",
"539 463 OFFCURVE",
"499 387 CURVE",
"461 464 OFFCURVE",
"387 508 OFFCURVE",
"295 508 CURVE SMOOTH",
"156 508 OFFCURVE",
"48 407 OFFCURVE",
"48 248 CURVE SMOOTH",
"48 89 OFFCURVE",
"154 -12 OFFCURVE",
"293 -12 CURVE SMOOTH"
);
},
{
closed = 1;
nodes = (
"203 48 OFFCURVE",
"120 115 OFFCURVE",
"120 248 CURVE SMOOTH",
"120 381 OFFCURVE",
"204 448 OFFCURVE",
"295 448 CURVE SMOOTH",
"385 448 OFFCURVE",
"468 381 OFFCURVE",
"468 248 CURVE SMOOTH",
"468 115 OFFCURVE",
"384 48 OFFCURVE",
"293 48 CURVE SMOOTH"
);
},
{
closed = 1;
nodes = (
"545 394 OFFCURVE",
"621 448 OFFCURVE",
"707 448 CURVE SMOOTH",
"798 448 OFFCURVE",
"866 390 OFFCURVE",
"870 293 CURVE",
"537 293 LINE"
);
}
);
width = 980;
},
{
background = {
paths = (
{
closed = 1;
nodes = (
"398 -8 OFFCURVE",
"471 22 OFFCURVE",
"521 76 CURVE",
"568 22 OFFCURVE",
"637 -8 OFFCURVE",
"718 -8 CURVE SMOOTH",
"857 -8 OFFCURVE",
"957 76 OFFCURVE",
"984 185 CURVE",
"802 185 LINE",
"788 155 OFFCURVE",
"761 131 OFFCURVE",
"712 131 CURVE SMOOTH",
"653 131 OFFCURVE",
"608 168 OFFCURVE",
"608 255 CURVE SMOOTH",
"608 303 LINE SMOOTH",
"608 384 OFFCURVE",
"654 429 OFFCURVE",
"718 429 CURVE SMOOTH",
"776 429 OFFCURVE",
"823 392 OFFCURVE",
"824 325 CURVE",
"568 325 LINE",
"568 240 LINE",
"995 240 LINE",
"998 257 OFFCURVE",
"999 273 OFFCURVE",
"999 289 CURVE SMOOTH",
"999 458 OFFCURVE",
"884 566 OFFCURVE",
"721 566 CURVE SMOOTH",
"638 566 OFFCURVE",
"569 535 OFFCURVE",
"521 482 CURVE",
"472 535 OFFCURVE",
"399 566 OFFCURVE",
"318 566 CURVE SMOOTH",
"155 566 OFFCURVE",
"28 456 OFFCURVE",
"28 279 CURVE SMOOTH",
"28 102 OFFCURVE",
"152 -8 OFFCURVE",
"316 -8 CURVE SMOOTH"
);
},
{
closed = 1;
nodes = (
"254 139 OFFCURVE",
"202 185 OFFCURVE",
"202 279 CURVE SMOOTH",
"202 374 OFFCURVE",
"256 419 OFFCURVE",
"317 419 CURVE SMOOTH",
"378 419 OFFCURVE",
"434 374 OFFCURVE",
"434 279 CURVE SMOOTH",
"434 185 OFFCURVE",
"377 139 OFFCURVE",
"316 139 CURVE SMOOTH"
);
}
);
};
layerId = "A390C1A2-E540-434D-BB9E-4BCEE875BA63";
paths = (
{
closed = 1;
nodes = (
"378 -12 OFFCURVE",
"435 12 OFFCURVE",
"477 53 CURVE",
"524 12 OFFCURVE",
"589 -12 OFFCURVE",
"666 -12 CURVE SMOOTH",
"791 -12 OFFCURVE",
"890 71 OFFCURVE",
"917 176 CURVE",
"745 176 LINE",
"731 150 OFFCURVE",
"704 126 OFFCURVE",
"664 126 CURVE SMOOTH",
"606 126 OFFCURVE",
"572 162 OFFCURVE",
"566 205 CURVE",
"925 205 LINE",
"927 222 OFFCURVE",
"928 240 OFFCURVE",
"928 254 CURVE SMOOTH",
"928 405 OFFCURVE",
"814 508 OFFCURVE",
"665 508 CURVE SMOOTH",
"589 508 OFFCURVE",
"525 483 OFFCURVE",
"479 441 CURVE",
"437 483 OFFCURVE",
"380 508 OFFCURVE",
"310 508 CURVE SMOOTH",
"164 508 OFFCURVE",
"50 398 OFFCURVE",
"50 248 CURVE SMOOTH",
"50 98 OFFCURVE",
"164 -12 OFFCURVE",
"310 -12 CURVE SMOOTH"
);
},
{
closed = 1;
nodes = (
"261 136 OFFCURVE",
"224 174 OFFCURVE",
"224 248 CURVE SMOOTH",
"224 322 OFFCURVE",
"261 360 OFFCURVE",
"310 360 CURVE SMOOTH",
"359 360 OFFCURVE",
"396 322 OFFCURVE",
"396 248 CURVE SMOOTH",
"396 174 OFFCURVE",
"359 136 OFFCURVE",
"310 136 CURVE SMOOTH"
);
},
{
closed = 1;
nodes = (
"585 349 OFFCURVE",
"621 372 OFFCURVE",
"667 372 CURVE SMOOTH",
"714 372 OFFCURVE",
"749 341 OFFCURVE",
"753 300 CURVE",
"571 300 LINE"
);
}
);
width = 972;
}
);
leftKerningGroup = o;
leftMetricsKey = o;
rightKerningGroup = e;
rightMetricsKey = e;
unicode = 0153;
userData = {
com.schriftgestaltung.Glyphs.ColorIndex = 4;
com.typemytype.robofont.layerData = {
b = {
anchors = (
);
components = (
);
contours = (
{
points = (
{
segmentType = curve;
smooth = 1;
x = 569;
y = 270;
},
{
smooth = 0;
x = 569;
y = 98;
},
{
smooth = 0;
x = 444;
y = -1;
},
{
segmentType = curve;
smooth = 1;
x = 312;
y = -1;
},
{
smooth = 0;
x = 179;
y = -1;
},
{
smooth = 0;
x = 84;
y = 98;
},
{
segmentType = curve;
smooth = 1;
x = 84;
y = 270;
},
{
smooth = 0;
x = 84;
y = 444;
},
{
smooth = 0;
x = 191;
y = 541;
},
{
segmentType = curve;
smooth = 1;
x = 322;
y = 541;
},
{
smooth = 0;
x = 455;
y = 541;
},
{
smooth = 0;
x = 569;
y = 444;
}
);
},
{
points = (
{
segmentType = curve;
smooth = 1;
x = 64;
y = 270;
},
{
smooth = 0;
x = 64;
y = 103;
},
{
smooth = 0;
x = 162;
y = -12;
},
{
segmentType = curve;
smooth = 1;
x = 312;
y = -12;
},
{
smooth = 0;
x = 430;
y = -12;
},
{
smooth = 0;
x = 531;
y = 48;
},
{
segmentType = curve;
smooth = 0;
x = 578;
y = 146;
},
{
smooth = 0;
x = 620;
y = 48;
},
{
smooth = 0;
x = 709;
y = -12;
},
{
segmentType = curve;
smooth = 1;
x = 826;
y = -12;
},
{
smooth = 0;
x = 962;
y = -12;
},
{
smooth = 0;
x = 1026;
y = 66;
},
{
segmentType = curve;
smooth = 0;
x = 1059;
y = 137;
},
{
segmentType = line;
smooth = 0;
x = 1039;
y = 137;
},
{
smooth = 0;
x = 1015;
y = 60;
},
{
smooth = 0;
x = 934;
y = -1;
},
{
segmentType = curve;
smooth = 1;
x = 826;
y = -1;
},
{
smooth = 0;
x = 697;
y = -1;
},
{
smooth = 0;
x = 592;
y = 93;
},
{
segmentType = curve;
smooth = 1;
x = 592;
y = 269;
},
{
segmentType = line;
smooth = 1;
x = 592;
y = 274;
},
{
smooth = 0;
x = 592;
y = 447;
},
{
smooth = 0;
x = 694;
y = 541;
},
{
segmentType = curve;
smooth = 1;
x = 827;
y = 541;
},
{
smooth = 0;
x = 958;
y = 541;
},
{
smooth = 0;
x = 1062;
y = 448;
},
{
segmentType = curve;
smooth = 0;
x = 1059;
y = 290;
},
{
segmentType = line;
smooth = 0;
x = 570;
y = 290;
},
{
segmentType = line;
smooth = 0;
x = 571;
y = 261;
},
{
segmentType = line;
smooth = 0;
x = 1074;
y = 261;
},
{
smooth = 0;
x = 1077;
y = 280;
},
{
smooth = 0;
x = 1078;
y = 298;
},
{
segmentType = curve;
smooth = 1;
x = 1078;
y = 315;
},
{
smooth = 0;
x = 1078;
y = 434;
},
{
smooth = 0;
x = 993;
y = 552;
},
{
segmentType = curve;
smooth = 1;
x = 840;
y = 552;
},
{
smooth = 0;
x = 715;
y = 552;
},
{
smooth = 0;
x = 623;
y = 495;
},
{
segmentType = curve;
smooth = 0;
x = 582;
y = 400;
},
{
smooth = 0;
x = 537;
y = 495;
},
{
smooth = 0;
x = 442;
y = 552;
},
{
segmentType = curve;
smooth = 1;
x = 328;
y = 552;
},
{
smooth = 0;
x = 177;
y = 552;
},
{
smooth = 0;
x = 64;
y = 438;
}
);
}
);
lib = {
};
name = oe;
unicodes = (
);
width = 1135;
};
};
com.typesupply.AccentFactory.yCoordinates = {
bottom = {
name = origin;
type = glyphMetric;
};
top = {
name = xHeight;
type = fontInfo;
};
};
};
},
{
glyphname = p;
lastChange = "2025-09-04 09:09:58 +0000";
layers = (
{
background = {
paths = (
{
closed = 1;
nodes = (
"140 -220 LINE",
"140 88 LINE",
"174 25 OFFCURVE",
"242 -12 OFFCURVE",
"326 -12 CURVE SMOOTH",
"477 -12 OFFCURVE",
"573 97 OFFCURVE",
"573 247 CURVE SMOOTH",
"573 397 OFFCURVE",
"477 508 OFFCURVE",
"327 508 CURVE SMOOTH",
"233 508 OFFCURVE",
"172 460 OFFCURVE",
"140 410 CURVE",
"140 496 LINE",
"70 496 LINE",
"70 -220 LINE"
);
},
{
closed = 1;
nodes = (
"218 49 OFFCURVE",
"144 128 OFFCURVE",
"144 248 CURVE SMOOTH",
"144 368 OFFCURVE",
"218 447 OFFCURVE",
"323 447 CURVE SMOOTH",
"428 447 OFFCURVE",
"502 368 OFFCURVE",
"502 248 CURVE SMOOTH",
"502 128 OFFCURVE",
"428 49 OFFCURVE",
"323 49 CURVE SMOOTH"
);
}
);
};
layerId = "3B8883BF-F483-4B97-AC7C-CABF8B821093";
paths = (
{
closed = 1;
nodes = (
"140 -220 LINE",
"140 88 LINE",
"174 25 OFFCURVE",
"242 -12 OFFCURVE",
"326 -12 CURVE SMOOTH",
"477 -12 OFFCURVE",
"573 97 OFFCURVE",
"573 247 CURVE SMOOTH",
"573 397 OFFCURVE",
"477 508 OFFCURVE",
"327 508 CURVE SMOOTH",
"233 508 OFFCURVE",
"172 460 OFFCURVE",
"140 410 CURVE",
"134 496 LINE",
"70 496 LINE",
"70 -220 LINE"
);
},
{
closed = 1;
nodes = (
"218 49 OFFCURVE",
"144 128 OFFCURVE",
"144 248 CURVE SMOOTH",
"144 368 OFFCURVE",
"218 447 OFFCURVE",
"323 447 CURVE SMOOTH",
"428 447 OFFCURVE",
"502 368 OFFCURVE",
"502 248 CURVE SMOOTH",
"502 128 OFFCURVE",
"428 49 OFFCURVE",
"323 49 CURVE SMOOTH"
);
}
);
width = 621;
},
{
background = {
paths = (
{
closed = 1;
nodes = (
"233 -220 LINE",
"233 53 LINE",
"267 12 OFFCURVE",
"315 -12 OFFCURVE",
"383 -12 CURVE SMOOTH",
"516 -12 OFFCURVE",
"625 98 OFFCURVE",
"625 247 CURVE SMOOTH",
"625 396 OFFCURVE",
"516 508 OFFCURVE",
"383 508 CURVE SMOOTH",
"307 508 OFFCURVE",
"264 476 OFFCURVE",
"233 436 CURVE",
"233 496 LINE",
"62 496 LINE",
"62 -220 LINE"
);
},
{
closed = 1;
nodes = (
"272 137 OFFCURVE",
"225 185 OFFCURVE",
"225 248 CURVE SMOOTH",
"225 309 OFFCURVE",
"272 359 OFFCURVE",
"338 359 CURVE SMOOTH",
"403 359 OFFCURVE",
"451 309 OFFCURVE",
"451 247 CURVE SMOOTH",
"451 185 OFFCURVE",
"403 137 OFFCURVE",
"338 137 CURVE SMOOTH"
);
}
);
};
layerId = "A390C1A2-E540-434D-BB9E-4BCEE875BA63";
paths = (
{
closed = 1;
nodes = (
"233 -220 LINE",
"233 53 LINE",
"267 12 OFFCURVE",
"315 -12 OFFCURVE",
"383 -12 CURVE SMOOTH",
"516 -12 OFFCURVE",
"625 98 OFFCURVE",
"625 247 CURVE SMOOTH",
"625 396 OFFCURVE",
"516 508 OFFCURVE",
"383 508 CURVE SMOOTH",
"307 508 OFFCURVE",
"264 476 OFFCURVE",
"233 436 CURVE",
"213 496 LINE",
"62 496 LINE",
"62 -220 LINE"
);
},
{
closed = 1;
nodes = (
"272 137 OFFCURVE",
"225 185 OFFCURVE",
"225 248 CURVE SMOOTH",
"225 309 OFFCURVE",
"272 359 OFFCURVE",
"338 359 CURVE SMOOTH",
"403 359 OFFCURVE",
"451 309 OFFCURVE",
"451 247 CURVE SMOOTH",
"451 185 OFFCURVE",
"403 137 OFFCURVE",
"338 137 CURVE SMOOTH"
);
}
);
width = 675;
}
);
leftMetricsKey = l;
rightKerningGroup = o;
rightMetricsKey = o;
unicode = 0070;
userData = {
com.schriftgestaltung.Glyphs.ColorIndex = 4;
com.typemytype.robofont.guides = (
{
angle = 0;
isGlobal = 0;
magnetic = 5;
x = -74;
y = -254;
}
);
com.typesupply.AccentFactory.yCoordinates = {
top = {
name = xHeight;
type = fontInfo;
};
};
};
},
{
glyphname = thorn;
lastChange = "2019-05-10 10:35:02 +0000";
layers = (
{
background = {
paths = (
{
closed = 1;
nodes = (
"147 -258 LINE",
"147 136 LINE",
"179 53 OFFCURVE",
"255 -8 OFFCURVE",
"364 -8 CURVE",
"513 -8 OFFCURVE",
"624 103 OFFCURVE",
"624 274 CURVE",
"624 445 OFFCURVE",
"513 554 OFFCURVE",
"364 554 CURVE",
"255 554 OFFCURVE",
"179 494 OFFCURVE",
"147 412 CURVE",
"147 740 LINE",
"78 740 LINE",
"78 -258 LINE"
);
},
{
closed = 1;
nodes = (
"239 53 OFFCURVE",
"147 137 OFFCURVE",
"147 273 CURVE",
"147 409 OFFCURVE",
"239 493 OFFCURVE",
"350 493 CURVE",
"465 493 OFFCURVE",
"553 413 OFFCURVE",
"553 274 CURVE",
"553 136 OFFCURVE",
"465 53 OFFCURVE",
"350 53 CURVE"
);
}
);
};
layerId = "3B8883BF-F483-4B97-AC7C-CABF8B821093";
paths = (
{
closed = 1;
nodes = (
"140 -220 LINE",
"140 88 LINE",
"174 25 OFFCURVE",
"242 -12 OFFCURVE",
"326 -12 CURVE SMOOTH",
"477 -12 OFFCURVE",
"573 97 OFFCURVE",
"573 247 CURVE SMOOTH",
"573 397 OFFCURVE",
"477 508 OFFCURVE",
"327 508 CURVE SMOOTH",
"233 508 OFFCURVE",
"172 460 OFFCURVE",
"140 410 CURVE",
"140 720 LINE",
"70 720 LINE",
"70 -220 LINE"
);
},
{
closed = 1;
nodes = (
"218 49 OFFCURVE",
"144 128 OFFCURVE",
"144 248 CURVE SMOOTH",
"144 368 OFFCURVE",
"218 447 OFFCURVE",
"323 447 CURVE SMOOTH",
"428 447 OFFCURVE",
"502 368 OFFCURVE",
"502 248 CURVE SMOOTH",
"502 128 OFFCURVE",
"428 49 OFFCURVE",
"323 49 CURVE SMOOTH"
);
}
);
width = 621;
},
{
background = {
paths = (
{
closed = 1;
nodes = (
"233 -266 LINE",
"233 81 LINE",
"270 27 OFFCURVE",
"323 -7 OFFCURVE",
"397 -7 CURVE SMOOTH",
"536 -7 OFFCURVE",
"651 108 OFFCURVE",
"651 278 CURVE SMOOTH",
"651 448 OFFCURVE",
"536 564 OFFCURVE",
"397 564 CURVE SMOOTH",
"323 564 OFFCURVE",
"269 535 OFFCURVE",
"233 485 CURVE",
"233 740 LINE",
"62 740 LINE",
"62 -266 LINE"
);
},
{
closed = 1;
nodes = (
"297 141 OFFCURVE",
"233 185 OFFCURVE",
"233 279 CURVE SMOOTH",
"233 373 OFFCURVE",
"297 416 OFFCURVE",
"355 416 CURVE SMOOTH",
"413 416 OFFCURVE",
"477 372 OFFCURVE",
"477 278 CURVE SMOOTH",
"477 184 OFFCURVE",
"413 141 OFFCURVE",
"355 141 CURVE SMOOTH"
);
}
);
};
layerId = "A390C1A2-E540-434D-BB9E-4BCEE875BA63";
paths = (
{
closed = 1;
nodes = (
"233 -220 LINE",
"233 53 LINE",
"267 12 OFFCURVE",
"315 -12 OFFCURVE",
"383 -12 CURVE SMOOTH",
"516 -12 OFFCURVE",
"625 98 OFFCURVE",
"625 247 CURVE SMOOTH",
"625 396 OFFCURVE",
"516 508 OFFCURVE",
"383 508 CURVE SMOOTH",
"307 508 OFFCURVE",
"264 476 OFFCURVE",
"233 436 CURVE",
"233 720 LINE",
"62 720 LINE",
"62 -220 LINE"
);
},
{
closed = 1;
nodes = (
"272 137 OFFCURVE",
"225 185 OFFCURVE",
"225 248 CURVE SMOOTH",
"225 309 OFFCURVE",
"272 359 OFFCURVE",
"338 359 CURVE SMOOTH",
"403 359 OFFCURVE",
"451 309 OFFCURVE",
"451 247 CURVE SMOOTH",
"451 185 OFFCURVE",
"403 137 OFFCURVE",
"338 137 CURVE SMOOTH"
);
}
);
width = 675;
}
);
leftMetricsKey = l;
rightKerningGroup = o;
rightMetricsKey = o;
unicode = 00FE;
userData = {
com.schriftgestaltung.Glyphs.ColorIndex = 4;
};
},
